<?xml version="1.0" encoding="UTF-8" standalone="no"?>
<!-- Generator: Adobe Illustrator 15.0.0, SVG Export Plug-In . SVG Version: 6.00 Build 0)  -->

<svg
   xmlns:dc="http://purl.org/dc/elements/1.1/"
   xmlns:cc="http://creativecommons.org/ns#"
   xmlns:rdf="http://www.w3.org/1999/02/22-rdf-syntax-ns#"
   xmlns:svg="http://www.w3.org/2000/svg"
   xmlns="http://www.w3.org/2000/svg"
   xmlns:sodipodi="http://sodipodi.sourceforge.net/DTD/sodipodi-0.dtd"
   xmlns:inkscape="http://www.inkscape.org/namespaces/inkscape"
   version="1.0"
   x="0px"
   y="0px"
   width="200.03125"
   height="199.84375"
   viewBox="0 0 200.03125 199.84375"
   enable-background="new 0 0 566.93 566.93"
   xml:space="preserve"
   id="svg2"
   inkscape:version="0.48.2 r9819"
   sodipodi:docname="AJAX1.svg"><metadata
   id="metadata60"><rdf:RDF><cc:Work
       rdf:about=""><dc:format>image/svg+xml</dc:format><dc:type
         rdf:resource="http://purl.org/dc/dcmitype/StillImage" /><dc:title /></cc:Work></rdf:RDF></metadata><defs
   id="defs58" /><sodipodi:namedview
   pagecolor="#ffffff"
   bordercolor="#666666"
   borderopacity="1"
   objecttolerance="10"
   gridtolerance="10"
   guidetolerance="10"
   inkscape:pageopacity="0"
   inkscape:pageshadow="2"
   inkscape:window-width="1280"
   inkscape:window-height="1004"
   id="namedview56"
   showgrid="false"
   fit-margin-top="0"
   fit-margin-left="0"
   fit-margin-right="0"
   fit-margin-bottom="0"
   inkscape:zoom="3.3302172"
   inkscape:cx="15.872377"
   inkscape:cy="97.931066"
   inkscape:window-x="-8"
   inkscape:window-y="-8"
   inkscape:window-maximized="1"
   inkscape:current-layer="Layer_1" />
<g
   id="Layer_1"
   transform="translate(-32.5,-337.6875)">
	
	
	
	
	<g
   id="g13">
		
		
		
		
		
		
		
		
		
		
		
		
		
		
		
		
		
		
		
		
	</g>
<path
   inkscape:connector-curvature="0"
   style="fill:#ffffff;fill-rule:nonzero;stroke:#1673c3;stroke-width:1.25000000000000000;stroke-linecap:butt;stroke-linejoin:miter;stroke-opacity:1;stroke-dasharray:none"
   d="m 231.91575,522.60158 c 0,7.89125 -6.39875,14.29 -14.2925,14.29 l -170.2005,0 c -7.89305,0 -14.29075,-6.39875 -14.29075,-14.29 l 0,-169.99425 c 0,-7.89307 6.3977,-14.292 14.29075,-14.292 l 170.2005,0 c 7.89375,0 14.2925,6.39893 14.2925,14.292 l 0,169.99425 z"
   id="path11" /><path
   inkscape:connector-curvature="0"
   style="fill:#1673c3;fill-opacity:1;fill-rule:nonzero;stroke:none"
   d="m 224.49265,522.6022 c 0,3.79375 -3.07625,6.87 -6.87,6.87 l -170.1999,0 c -3.793925,0 -6.8701,-3.07625 -6.8701,-6.87 l 0,-169.99483 c 0,-3.79522 3.076175,-6.87017 6.8701,-6.87017 l 170.1999,0 c 3.79375,0 6.87,3.07495 6.87,6.87017 l 0,169.99483 z"
   id="path13" /><path
   style="fill:#ffffff;fill-rule:nonzero;stroke:none"
   d="m 52.90625,330.4375 0,152.375 32.03125,0 0,-59.28125 48.34375,0 c 19.24125,0 34.84375,-15.60299 34.84375,-34.84375 l 0,-23.40625 c 0,-19.24075 -15.6025,-34.84375 -34.84375,-34.84375 l -80.375,0 z m 32.1875,25.125 36.03125,0 c 8.2185,0 14.875,6.65712 14.875,14.875 l 0,13.375 c 0,8.21775 -6.6565,14.90625 -14.875,14.90625 l -36.03125,0 0,-43.15625 z"
   transform="translate(32.507,32.838)"
   id="path15"
   inkscape:connector-curvature="0" /></g>
<g
   id="Layer_2"
   transform="translate(-32.5,-337.6875)">
</g>
</svg>