<?xml version="1.0" encoding="UTF-8" standalone="no"?>
<!-- Generator: Adobe Illustrator 15.0.0, SVG Export Plug-In . SVG Version: 6.00 Build 0)  -->

<svg
   xmlns:dc="http://purl.org/dc/elements/1.1/"
   xmlns:cc="http://creativecommons.org/ns#"
   xmlns:rdf="http://www.w3.org/1999/02/22-rdf-syntax-ns#"
   xmlns:svg="http://www.w3.org/2000/svg"
   xmlns="http://www.w3.org/2000/svg"
   xmlns:sodipodi="http://sodipodi.sourceforge.net/DTD/sodipodi-0.dtd"
   xmlns:inkscape="http://www.inkscape.org/namespaces/inkscape"
   version="1.1"
   id="Layer_1"
   x="0px"
   y="0px"
   width="175.13875"
   height="201.96875"
   viewBox="0 0 175.13875 201.96875"
   enable-background="new 0 0 180 108"
   xml:space="preserve"
   inkscape:version="0.48.2 r9819"
   sodipodi:docname="Nepal C5.svg"><metadata
   id="metadata61"><rdf:RDF><cc:Work
       rdf:about=""><dc:format>image/svg+xml</dc:format><dc:type
         rdf:resource="http://purl.org/dc/dcmitype/StillImage" /><dc:title></dc:title></cc:Work></rdf:RDF></metadata><defs
   id="defs59" /><sodipodi:namedview
   pagecolor="#ffffff"
   bordercolor="#666666"
   borderopacity="1"
   objecttolerance="10"
   gridtolerance="10"
   guidetolerance="10"
   inkscape:pageopacity="0"
   inkscape:pageshadow="2"
   inkscape:window-width="1280"
   inkscape:window-height="1004"
   id="namedview57"
   showgrid="false"
   fit-margin-bottom="0"
   fit-margin-top="0"
   fit-margin-left="0"
   fit-margin-right="0"
   inkscape:zoom="2.5298709"
   inkscape:cx="85.21556"
   inkscape:cy="117.63512"
   inkscape:window-x="-8"
   inkscape:window-y="-8"
   inkscape:window-maximized="1"
   inkscape:current-layer="Layer_1"
   showguides="true"
   inkscape:guide-bbox="true" />

<path
   inkscape:connector-curvature="0"
   d="m 0,-1.0557796e-6 175.13875,0 L 175.13875,201.96875 0,201.96875 0,-1.0557796e-6 z"
   style="fill:#1673c3;fill-opacity:1;fill-rule:nonzero;stroke:none"
   id="path5046" /><path
   inkscape:connector-curvature="0"
   d="m 33.32375,18.761249 111.16375,0 c 6.1875,0 11.25,6.41 11.25,14.24375 l 0,106.645001 c 0,7.83375 -5.0625,14.24375 -11.25,14.24375 l -111.16375,0 c -6.1875,0 -11.25,-6.41 -11.25,-14.24375 l 0,-106.645001 c 0,-7.83375 5.0625,-14.24375 11.25,-14.24375"
   style="fill:#ffffff;fill-opacity:1;fill-rule:evenodd;stroke:none"
   id="path5048" /><path
   inkscape:connector-curvature="0"
   d="m 112,173.79125 -35.18875,0.2575 13.69,-13.68875 -11.20125,0.215 -17.70125,17.70125 17.53,17.52875 11.2225,0.23625 L 77.13375,182.825 111.9575,182.5025 112,173.79125"
   style="fill:#ffffff;fill-opacity:1;fill-rule:evenodd;stroke:none"
   id="path5060" /><path
   inkscape:connector-curvature="0"
   d="m 80.1525,134.1825 c -0.0675,8.385 18.325,8.7225 18.325,-0.27 0,-20.3525 0,-40.705001 0.0675,-60.990001 -0.135,-13.86125 7.3025,-7.8425 9.6025,-21.36625 1.21625,-14.335 -9.67,-20.69 -17.78375,-21.84 -6.83,0 -7.43875,1.75875 -7.91125,1.75875 l 10.68375,14.26625 -17.91875,15.9575 c 4.8675,2.16375 5.00375,3.245 5.00375,11.35875 l -0.0688,61.125001"
   style="fill:#000000;fill-opacity:1;fill-rule:evenodd;stroke:none"
   id="path5050" /><path
   inkscape:connector-curvature="0"
   d="m 73.47625,39.488749 8.92625,11.2925 -8.52,7.37 c -3.38125,-3.31375 -5.6125,-12.03625 -0.40625,-18.6625"
   style="fill:#000000;fill-opacity:1;fill-rule:evenodd;stroke:none"
   id="path5052" /><path
   inkscape:connector-curvature="0"
   d="m 82.75875,58.308749 12.57625,-10.5475 4.4625,6.22125 -12.44125,10.21 -4.5975,-5.88375 z"
   style="fill:#ffffff;fill-opacity:1;fill-rule:evenodd;stroke:none"
   id="path5054" /><path
   inkscape:connector-curvature="0"
   d="m 89.53625,127.83875 c 1.9,0 3.44875,1.55 3.44875,3.44875 0,1.9 -1.54875,3.44875 -3.44875,3.44875 -1.89875,0 -3.4475,-1.54875 -3.4475,-3.44875 0,-1.89875 1.54875,-3.44875 3.4475,-3.44875"
   style="fill:#ffffff;fill-opacity:1;fill-rule:evenodd;stroke:none"
   id="path5058" /><path
   inkscape:connector-curvature="0"
   d="m 85.8625,58.242499 8.52,-7.3025 2.11875,2.84 -8.29375,7.3475 -2.345,-2.885"
   style="fill:#000000;fill-opacity:1;fill-rule:evenodd;stroke:none"
   id="path5056" /></svg>