<?xml version="1.0" encoding="UTF-8" standalone="no"?>
<!-- Generator: Adobe Illustrator 15.0.0, SVG Export Plug-In . SVG Version: 6.00 Build 0)  -->

<svg
   xmlns:dc="http://purl.org/dc/elements/1.1/"
   xmlns:cc="http://creativecommons.org/ns#"
   xmlns:rdf="http://www.w3.org/1999/02/22-rdf-syntax-ns#"
   xmlns:svg="http://www.w3.org/2000/svg"
   xmlns="http://www.w3.org/2000/svg"
   xmlns:sodipodi="http://sodipodi.sourceforge.net/DTD/sodipodi-0.dtd"
   xmlns:inkscape="http://www.inkscape.org/namespaces/inkscape"
   version="1.1"
   id="Layer_1"
   x="0px"
   y="0px"
   width="156.96875"
   height="202.96875"
   viewBox="0 0 156.96875 202.96875"
   enable-background="new 0 0 180 108"
   xml:space="preserve"
   inkscape:version="0.48.2 r9819"
   sodipodi:docname="AJAX1.svg"><metadata
   id="metadata61"><rdf:RDF><cc:Work
       rdf:about=""><dc:format>image/svg+xml</dc:format><dc:type
         rdf:resource="http://purl.org/dc/dcmitype/StillImage" /><dc:title></dc:title></cc:Work></rdf:RDF></metadata><defs
   id="defs59" /><sodipodi:namedview
   pagecolor="#ffffff"
   bordercolor="#666666"
   borderopacity="1"
   objecttolerance="10"
   gridtolerance="10"
   guidetolerance="10"
   inkscape:pageopacity="0"
   inkscape:pageshadow="2"
   inkscape:window-width="1280"
   inkscape:window-height="1004"
   id="namedview57"
   showgrid="false"
   fit-margin-bottom="0"
   fit-margin-top="0"
   fit-margin-left="0"
   fit-margin-right="0"
   inkscape:zoom="2.5298709"
   inkscape:cx="120.69546"
   inkscape:cy="113.9175"
   inkscape:window-x="-8"
   inkscape:window-y="-8"
   inkscape:window-maximized="1"
   inkscape:current-layer="Layer_1" />

<path
   inkscape:connector-curvature="0"
   d="m 0.4875,187.85751 0,2.99625 0.37625,1.02 0.43875,1.02 0,1.02 0.37625,0.95625 0.37625,1.02 0.37625,0.51 0.81375,1.02 0.37625,1.02 0.75125,0.51 0.43875,0.51 0.7525,0.51 0.815,0.51 0.375,0.51 0.7525,0.44625 0.815,0.51 0.75125,0 0.815,0.51 136.7975,0 0.815,-0.51 0.7525,0 0.75125,-0.51 0.815,-0.44625 0.7525,-0.51 0.81375,-0.51 0.37625,-0.51 0.7525,-0.51 0.81375,-0.51 0.7525,-2.04 0.43875,-0.51 0.37625,-1.02 0.375,-0.95625 0.7525,-2.04 0,-1.02 0.43875,-1.02 0,-177.2325 -0.43875,-0.95625 0,-1.02 -0.7525,-2.0400004 -0.375,-0.51 -0.37625,-1.02 -0.43875,-1.02 -0.37625,-0.44625 -0.37625,-1.02 -0.81375,-0.51 -0.7525,-1.02 -0.37625,-0.51 -0.81375,-0.51 -0.7525,-0.51 -0.815,0 -0.75125,-0.50999996 -0.7525,-0.51 -138.4275,0 -0.75125,0.51 -0.815,0.50999996 -0.7525,0 -0.375,0.51 -0.815,0.51 -0.7525,0.51 -0.43875,1.02 -0.75125,0.51 -0.37625,1.02 -0.81375,0.44625 -0.7525,2.04 -0.37625,0.51 0,1.02 -0.43875,1.0200004 -0.37625,1.02 0,176.2125 z"
   style="fill:#ffffff;fill-opacity:1;fill-rule:evenodd;stroke:#1575c5;stroke-width:1;stroke-linecap:butt;stroke-linejoin:miter;stroke-miterlimit:2.61299992;stroke-opacity:1;stroke-dasharray:none"
   id="path4558" /><path
   inkscape:connector-curvature="0"
   d="m 7.00625,12.38251 0,-1.555 0.38875,-0.5175 0,-0.5187504 0.38875,-1.03625 0,-0.51875 0.38875,-0.5175 1.1675,-1.555 0.38875,0 0.77875,-0.51875 0.38875,0 0.38875,-0.5175 135.39375,0 0.39,0.5175 0.38875,0 0.7775,0.51875 0.39,0 0.7775,1.03625 0.77875,1.03625 0,0.51875 0.38875,1.03625 0,0.5187504 0.38875,0.5175 0,180.3575 -0.38875,0.51875 0,0.51875 -0.38875,1.03625 0,0.51875 -1.1675,1.555 -0.38875,0.5175 -0.39,0 -0.7775,0.51875 -0.38875,0 -0.39,0.5175 -135.39375,0 -0.38875,-0.5175 -0.38875,0 -0.77875,-0.51875 -0.38875,0 -1.1675,-1.555 -0.38875,-0.5175 0,-0.51875 -0.38875,-1.03625 0,-0.51875 -0.38875,-0.51875 0,-178.8025 z"
   style="fill:#1673c3;fill-opacity:1;fill-rule:evenodd;stroke:none"
   id="path4560" /><path
   inkscape:connector-curvature="0"
   d="m 86.49999,52.06126 18.13125,-30.75125 17.40625,31.24 -10.67125,-0.29375 0.20625,129.7625 -15.0225,-0.29375 0,-129.2725 -10.05,-0.39125"
   style="fill:#ffffff;fill-opacity:1;fill-rule:evenodd;stroke:none"
   id="path4562" /><path
   inkscape:connector-curvature="0"
   d="m 62.98874,60.69251 10.39875,10.725 5.62375,-21.1225 -20.0775,6.3425 4.055,4.055 z m 5.95125,6.2125 c -3.46625,3.27 -4.44625,4.5125 -6.2125,7.0625 -2.0275,3.72875 -3.00875,6.1475 -3.53125,9.4175 l 0.065,4.5125 -9.74375,-0.065 0.065,-4.5125 c 0.19625,-3.13875 1.43875,-6.86625 1.43875,-6.86625 0.72,-3.33625 2.8125,-5.10125 5.2975,-9.22125 2.485,-2.485 5.755,-6.01625 6.67,-6.54 l 5.95125,6.2125"
   style="fill:#ffffff;fill-opacity:1;fill-rule:evenodd;stroke:none"
   id="path4564" /><path
   inkscape:connector-curvature="0"
   d="m 57.85749,150.21251 11.94875,-6.65375 -17.3475,-9.98 0.8525,19.25875 4.54625,-2.625 z m 6.905,-3.79 c 2.07,3.84 2.93625,5.00125 4.77375,7.1675 2.81625,2.67625 6.2425,4.4625 9.01125,5.7 l 18.495,5.69875 -0.0913,8.9025 -21.0875,-6.2075 c -2.93,-1.09625 -5.85875,-3.12 -6.63375,-3.7 -1.205,-0.81875 -4.115,-3.1475 -7.17,-6.3225 -1.60875,-2.78625 -3.9575,-6.515 -4.2025,-7.44875 l 6.905,-3.79"
   style="fill:#ffffff;fill-opacity:1;fill-rule:evenodd;stroke:none"
   id="path4566" /><path
   inkscape:connector-curvature="0"
   d="m 68.41,106.43251 6.60625,0 0,-6.605 -0.45875,-0.5225 0,-6.01625 c -15.56375,0 -31.06375,0 -46.5625,0.065 -0.45875,0.065 -0.58875,0.065 -0.91625,0.4575 -0.32625,0.4575 -0.32625,0.52375 -0.4575,0.98125 l -0.065,10.13625 9.80874,1.37375 c 0.32751,-1.505 0.45876,-2.0275 1.11251,-2.68125 0.85,-0.91625 1.17625,-1.04625 2.28875,-1.04625 1.04625,0 1.43875,0.065 2.28875,1.04625 0.72,0.65375 0.785,1.11125 1.1125,2.74625 l 18.5075,0 c 0.32625,-1.43875 0.32625,-1.57 1.17625,-2.68125 0.58875,-0.91625 1.3075,-0.98125 2.355,-1.1775 1.04625,0.19625 1.43875,0.19625 2.22375,1.1125 0.65375,0.78375 0.71875,1.2425 0.98,2.81125 z m -32.30626,-7.0625 0.065,0 0.13125,-0.065 0.13125,0 0.065,-0.0663 0.065,-0.13 0.13125,-0.0662 0,-0.195 0.065,-0.0663 0,-3.20375 -0.065,-0.13125 0,-0.065 -0.13125,-0.0662 -0.065,-0.19625 -0.065,-0.13 -0.13125,0 -0.13125,-0.065 -6.80124,0 c -0.39125,0 -0.85,0 -0.85,0 -0.32625,0 -0.65375,0.39125 -0.65375,0.39125 l -0.065,0.52375 0,2.9425 0.065,0.0663 0,0.195 0.065,0.0662 0.0663,0.13 0.13,0.0663 0.13125,0 0.13,0.065 7.71749,0 z m 33.22251,-3.7925 0,-0.13125 0.065,-0.065 0,-0.0662 0.065,-0.19625 0.19625,-0.13 0.13125,0 0.13,-0.065 2.55125,0 0.065,0.065 0.13125,0 0.13,0.13 0.13125,0.19625 0,0.0662 0.0662,0.065 0,9.4825 -0.0662,0.065 0,0.0663 -0.13125,0.13 -0.13,0.0662 -0.13125,0 -0.065,0.065 -2.55125,0 -0.13,-0.065 -0.13125,0 -0.19625,-0.0662 -0.065,-0.13 0,-0.0663 -0.065,-0.065 0,-9.35125 z m -1.83125,3.7925 0.065,0 0.13125,-0.065 0.13,0 0.0663,-0.0663 0.065,-0.13 0.065,-0.0662 0,-0.195 0.0662,-0.0663 0,-3.20375 -0.0662,-0.13125 0,-0.065 -0.065,-0.0662 -0.065,-0.19625 -0.0663,-0.13 -0.13,0 -0.13125,-0.065 -7.8475,0 -0.065,0.065 -0.0663,0 -0.13,0.13 -0.13125,0.19625 0,0.0662 -0.065,0.065 0,3.40125 0.065,0.195 0,0.0662 0.13125,0.13 0.13,0.0663 0.0663,0 0.065,0.065 7.7825,0 z m -10.46375,0 0.13125,0 0.065,-0.065 0.065,0 0.13125,-0.0663 0.13,-0.13 0,-0.0662 0.0662,-0.195 0,-3.40125 -0.0662,-0.065 0,-0.0662 -0.13,-0.19625 -0.13125,-0.13 -0.065,0 -0.065,-0.065 -7.84875,0 -0.19625,0.065 -0.065,0 -0.065,0.13 -0.0662,0.19625 -0.065,0.0662 0,0.065 -0.065,0.13125 0,3.20375 0.065,0.0663 0,0.195 0.065,0.0662 0.0662,0.13 0.065,0.0663 0.065,0 0.19625,0.065 7.7175,0 z m -10.52875,0 0.19625,0 0.065,-0.065 0.065,0 0.13125,-0.0663 0.065,-0.13 0,-0.0662 0.0662,-0.195 0,-3.40125 -0.0662,-0.065 0,-0.0662 -0.065,-0.19625 -0.13125,-0.13 -0.065,0 -0.065,-0.065 -7.91375,0 -0.065,0.065 -0.0663,0 -0.13,0.13 -0.065,0.19625 0,0.0662 -0.0662,0.065 0,3.40125 0.0662,0.195 0,0.0662 0.065,0.13 0.13,0.0663 0.0663,0 0.065,0.065 7.7175,0"
   style="fill:#ffffff;fill-opacity:1;fill-rule:evenodd;stroke:none"
   id="path4568" /><path
   inkscape:connector-curvature="0"
   d="m 66.495,106.25876 c 0,0.6925 -0.5325,1.225 -1.22625,1.225 -0.71,0 -1.25,-0.5325 -1.25,-1.225 0,-0.71 0.54,-1.25 1.25,-1.25 0.69375,0 1.22625,0.54 1.22625,1.25 z m 1.25,0 c 0,1.39375 -1.065,2.47625 -2.47625,2.47625 -1.4025,0 -2.50125,-1.0825 -2.50125,-2.47625 0,-1.4025 1.09875,-2.50125 2.50125,-2.50125 1.41125,0 2.47625,1.09875 2.47625,2.50125"
   style="fill:#ffffff;fill-opacity:1;fill-rule:evenodd;stroke:none"
   id="path4570" /><path
   inkscape:connector-curvature="0"
   d="m 41.06625,106.25876 c 0,0.6925 -0.51625,1.225 -1.225,1.225 -0.6925,0 -1.25125,-0.5325 -1.25125,-1.225 0,-0.71 0.55875,-1.25 1.25125,-1.25 0.70875,0 1.225,0.54 1.225,1.25 z m 1.2425,0 c 0,1.39375 -1.065,2.47625 -2.4675,2.47625 -1.395,0 -2.4925,-1.0825 -2.4925,-2.47625 0,-1.4025 1.0975,-2.50125 2.4925,-2.50125 1.4025,0 2.4675,1.09875 2.4675,2.50125"
   style="fill:#ffffff;fill-opacity:1;fill-rule:evenodd;stroke:none"
   id="path4572" /><path
   inkscape:connector-curvature="0"
   d="m 71.72,121.93376 -0.7725,-1.2525 -0.94375,-4.1175 c -0.155,-0.7725 -0.3775,-1.0475 -1.2525,-0.96125 -1.93875,0 -3.80875,0 -5.73125,-0.0175 l 0.0175,4.9075 -1.32125,-0.0175 -0.0675,-7.3775 -24.50125,-0.0175 -0.0688,14.2575 3.225,0 c 0.0512,-0.2225 0.12,-0.6175 0.155,-0.77125 0.0512,-0.2575 0.275,-0.635 0.3775,-0.875 0.0688,-0.18875 0.27375,-0.46375 0.39375,-0.60125 0.155,-0.15375 0.44625,-0.3775 0.60125,-0.4625 0.15375,-0.0863 0.42875,-0.24125 0.6,-0.2925 0.155,-0.0512 0.4125,-0.18875 0.56625,-0.18875 0.20625,0 0.46375,-0.0688 0.68625,-0.0688 0.20625,0 0.4975,0.035 0.6175,0.0525 0.18875,0.0512 0.46375,0.085 0.635,0.17125 0.1375,0.0688 0.395,0.2575 0.5325,0.32625 0.1375,0.085 0.395,0.27375 0.515,0.39375 0.1025,0.0863 0.325,0.30875 0.41125,0.4125 0.0863,0.12 0.2575,0.36 0.30875,0.48 0.1025,0.20625 0.29125,0.56625 0.32625,0.7725 l 0.1375,0.755 15.7325,0.0162 0.155,-0.92625 0.29125,-0.66875 0.395,-0.5325 0.4625,-0.41125 0.44625,-0.29125 0.58375,-0.22375 0.58375,-0.15375 0.68625,-0.035 0.56625,0.0688 0.5825,0.17125 0.515,0.22375 0.46375,0.30875 0.515,0.4975 0.44625,0.5825 0.27375,0.70375 0.0512,0.68625 0.8925,0 0.91,-5.52375 z m -6.24625,-1.4925 -0.0163,-3.8775 c 2.95,-0.0175 1.26875,-0.0688 2.505,-0.0525 0.56625,-0.0512 0.9425,0.22375 1.04625,0.72125 l 0.78875,3.15625 -4.32375,0.0525"
   style="fill:#ffffff;fill-opacity:1;fill-rule:evenodd;stroke:none"
   id="path4574" /><path
   inkscape:connector-curvature="0"
   d="m 44.72375,124.89376 c 1.56125,0.56625 2.3675,2.33375 1.80125,3.8775 -0.56625,1.56125 -2.31625,2.385 -3.8775,1.81875 -1.56125,-0.56625 -2.3675,-2.31625 -1.80125,-3.8775 0.56625,-1.56125 2.31625,-2.385 3.8775,-1.81875 z m -0.36,0.91 c 1.02875,0.3775 1.5775,1.54375 1.20125,2.59 -0.3775,1.04625 -1.545,1.57875 -2.59125,1.20125 -1.04625,-0.3775 -1.59625,-1.54375 -1.20125,-2.59125 0.3775,-1.04625 1.545,-1.5775 2.59125,-1.2"
   style="fill:#ffffff;fill-opacity:1;fill-rule:evenodd;stroke:none"
   id="path4576" /><path
   inkscape:connector-curvature="0"
   d="m 67.19125,125.93876 c 1.0125,0.3575 1.54875,1.54875 1.19125,2.5625 -0.3575,1.0125 -1.54875,1.54875 -2.62125,1.19125 -1.07125,-0.3575 -1.54875,-1.55 -1.19125,-2.5625 0.3575,-1.0125 1.54875,-1.54875 2.62125,-1.19125 z m 0.2975,-0.9525 c 1.60875,0.53625 2.4425,2.26375 1.8475,3.87125 -0.59625,1.54875 -2.32375,2.32375 -3.9325,1.7875 -1.6075,-0.595 -2.4425,-2.32375 -1.7875,-3.8125 0.53625,-1.54875 2.32375,-2.4425 3.8725,-1.84625"
   style="fill:#ffffff;fill-opacity:1;fill-rule:evenodd;stroke:none"
   id="path4578" /></svg>