<?xml version="1.0" encoding="UTF-8" standalone="no"?>
<svg
   xmlns:dc="http://purl.org/dc/elements/1.1/"
   xmlns:cc="http://creativecommons.org/ns#"
   xmlns:rdf="http://www.w3.org/1999/02/22-rdf-syntax-ns#"
   xmlns:svg="http://www.w3.org/2000/svg"
   xmlns="http://www.w3.org/2000/svg"
   xmlns:sodipodi="http://sodipodi.sourceforge.net/DTD/sodipodi-0.dtd"
   xmlns:inkscape="http://www.inkscape.org/namespaces/inkscape"
   width="603.60004"
   height="603.60004"
   viewBox="-50 -30 60.359985 60.360002"
   id="svg2"
   version="1.1"
   inkscape:version="0.48.4 r9939"
   sodipodi:docname="AJAX.svg">
  <metadata
     id="metadata14">
    <rdf:RDF>
      <cc:Work
         rdf:about="">
        <dc:format>image/svg+xml</dc:format>
        <dc:type
           rdf:resource="http://purl.org/dc/dcmitype/StillImage" />
        <dc:title></dc:title>
      </cc:Work>
    </rdf:RDF>
  </metadata>
  <defs
     id="defs12" />
  <sodipodi:namedview
     pagecolor="#ffffff"
     bordercolor="#666666"
     borderopacity="1"
     objecttolerance="10"
     gridtolerance="10"
     guidetolerance="10"
     inkscape:pageopacity="0"
     inkscape:pageshadow="2"
     inkscape:window-width="1920"
     inkscape:window-height="1057"
     id="namedview10"
     showgrid="false"
     fit-margin-top="1.8"
     fit-margin-left="1.8"
     fit-margin-right="1.8"
     fit-margin-bottom="1.8"
     inkscape:zoom="1.0068369"
     inkscape:cx="387.61718"
     inkscape:cy="261.99345"
     inkscape:window-x="-8"
     inkscape:window-y="-8"
     inkscape:window-maximized="1"
     inkscape:current-layer="g3013"
     showguides="true"
     inkscape:guide-bbox="true" />
  <g
     id="g3013"
     transform="matrix(0.1,0,0,0.1,-151.65846,-32.008905)">
    <path
       style="font-size:medium;font-style:normal;font-variant:normal;font-weight:normal;font-stretch:normal;text-indent:0;text-align:start;text-decoration:none;line-height:normal;letter-spacing:normal;word-spacing:normal;text-transform:none;direction:ltr;block-progression:tb;writing-mode:lr-tb;text-anchor:start;baseline-shift:baseline;color:#000000;fill:#ffffff;fill-opacity:1;fill-rule:nonzero;stroke:#1575c5;stroke-width:3;marker:none;visibility:visible;display:inline;overflow:visible;enable-background:accumulate;font-family:Sans;-inkscape-font-specification:Sans;stroke-opacity:1"
       d="m 1575.3845,21.889053 c 23.5526,0 43,19.4487 43,43 l 0,513.999997 c 0,23.5513 -19.4474,43 -43,43 l -514,0 c -23.5526,0 -43,-19.4487 -43,-43 l 0,-513.999997 c 0,-23.5513 19.4474,-43 43,-43 z"
       id="path3125"
       inkscape:connector-curvature="0"
       sodipodi:nodetypes="sssssssss" />
    <path
       style="fill:#1575c5;fill-opacity:1;fill-rule:nonzero;stroke:none"
       d="m 1575.2907,43.889034 c 11.6425,0 21.0938,9.4514 21.0938,21.0937 l 0,513.812496 c 0,11.6424 -9.4513,21.0938 -21.0938,21.0938 l -513.8125,0 c -11.6423,0 -21.0937,-9.4514 -21.0937,-21.0938 l 0,-513.812496 c 0,-11.6423 9.4514,-21.0937 21.0937,-21.0937 z"
       id="path3176"
       inkscape:connector-curvature="0"
       sodipodi:nodetypes="sssssssss" />
    <g
       id="g2991"
       transform="translate(-98.20824,-398.77065)" />
    <path
       style="fill:#ffffff;stroke:none"
       d="m 1318.3845,105.48905 -250,432.79998 500,0"
       id="polyline11"
       inkscape:connector-curvature="0"
       sodipodi:nodetypes="ccc" />
    <path
       inkscape:connector-curvature="0"
       style="fill:#000000;fill-rule:nonzero;stroke:none"
       d="m 1137.7312,524.68903 0,-9.21836 -23.0547,0 0,9.21836 z"
       id="path3971"
       sodipodi:nodetypes="ccccc" />
    <path
       sodipodi:nodetypes="ccccc"
       id="path4245"
       d="m 1172.6732,524.68903 0,-9.21836 -23.0547,0 0,9.21836 z"
       style="fill:#000000;fill-rule:nonzero;stroke:none"
       inkscape:connector-curvature="0" />
    <path
       sodipodi:nodetypes="ccccc"
       id="path4247"
       d="m 1207.6151,524.68903 0,-9.21836 -23.0546,0 0,9.21836 z"
       style="fill:#000000;fill-rule:nonzero;stroke:none"
       inkscape:connector-curvature="0" />
    <path
       inkscape:connector-curvature="0"
       style="fill:#000000;fill-rule:nonzero;stroke:none"
       d="m 1242.5571,524.68903 0,-9.21836 -23.0547,0 0,9.21836 z"
       id="path4249"
       sodipodi:nodetypes="ccccc" />
    <path
       sodipodi:nodetypes="ccccc"
       id="path4251"
       d="m 1277.4991,524.68903 0,-9.21836 -23.0547,0 0,9.21836 z"
       style="fill:#000000;fill-rule:nonzero;stroke:none"
       inkscape:connector-curvature="0" />
    <path
       inkscape:connector-curvature="0"
       style="fill:#000000;fill-rule:nonzero;stroke:none"
       d="m 1312.4411,524.68903 0,-9.21836 -23.0547,0 0,9.21836 z"
       id="path4253"
       sodipodi:nodetypes="ccccc" />
    <path
       inkscape:connector-curvature="0"
       style="fill:#000000;fill-rule:nonzero;stroke:none"
       d="m 1347.383,524.68903 0,-9.21836 -23.0547,0 0,9.21836 z"
       id="path4255"
       sodipodi:nodetypes="ccccc" />
    <path
       sodipodi:nodetypes="ccccc"
       id="path4257"
       d="m 1382.325,524.68903 0,-9.21836 -23.0547,0 0,9.21836 z"
       style="fill:#000000;fill-rule:nonzero;stroke:none"
       inkscape:connector-curvature="0" />
    <path
       inkscape:connector-curvature="0"
       style="fill:#000000;fill-rule:nonzero;stroke:none"
       d="m 1417.267,524.68903 0,-9.21836 -23.0547,0 0,9.21836 z"
       id="path4259"
       sodipodi:nodetypes="ccccc" />
    <path
       sodipodi:nodetypes="ccccc"
       id="path4261"
       d="m 1452.2089,524.68903 0,-9.21836 -23.0546,0 0,9.21836 z"
       style="fill:#000000;fill-rule:nonzero;stroke:none"
       inkscape:connector-curvature="0" />
    <path
       sodipodi:nodetypes="ccccc"
       id="path4263"
       d="m 1487.1509,524.68903 0,-9.21836 -23.0547,0 0,9.21836 z"
       style="fill:#000000;fill-rule:nonzero;stroke:none"
       inkscape:connector-curvature="0" />
    <path
       inkscape:connector-curvature="0"
       style="fill:#000000;fill-rule:nonzero;stroke:none"
       d="m 1522.0929,524.68903 0,-9.21836 -23.0547,0 0,9.21836 z"
       id="path4265"
       sodipodi:nodetypes="ccccc" />
    <path
       sodipodi:nodetypes="ccccc"
       id="path4289"
       d="m 1172.6732,450.41539 0,-9.21836 -23.0547,0 0,9.21836 z"
       style="fill:#000000;fill-rule:nonzero;stroke:none"
       inkscape:connector-curvature="0" />
    <path
       sodipodi:nodetypes="ccccc"
       id="path4315"
       d="m 1242.5571,450.41539 0,-9.21836 -23.0547,0 0,9.21836 z"
       style="fill:#000000;fill-rule:nonzero;stroke:none"
       inkscape:connector-curvature="0" />
    <path
       inkscape:connector-curvature="0"
       style="fill:#000000;fill-rule:nonzero;stroke:none"
       d="m 1277.4991,450.41539 0,-9.21836 -23.0547,0 0,9.21836 z"
       id="path4331"
       sodipodi:nodetypes="ccccc" />
    <path
       sodipodi:nodetypes="ccccc"
       id="path4333"
       d="m 1312.4411,450.41539 0,-9.21836 -23.0547,0 0,9.21836 z"
       style="fill:#000000;fill-rule:nonzero;stroke:none"
       inkscape:connector-curvature="0" />
    <path
       inkscape:connector-curvature="0"
       style="fill:#000000;fill-rule:nonzero;stroke:none"
       d="m 1347.383,450.41539 0,-9.21836 -23.0547,0 0,9.21836 z"
       id="path4335"
       sodipodi:nodetypes="ccccc" />
    <path
       inkscape:connector-curvature="0"
       style="fill:#000000;fill-rule:nonzero;stroke:none"
       d="m 1417.267,450.41539 0,-9.21836 -23.0547,0 0,9.21836 z"
       id="path4339"
       sodipodi:nodetypes="ccccc" />
    <path
       sodipodi:nodetypes="ccccc"
       id="path4341"
       d="m 1452.2089,450.41539 0,-9.21836 -23.0546,0 0,9.21836 z"
       style="fill:#000000;fill-rule:nonzero;stroke:none"
       inkscape:connector-curvature="0" />
    <path
       inkscape:connector-curvature="0"
       style="fill:#000000;fill-rule:nonzero;stroke:none"
       d="m 1487.1509,450.41539 0,-9.21836 -23.0547,0 0,9.21836 z"
       id="path4343"
       sodipodi:nodetypes="ccccc" />
    <path
       id="path4376"
       d="m 1342.2439,219.5933 c 8.4486,-4.29248 14.3146,-13.21964 14.4383,-23.20428 -0.1247,-14.40603 -11.635,-25.91743 -25.7825,-25.78253 -14.2547,-0.13485 -25.7682,11.3765 -25.7826,25.78253 0.018,5.69424 1.9884,11.13888 5.1567,15.46951 0.7093,0.6747 3.7662,5.71653 -3.0941,6.70347 -6.5859,0.54185 -25.9887,1.5348 -37.6425,13.40692 -23.0722,24.24156 -38.8015,52.92949 -42.8,93.84945 -1.3154,0.38982 -5.8998,2.06879 -5.6722,7.2191 -0.2276,4.93582 9.2456,15.78304 22.6898,15.98518 3.2629,-0.20214 7.7945,-2.30392 7.7346,-7.2191 0.06,-2.76184 0.06,-4.59549 -0.5157,-6.70347 -0.9529,-2.16986 -1.4106,-7.97609 -1.5469,-17.5321 0.137,-9.6963 9.6097,-31.39077 23.2043,-40.73641 0,0 10.7421,87.40483 -79.9269,169.13362 0,0 13.9247,26.00323 14.4382,26.81383 2.949,6.11562 9.1246,8.1906 12.3757,8.76607 1.3961,0.35477 11.4051,1.42319 11.8611,1.54694 0.9178,0.0288 4.2798,0.64148 4.1251,-1.54694 0.1545,-2.70202 -0.7756,-3.25686 -1.547,-3.60956 -2.5307,-1.53251 -5.7417,-2.82783 -7.2201,-8.76606 0,0 -4.0647,-15.30657 -4.1251,-17.53213 0,0 43.4516,-27.49243 75.2859,-93.84863 0,0 44.942,51.61272 63.4251,140.77286 l 48.9859,-21.65734 c 0,0 1.9737,-1.15505 2.0624,-3.09391 -0.09,-1.49745 -2.0377,-2.30185 -3.0938,-2.57824 -1.4623,-0.17945 -28.7373,-2.92889 -28.8755,-3.09391 -0.5485,0.16505 -1.9244,-0.066 -2.0626,-1.54695 0.1387,-19.26677 -7.611,-51.35882 -13.9225,-69.09721 -1.4088,-4.13551 -2.7845,-8.03177 -4.6408,-10.31301 -21.1541,-33.87845 -28.6456,-58.61732 -18.5635,-99.00512 0,0 19.8484,45.13593 71.6744,50.01811 0,0 1.9141,2.33693 4.641,2.57824 6.7878,-0.24131 8.9639,-18.05807 8.766,-20.11036 0.1979,-5.05544 -4.2717,-5.28232 -4.1252,-5.15651 -1.0623,-0.12589 -2.896,-0.29908 -4.6408,2.57826 0,0 -39.2608,-11.61451 -50.5328,-51.04941 -4.5089,-15.79894 -14.1743,-30.20498 -24.7514,-39.1905 -2.077,-1.55911 -6.2743,-5.6701 0,-8.25041 z"
       style="fill:#000000;fill-rule:nonzero;stroke:none"
       inkscape:connector-curvature="0" />
  </g>
</svg>
