<?xml version="1.0" encoding="UTF-8" standalone="no"?>
<!-- Generator: Adobe Illustrator 15.0.0, SVG Export Plug-In . SVG Version: 6.00 Build 0)  -->

<svg
   xmlns:dc="http://purl.org/dc/elements/1.1/"
   xmlns:cc="http://creativecommons.org/ns#"
   xmlns:rdf="http://www.w3.org/1999/02/22-rdf-syntax-ns#"
   xmlns:svg="http://www.w3.org/2000/svg"
   xmlns="http://www.w3.org/2000/svg"
   xmlns:sodipodi="http://sodipodi.sourceforge.net/DTD/sodipodi-0.dtd"
   xmlns:inkscape="http://www.inkscape.org/namespaces/inkscape"
   version="1.1"
   id="Layer_1"
   x="0px"
   y="0px"
   width="175.13124"
   height="201.96875"
   viewBox="0 0 175.13124 201.96875"
   enable-background="new 0 0 180 108"
   xml:space="preserve"
   inkscape:version="0.48.2 r9819"
   sodipodi:docname="AJAX1.svg"><metadata
   id="metadata61"><rdf:RDF><cc:Work
       rdf:about=""><dc:format>image/svg+xml</dc:format><dc:type
         rdf:resource="http://purl.org/dc/dcmitype/StillImage" /><dc:title /></cc:Work></rdf:RDF></metadata><defs
   id="defs59" /><sodipodi:namedview
   pagecolor="#ffffff"
   bordercolor="#666666"
   borderopacity="1"
   objecttolerance="10"
   gridtolerance="10"
   guidetolerance="10"
   inkscape:pageopacity="0"
   inkscape:pageshadow="2"
   inkscape:window-width="1280"
   inkscape:window-height="1004"
   id="namedview57"
   showgrid="false"
   fit-margin-bottom="0"
   fit-margin-top="0"
   fit-margin-left="0"
   fit-margin-right="0"
   inkscape:zoom="1.7888889"
   inkscape:cx="9.6881686"
   inkscape:cy="87.788722"
   inkscape:window-x="-8"
   inkscape:window-y="-8"
   inkscape:window-maximized="1"
   inkscape:current-layer="Layer_1"
   showguides="true"
   inkscape:guide-bbox="true" />

<path
   inkscape:connector-curvature="0"
   d="m 0,-2.2467951e-6 175.13125,0 L 175.13125,201.96875 0,201.96875 0,-2.2467951e-6 z"
   style="fill:#1673c3;fill-opacity:1;fill-rule:nonzero;stroke:none"
   id="path4819" /><path
   inkscape:connector-curvature="0"
   d="m 31.905,20.473748 111.15875,0 c 6.1875,0 11.25,6.41 11.25,14.24375 l 0,106.645002 c 0,7.83375 -5.0625,14.24375 -11.25,14.24375 l -111.15875,0 c -6.18625,0 -11.24875,-6.41 -11.24875,-14.24375 l 0,-106.645002 c 0,-7.83375 5.0625,-14.24375 11.24875,-14.24375"
   style="fill:#ffffff;fill-opacity:1;fill-rule:evenodd;stroke:none"
   id="path4821" /><g
   style="font-size:15px;fill:#ffffff;stroke:none"
   id="text4831"><path
     d="m 111.37022,188.47348 0,3.59038 -13.549878,0 c 0.146732,-1.35728 0.586931,-2.64349 1.320598,-3.85862 0.733662,-1.21513 2.18265,-2.8269 4.34697,-4.83532 1.74244,-1.62322 2.81084,-2.72372 3.2052,-3.30149 0.53189,-0.79785 0.79785,-1.58654 0.79786,-2.36607 -1e-5,-0.86204 -0.23157,-1.52463 -0.69469,-1.98778 -0.46314,-0.46311 -1.1028,-0.69467 -1.91899,-0.69469 -0.80704,2e-5 -1.449,0.24305 -1.92588,0.72908 -0.47688,0.48607 -0.75201,1.2931 -0.82537,2.4211 l -3.851743,-0.38517 c 0.229269,-2.12762 0.949178,-3.65456 2.159723,-4.58083 1.21055,-0.92623 2.72373,-1.38936 4.53956,-1.38938 1.99006,2e-5 3.55368,0.53652 4.69087,1.60948 1.13717,1.07301 1.70576,2.40736 1.70577,4.00306 -1e-5,0.90793 -0.16279,1.77228 -0.48834,2.59305 -0.32558,0.8208 -0.84144,1.68056 -1.54758,2.57929 -0.46772,0.59612 -1.31143,1.45359 -2.53114,2.57242 -1.21973,1.11884 -1.99237,1.86168 -2.31793,2.22851 -0.32557,0.36683 -0.58923,0.7245 -0.79098,1.07298 z"
     style="font-size:28.17275047000000000px;font-variant:normal;font-weight:bold;writing-mode:lr-tb;fill:#ffffff;fill-opacity:1;fill-rule:nonzero;font-family:Arial;-inkscape-font-specification:Arial-Bold;stroke:none;stroke-opacity:1"
     id="path2990" /><path
     d="m 122.49941,192.06386 0,-20.16663 3.8655,0 0,10.70234 4.5258,-5.14482 4.75965,0 -4.99351,5.33741 5.35117,9.2717 -4.16813,0 -3.67291,-6.56172 -1.80207,1.8846 0,4.67712 z"
     style="font-size:28.17275047000000000px;font-variant:normal;font-weight:bold;writing-mode:lr-tb;fill:#ffffff;fill-opacity:1;fill-rule:nonzero;font-family:Arial;-inkscape-font-specification:Arial-Bold;stroke:none;stroke-opacity:1"
     id="path2992" /><path
     d="m 138.01215,177.45475 3.56287,0 0,1.99465 c 1.27473,-1.54985 2.7925,-2.32479 4.55331,-2.3248 0.93541,1e-5 1.74703,0.1926 2.43485,0.57776 0.6878,0.38519 1.2518,0.96753 1.69202,1.74704 0.64194,-0.77951 1.33433,-1.36185 2.07719,-1.74704 0.74281,-0.38516 1.53609,-0.57775 2.37982,-0.57776 1.07297,1e-5 1.98088,0.21782 2.72373,0.65342 0.74282,0.43563 1.29765,1.07529 1.66451,1.91899 0.26593,0.62363 0.39891,1.63242 0.39893,3.02637 l 0,9.34048 -3.8655,0 0,-8.35003 c -2e-5,-1.44898 -0.133,-2.3844 -0.39893,-2.80627 -0.35768,-0.55024 -0.90793,-0.82536 -1.65075,-0.82537 -0.54109,1e-5 -1.05007,0.16508 -1.52694,0.49522 -0.4769,0.33016 -0.8208,0.81392 -1.03172,1.45128 -0.21094,0.63738 -0.3164,1.64388 -0.31639,3.01949 l 0,7.01568 -3.8655,0 0,-8.00613 c -1e-5,-1.42146 -0.0688,-2.33854 -0.20634,-2.75124 -0.13757,-0.41268 -0.3508,-0.7199 -0.63967,-0.92167 -0.28889,-0.20174 -0.68094,-0.30262 -1.17615,-0.30263 -0.59612,1e-5 -1.13261,0.1605 -1.60948,0.48146 -0.47689,0.32099 -0.8185,0.78412 -1.02484,1.38938 -0.20635,0.60529 -0.30952,1.60949 -0.30952,3.01262 l 0,7.09821 -3.8655,0 z"
     style="font-size:28.17275047000000000px;font-variant:normal;font-weight:bold;writing-mode:lr-tb;fill:#ffffff;fill-opacity:1;fill-rule:nonzero;font-family:Arial;-inkscape-font-specification:Arial-Bold;stroke:none;stroke-opacity:1"
     id="path2994" /></g>
<path
   inkscape:connector-curvature="0"
   d="m 56.94875,33.882498 38.135,0 c 4.01625,0 7.3025,3.28625 7.3025,7.3025 l 0,93.512502 c 0,4.01625 -3.28625,7.3025 -7.3025,7.3025 l -38.135,0 c -4.01625,0 -7.3025,-3.28625 -7.3025,-7.3025 l 0,-93.512502 c 0,-4.01625 3.28625,-7.3025 7.3025,-7.3025"
   style="fill:#000000;fill-opacity:1;fill-rule:evenodd;stroke:none"
   id="path4823" /><path
   inkscape:connector-curvature="0"
   d="m 102.30875,48.196248 c 9.87125,4.3275 7.64,7.1675 7.64,21.705 l -7.5725,0 0,3.99 7.64,0 0,50.238752 c 0.27125,13.04875 15.07875,12.84625 15.34875,-0.33875 l 0,-44.761252 c -0.60875,-4.73375 -3.44875,-8.7225 -7.37,-9.12875 l -3.65125,0 c -0.27,-16.0925 2.09625,-20.8925 -12.035,-26.3025 l 0,4.5975"
   style="fill:#000000;fill-opacity:1;fill-rule:evenodd;stroke:none"
   id="path4827" /><path
   inkscape:connector-curvature="0"
   d="m 57.8575,38.412498 36.24125,0 c 1.2275,0 2.23125,1.00375 2.23125,2.23125 l 0,25.96375 c 0,1.22875 -1.00375,2.2325 -2.23125,2.2325 l -36.24125,0 c -1.2275,0 -2.23125,-1.00375 -2.23125,-2.2325 l 0,-25.96375 c 0,-1.2275 1.00375,-2.23125 2.23125,-2.23125"
   style="fill:#ffffff;fill-opacity:1;fill-rule:evenodd;stroke:none"
   id="path4825" /><path
   inkscape:connector-curvature="0"
   d="M 114.5125,73.563748 113.905,124.14 c 0.0675,7.64125 7.97875,6.8975 7.91,0 l 0,-43.408752 c 0.0688,-3.9225 -1.14875,-7.64125 -7.3025,-7.1675"
   style="fill:#ffffff;fill-opacity:1;fill-rule:evenodd;stroke:none"
   id="path4829" /></svg>