<?xml version="1.0" encoding="UTF-8" standalone="no"?>
<!-- Generator: Adobe Illustrator 15.0.0, SVG Export Plug-In . SVG Version: 6.00 Build 0)  -->

<svg
   xmlns:dc="http://purl.org/dc/elements/1.1/"
   xmlns:cc="http://creativecommons.org/ns#"
   xmlns:rdf="http://www.w3.org/1999/02/22-rdf-syntax-ns#"
   xmlns:svg="http://www.w3.org/2000/svg"
   xmlns="http://www.w3.org/2000/svg"
   xmlns:sodipodi="http://sodipodi.sourceforge.net/DTD/sodipodi-0.dtd"
   xmlns:inkscape="http://www.inkscape.org/namespaces/inkscape"
   version="1.1"
   id="Layer_1"
   x="0px"
   y="0px"
   width="135.40625"
   height="202.96875"
   viewBox="0 0 135.40625 202.96875"
   enable-background="new 0 0 180 108"
   xml:space="preserve"
   inkscape:version="0.48.2 r9819"
   sodipodi:docname="Nepal C13.svg"><metadata
   id="metadata61"><rdf:RDF><cc:Work
       rdf:about=""><dc:format>image/svg+xml</dc:format><dc:type
         rdf:resource="http://purl.org/dc/dcmitype/StillImage" /><dc:title></dc:title></cc:Work></rdf:RDF></metadata><defs
   id="defs59" /><sodipodi:namedview
   pagecolor="#ffffff"
   bordercolor="#666666"
   borderopacity="1"
   objecttolerance="10"
   gridtolerance="10"
   guidetolerance="10"
   inkscape:pageopacity="0"
   inkscape:pageshadow="2"
   inkscape:window-width="1280"
   inkscape:window-height="1004"
   id="namedview57"
   showgrid="false"
   fit-margin-bottom="0"
   fit-margin-top="0"
   fit-margin-left="0"
   fit-margin-right="0"
   inkscape:zoom="2.5298709"
   inkscape:cx="59.342174"
   inkscape:cy="97.25815"
   inkscape:window-x="-8"
   inkscape:window-y="-8"
   inkscape:window-maximized="1"
   inkscape:current-layer="Layer_1"
   showguides="true"
   inkscape:guide-bbox="true" />

<path
   inkscape:connector-curvature="0"
   d="m 134.91125,188.285 0,0 -0.19875,1.11125 0,1.11125 -0.60125,3.33375 -0.39875,0.83375 -0.4,1.11125 -0.4,0.83375 -2.2,3.05625 -0.6,0.555 -1.60125,1.11125 -0.8,0.2775 -0.59875,0.2775 -0.80125,0.27875 -0.79875,0 -0.8,0.2775 -113.99875,0 -0.8000004,-0.2775 -0.8,0 -1.6,-0.55625 -0.8,-0.2775 -0.6,-0.555 -0.8,-0.55625 -0.6,-0.555 -0.6,-0.83375 -0.6,-0.55625 -0.4,-0.8325 -0.6,-0.83375 -0.4,-0.83375 -0.4,-1.11125 -0.4,-0.83375 -0.60000002,-3.33375 0,-1.11125 -0.2,-1.11125 0,-173.90875 0.2,-0.83375 0,-1.11125 0.60000002,-3.33375 0.4,-0.83375 0.4,-1.11125 0.4,-0.83375 0.6,-0.8325 0.4,-0.83375 0.6,-0.83375 1.2,-1.11125 0.8,-0.55625 0.6,-0.555 0.8,-0.2775 0.8,-0.2775 0.8,-0.27875 0.8,-0.2775 115.5987504,0 0.79875,0.2775 0.80125,0.27875 0.59875,0.2775 0.8,0.2775 0.80125,0.555 0.8,0.55625 0.6,0.55625 0.59875,0.555 0.4,0.83375 0.6,0.83375 0.60125,0.8325 0.4,0.83375 0.4,1.11125 0.39875,0.83375 0.60125,3.33375 0,1.11125 0.19875,0.83375 0,173.90875 z"
   style="fill:#ffffff;fill-opacity:1;fill-rule:evenodd;stroke:#1575c5;stroke-width:1;stroke-linecap:butt;stroke-linejoin:miter;stroke-miterlimit:2.61299992;stroke-opacity:1;stroke-dasharray:none"
   id="path6580" /><path
   inkscape:connector-curvature="0"
   d="m 129.3125,189.9725 0,0.84875 -0.20125,0.84875 -0.19875,0.56625 -0.2,0.84875 -0.20125,0.56625 -0.4,0.56625 -0.4,0.84875 -0.39875,0.2825 -0.4,0.56625 -0.60125,0.56625 -0.4,0.28375 -0.6,0 -0.59875,0.2825 -114.7987504,0 -0.4,-0.2825 -0.6,0 -0.6,-0.28375 -0.8,-1.1325 -0.4,-0.2825 -0.4,-0.84875 -0.4,-0.56625 -0.2,-0.56625 -0.2,-0.84875 -0.2,-0.56625 0,-0.84875 -0.2,-0.84875 0,-176.3275 0.2,-0.84875 0,-0.56625 0.2,-0.84875 0.2,-0.84875 0.2,-0.56625 1.6,-2.265 0.4,-0.2825 0.6,-0.28375 0.6,-0.2825 0.4,-0.2825 114.7987504,0 0.59875,0.2825 0.6,0.2825 0.4,0.28375 0.60125,0.2825 0.4,0.56625 0.39875,0.56625 0.4,0.56625 0.4,0.56625 0.20125,0.56625 0.39875,1.6975 0.20125,0.56625 0,177.17625 z"
   style="fill:#1673c3;fill-opacity:1;fill-rule:evenodd;stroke:none"
   id="path6582" /><path
   inkscape:connector-curvature="0"
   d="m 45.04625,117.8425 0,-0.42 0.5575,-1.68 0.5575,-2.31 0.7425,-2.73125 0.5575,-2.52 0.5575,-2.31125 0.37125,-1.68 0.3725,-0.84 0,-0.21 -0.18625,-0.21 0,-0.21 -1.115,-0.63 -0.7425,-1.05 -0.5575,-1.26 0,-1.47125 0.185,-1.47 0.92875,-1.47 1.115,-1.05 1.6725,-0.42 7.06,0 0,4.41 -6.13125,0 -0.37125,0.21 -0.18625,0.42 0,0.42 0.3725,0 0,0.21125 0.7425,0.84 0.74375,0.63 0.37125,0.84 0.18625,1.05 -0.18625,0.84 0,0.84 -0.37125,1.26 -0.18625,0.84125 0,0.21 27.3125,0 0.185,-0.63 0.5575,-1.68125 0.5575,-1.47 0.37125,-0.84 -0.37125,0 -0.7425,-0.21 -1.115,-0.21 -0.93,-0.42 -1.11375,-0.21 -0.93,-0.21 -0.7425,-0.21 -0.18625,-0.21 -0.7425,-0.42 0,-0.63 0.18625,-0.84125 0.7425,-0.42 14.12,0 -0.37125,1.89125 -0.92875,1.47 -1.30125,1.05 -1.48625,0.21 -0.37125,0.84 -0.37125,1.26 -0.5575,1.47125 0,1.05 0.7425,1.26 0.74375,1.68 1.115,1.89125 0.7425,2.1 0.93,1.68 0.55625,1.26 0.3725,0.42 1.115,-0.42 1.48625,-0.42 2.9725,-0.42 2.7875,0.42 2.9725,1.05125 2.415,1.68 2.415,1.89 1.6725,2.73 1.48625,2.73125 0.92875,3.36 0.3725,3.15125 -0.3725,3.57 -0.92875,3.15125 -1.48625,2.94 -1.6725,2.31125 -2.415,2.1 -2.415,1.47 -2.9725,1.05125 -2.7875,0.21 -2.9725,-0.21 -2.60125,-0.84125 -2.60125,-1.26 -2.04375,-1.89 -1.85875,-2.1 -1.3,-2.73125 -1.115,-2.73 -0.37125,-3.36125 -1.85875,0 -0.55625,1.26 -0.37125,1.05125 -0.74375,0.84 -0.74375,0.63 0.18625,0.63 0.5575,1.05 0.37125,1.26 0.3725,0.42 2.415,0 0,2.52125 -1.6725,0 -0.5575,0.42 -1.30125,0 -0.37125,-0.42 -2.22875,0 0,-2.52125 2.04375,0 -0.3725,-0.21 -0.37125,-1.05 -0.5575,-0.84 0,-0.42 -0.92875,0.42 -2.23,0 -1.3,-0.42 -1.115,-0.42 -0.7425,-1.05 -0.93,-0.84 -0.7425,-2.52125 0,-2.52 0.37125,-1.05 -0.92875,-0.42 -1.8575,-1.68125 -2.97375,-2.1 -2.9725,-2.52 -3.34375,-2.31125 -2.60125,-2.31 -2.04375,-1.47 -0.5575,-0.63 -0.18625,0.41875 0,0.63125 -0.185,0.63 0,0.42 1.11375,1.47 1.30125,1.26 0.92875,1.68 0.92875,1.47125 0.37125,1.89 0.5575,1.89 0.3725,1.89125 0.185,1.89 -0.37125,3.57 -0.92875,3.15125 -1.48625,2.94 -1.6725,2.31125 -2.415,2.1 -2.41625,1.47 -2.9725,1.05125 -2.78625,0.21 -3.15875,-0.21 -2.7875,-1.05125 -2.60125,-1.47 -2.04375,-2.1 -1.8575,-2.31125 -1.30125,-2.94 -0.92875,-3.15125 -0.185,-3.57 0.185,-3.15125 0.92875,-3.36 1.30125,-2.73125 1.8575,-2.73 2.04375,-1.89 2.60125,-1.68 2.7875,-1.05125 3.15875,-0.42 1.48625,0.21 1.3,0 1.115,0.42 1.48625,0.42 0,0.21 0.18625,0 z m 23.03875,15.75375 0.18625,1.89 0.9275,1.26125 1.30125,1.05 1.6725,0.21 1.3,-0.21 1.30125,-1.05 0.92875,-1.26125 0.37125,-1.89 -0.37125,-1.68 -0.92875,-1.47125 -1.30125,-1.05 -1.3,-0.42 -1.6725,0.42 -1.30125,1.05 -0.9275,1.47125 -0.18625,1.68 z m -20.81,-8.19125 -0.185,0.63 -0.18625,0.84 -0.37125,1.05 0,0.42 -1.115,2.52125 -0.92875,1.05 -0.74375,0.84 -1.115,1.05 -1.8575,1.26 -0.92875,0.21 -0.37125,0 -1.115,-0.42 -0.37125,-1.26 0.185,-0.63 0.5575,-0.84 0.18625,-0.21 1.115,-0.84 1.11375,-1.05 0.74375,-1.26125 0.7425,-1.47 0,-0.63 0.5575,-1.68 0.3725,-1.47125 0.37125,-0.84 -0.18625,0 -1.115,-0.21 -1.11375,-0.42 -1.115,-0.21 -0.92875,-0.21 -2.23,0.42 -2.04375,0.63 -1.6725,1.26125 -1.48625,1.26 -1.3,1.89 -0.93,1.89 -0.7425,2.31 0,4.83125 0.7425,2.31125 0.93,1.89 1.3,1.68 1.48625,1.47125 1.6725,1.05 2.04375,0.84 4.27375,0 2.04375,-0.84 1.67125,-1.05 1.6725,-1.47125 1.115,-1.68 1.115,-1.89 0.5575,-2.31125 0.37125,-2.52 -0.37125,-2.1 -0.5575,-2.31125 -0.92875,-1.68 -0.93,-1.89 0,-0.21 z m 28.79875,2.94 0.18625,-0.63 0.74375,-1.89 0.9275,-2.73125 1.11625,-3.15 0.92875,-2.94125 1.11375,-2.73 0.5575,-1.89 0.3725,-0.84 0,0.42 0.55625,1.05 0.5575,1.26 0.74375,1.47 0.5575,1.68 0.7425,1.26125 0.3725,0.84 0.37125,0.21 -0.18625,0 -1.48625,1.26 -0.92875,1.26 -1.115,1.47 -0.7425,1.47125 -0.74375,1.68 -0.37125,1.47 -0.5575,1.89 0,1.68125 -1.85875,0 -0.7425,-1.89 -0.92875,-1.68125 -0.18625,0 z m 11.89125,-3.99125 -1.48625,1.68125 -1.115,1.68 -0.74375,2.1 -0.37125,2.10125 7.24625,0 -0.37125,-0.21 -0.92875,-2.10125 -0.5575,-1.47 -0.74375,-1.26 -0.5575,-1.26 -0.37125,-1.05125 0,-0.41875 0,0.20875 z m 7.98875,8.4025 0,0.42 0.18625,0.42 -0.5575,1.26 -0.92875,0.42 -10.405,0 0.37125,2.31125 0.74375,1.89 0.92875,1.89 1.48625,1.26125 1.30125,1.26 1.8575,0.84 1.6725,0.63 3.90125,0 2.04375,-0.84 1.6725,-1.05 1.8575,-1.47125 1.115,-1.68 1.115,-1.89 0.5575,-2.31125 0.37125,-2.52 -0.37125,-2.31125 -0.5575,-2.31 -2.23,-3.78 -1.8575,-1.26 -1.6725,-1.26125 -2.04375,-0.63 -1.8575,-0.42 -1.8575,0.21 -1.6725,0.42 0,0.63 0.5575,1.05125 0.7425,1.89 1.115,1.68 0.74375,2.1 0.7425,1.68 0.5575,1.05125 0.37125,0.42 z M 68.8275,127.925 l -0.37125,-0.42 -0.37125,-1.26 -0.5575,-1.26 -0.18625,-0.63125 -2.60125,0 0,-2.1 1.85875,0 0.37125,-0.42 0.74375,-0.21 0.37125,0.21 0.5575,0.42 2.22875,0 0,2.1 -1.8575,0 0,0.63125 0.5575,0.84 0.18625,1.05 0.37125,0.21 0.18625,0 0.7425,-0.21 1.115,-0.21 0.18625,0 0,-0.42 0.7425,-1.89125 0.92875,-2.31 1.115,-3.15 0.92875,-2.73125 1.115,-2.73 0.5575,-1.68125 0.37125,-0.84 -27.12625,0 -0.185,0.63125 -0.18625,1.05 -0.37125,1.05 0,0.42 0.7425,0.84 2.04375,1.47 2.7875,2.31125 3.53,2.52 3.15875,2.73125 2.9725,2.31 2.04375,1.68 0.92875,0.42 0.37125,-0.42 z"
   style="fill:#ffffff;fill-opacity:1;fill-rule:evenodd;stroke:none"
   id="path6584" /><path
   inkscape:connector-curvature="0"
   d="m 94.845,178.69 -38.26625,0 9.6225,11.1025 -14.3225,0 -14.545,-16.78375 14.545,-16.525 14.3225,0 -9.6225,11.1025 38.26625,0.25875 0,10.845 z"
   style="fill:#ffffff;fill-opacity:1;fill-rule:evenodd;stroke:none"
   id="path6586" /><path
   inkscape:connector-curvature="0"
   d="m 74.985,15.99875 1.7275,0.3975 1.5125,0.5975 0.86375,0.995 0.86375,0.79625 0.6475,1.99125 0.21625,0.5975 L 80.6,22.7675 79.73625,24.36 79.305,24.7575 78.44,25.75375 79.08875,26.35 l 0.6475,0.7975 0.86375,0.3975 0.4325,0.39875 0.6475,0.19875 0.86375,0.39875 1.29625,0.3975 0.86375,0.79625 1.08,0.5975 1.5125,1.39375 0.21625,0.995 0.6475,1.39375 0.21625,1.195 0.43125,1.19375 0.865,3.18625 0.215,1.99125 0.21625,1.19375 0,1.39375 0.21625,0.5975 0,0.995 0.21625,0.19875 0,9.35875 0.43125,0.795 0,1.39375 -0.215,0.2 -0.64875,0.995 -1.08,0.39875 -1.29625,0 -1.08,-0.99625 -0.215,-0.995 0,-0.79625 0.43125,-0.79625 0,-0.39875 0.21625,-1.195 -0.21625,-0.59625 0,-3.385 -0.43125,-1.195 0,-1.5925 -0.21625,-1.195 0,-0.79625 -0.21625,0 0,-0.79625 -0.21625,-1.19375 -0.6475,-1.7925 L 84.2725,40.2875 84.05625,39.69 83.84,39.49125 83.62375,38.495 l -0.43125,0 0,1.7925 0.215,1.79125 0,1.195 0.4325,2.38875 0.21625,0.995 0,2.98625 0.21625,0.39875 0,0.995 0.215,0.5975 0,3.9825 0.21625,1.19375 -0.21625,1.195 0,0.995 -0.215,0.5975 0,2.39 -0.4325,2.78625 0,2.98625 -0.21625,1.39375 0,1.99125 -0.21625,1.19375 0,4.38125 -0.215,0.59625 0,0.5975 -0.21625,0.995 0,0.99625 -0.21625,1.195 0,2.38875 0.4325,0.995 0.6475,1.195 0,0.995 -0.86375,0.79625 -0.86375,-0.3975 -0.86375,-0.39875 -0.865,-0.79625 -1.07875,-0.5975 -0.21625,-0.59625 -0.4325,-0.39875 -0.43125,-1.195 -0.21625,-1.195 0,-5.175 -0.21625,-0.5975 0,-4.57875 -0.21625,-1.39375 0,-3.18625 -0.21625,-0.5975 0,-3.7825 -0.215,-0.59625 -0.21625,-0.7975 -0.21625,-0.19875 -0.21625,0.5975 0,0.995 -0.21625,1.5925 0,1.59375 -0.215,1.3925 0,1.195 -0.21625,1.195 0,1.79125 -0.4325,1.5925 -0.215,1.59375 -0.21625,1.19375 0,4.38 -0.21625,1.39375 0,0.995 -0.21625,0.7975 0,0.3975 -0.43125,0.79625 -0.4325,0.2 -1.7275,1.19375 -0.865,0.5975 -0.43125,0.3975 -0.86375,0.39875 -0.865,-0.19875 -0.43125,-0.39875 0.86375,-1.39375 0.4325,-0.79625 0.215,-1.19375 -0.215,-0.7975 0,-1.3925 -0.21625,-1.7925 0,-2.38875 -0.21625,-2.19 -0.21625,-1.7925 -0.21625,-1.19375 0,-0.99625 -0.215,-0.79625 0,-0.79625 -0.21625,-0.3975 0,-0.99625 -0.21625,-1.5925 0,-1.79125 -0.21625,-1.59375 -0.21625,-1.79125 0,-6.57 0.21625,-1.7925 0,-1.5925 0.21625,-1.79125 0,-2.98625 0.21625,-0.79625 0,-0.5975 0.21625,-0.5975 0,-0.79625 0.215,-1.39375 0,-2.19 0.21625,-0.3975 0.21625,0 -0.4325,0.79625 -0.43125,1.39375 -0.64875,2.38875 -0.86375,2.38875 -0.86375,2.7875 -0.4325,1.5925 -0.43125,1.39375 -0.21625,1.195 0,0.3975 -0.6475,1.59375 -0.21625,1.19375 0,2.58875 -0.86375,0.59625 -1.29625,0.5975 -1.7275,0.79625 -0.86375,0.2 -0.865,0.19875 -0.6475,0 -0.6475,0.39875 0,0.995 0.43125,0.995 0.21625,0.99625 0.21625,0.59625 0,0.5975 0.21625,0.39875 0.215,0.79625 0.4325,0.79625 0,1.39375 0.21625,0.5975 0,0.59625 0.21625,0.2 0,0.79625 0.215,0.995 -0.215,1.5925 0,0.7975 -0.64875,1.19375 -0.6475,0.5975 -0.21625,0.995 -0.43125,2.7875 0,1.5925 -0.21625,0.5975 0,0.5975 0.21625,1.195 0.43125,0.3975 0.21625,0.995 0,0.5975 L 57.49,87.07375 56.41,86.2775 55.11375,85.48125 54.68125,84.485 54.465,83.68875 l 0,-1.195 L 54.25,81.3 l 0,-1.39375 -0.21625,-1.195 0,-1.19375 -0.4325,-0.5975 -0.21625,-0.39875 -0.43125,0.2 -0.21625,0.19875 -0.21625,0.79625 0,1.19375 -0.215,1.59375 L 52.09,81.3 l 0,0.79625 -0.21625,1.195 0,0.3975 -0.21625,0.5975 0,0.39875 -0.6475,0.79625 -0.4325,0.19875 -1.08,0.79625 -0.86375,0 -0.4325,-0.39875 0.4325,-0.995 0.21625,-0.3975 0.215,-0.5975 0,-7.36625 -0.6475,-1.7925 -0.4325,-0.19875 0.21625,-0.99625 0,-1.19375 0.21625,-0.5975 0.21625,-0.3975 0.21625,-1.39375 0,-4.38 -0.4325,-0.39875 -0.4325,-0.5975 -0.43125,0.2 -0.21625,0.3975 -0.21625,1.195 -0.215,1.39375 -0.4325,1.19375 0,1.39375 0.21625,0.39875 0.43125,0.5975 -0.6475,0.795 -1.08,0.2 -1.08,-0.39875 -0.4325,-0.3975 -0.43125,-0.79625 0.43125,-0.39875 0,-0.5975 -0.215,-0.79625 0,-1.5925 0.215,-0.5975 0,-0.5975 0.4325,-1.3925 0.4325,-1.59375 L 45.61,61.59 46.2575,60.79375 46.69,60.19625 48.85,58.205 49.28125,56.81125 48.4175,56.015 47.985,55.6175 47.55375,54.82125 47.12125,53.825 47.3375,52.43125 47.77,51.2375 l 1.295,-0.99625 1.08,-0.5975 1.29625,-0.19875 0.865,0.19875 1.295,0.5975 0.4325,0.5975 0.6475,0.5975 0.4325,0.79625 0.21625,0.995 -0.21625,1.39375 -0.21625,0.5975 -0.4325,0.39875 0,0.19875 -0.43125,0.79625 0.43125,0.5975 0.4325,0.3975 0.86375,0 0.86375,0.2 1.5125,0 0.86375,-0.39875 0,-0.5975 -0.21625,-0.19875 0.86375,-0.79625 0.21625,-0.3975 0.21625,-0.5975 0,-0.39875 0.21625,-0.995 0,-0.5975 0.21625,-0.79625 0.215,-0.99625 0.4325,-1.19375 0.21625,-1.7925 0.43125,-1.79125 0.21625,-1.195 0.4325,-0.5975 0,-0.79625 0.43125,-1.99 0.21625,-1.7925 0.4325,-1.195 0,-0.59625 0.43125,-1.7925 0.21625,-1.5925 0.21625,-1.195 0.21625,-1.3925 0.6475,-1.195 0.43125,-0.5975 0.865,-0.5975 1.08,-0.5975 1.51125,-1.19375 1.5125,-0.79625 1.08,-0.7975 0,-0.59625 -0.64875,-1.39375 -0.86375,-0.99625 -0.43125,-0.995 -0.21625,-1.195 0.21625,-1.5925 0.6475,-1.39375 1.5125,-1.19375 1.51125,-0.5975 1.5125,-0.3975 z"
   style="fill:#ffffff;fill-opacity:1;fill-rule:evenodd;stroke:none"
   id="path6588" /></svg>