<?xml version="1.0" encoding="UTF-8" standalone="no"?>
<!-- Generator: Adobe Illustrator 15.0.0, SVG Export Plug-In . SVG Version: 6.00 Build 0)  -->

<svg
   xmlns:dc="http://purl.org/dc/elements/1.1/"
   xmlns:cc="http://creativecommons.org/ns#"
   xmlns:rdf="http://www.w3.org/1999/02/22-rdf-syntax-ns#"
   xmlns:svg="http://www.w3.org/2000/svg"
   xmlns="http://www.w3.org/2000/svg"
   xmlns:sodipodi="http://sodipodi.sourceforge.net/DTD/sodipodi-0.dtd"
   xmlns:inkscape="http://www.inkscape.org/namespaces/inkscape"
   version="1.1"
   id="Layer_1"
   x="0px"
   y="0px"
   width="179.125"
   height="202.96875"
   viewBox="0 0 179.125 202.96875"
   enable-background="new 0 0 180 108"
   xml:space="preserve"
   inkscape:version="0.48.2 r9819"
   sodipodi:docname="Nepal C15.svg"><metadata
   id="metadata61"><rdf:RDF><cc:Work
       rdf:about=""><dc:format>image/svg+xml</dc:format><dc:type
         rdf:resource="http://purl.org/dc/dcmitype/StillImage" /><dc:title></dc:title></cc:Work></rdf:RDF></metadata><defs
   id="defs59" /><sodipodi:namedview
   pagecolor="#ffffff"
   bordercolor="#666666"
   borderopacity="1"
   objecttolerance="10"
   gridtolerance="10"
   guidetolerance="10"
   inkscape:pageopacity="0"
   inkscape:pageshadow="2"
   inkscape:window-width="1280"
   inkscape:window-height="1004"
   id="namedview57"
   showgrid="false"
   fit-margin-bottom="0"
   fit-margin-top="0"
   fit-margin-left="0"
   fit-margin-right="0"
   inkscape:zoom="1.7888889"
   inkscape:cx="98.546746"
   inkscape:cy="147.0894"
   inkscape:window-x="-8"
   inkscape:window-y="-8"
   inkscape:window-maximized="1"
   inkscape:current-layer="Layer_1"
   showguides="true"
   inkscape:guide-bbox="true" />

<path
   inkscape:connector-curvature="0"
   d="m 178.62125,188.285 0,0 -0.265,1.11125 0,1.11125 -0.795,3.33375 -0.53,0.83375 -0.53,1.11125 -0.53,0.83375 -0.795,0.83375 -2.12125,2.2225 -0.795,0.555 -1.06,0.55625 -1.06,0.555 -1.06125,0.2775 -0.795,0.2775 -1.06,0.27875 -1.06,0 -1.06125,0.2775 -151.095,0 -1.06125,-0.2775 -1.06,0 -1.06,-0.27875 -1.06,-0.2775 -1.06,-0.2775 -0.79625,-0.555 -1.06,-0.55625 -0.795,-0.555 -0.795,-0.83375 -0.79625,-0.55625 -0.53,-0.8325 -0.795,-0.83375 -0.53,-0.83375 -0.53,-1.11125 -0.53,-0.83375 -0.79625,-3.33375 0,-1.11125 -0.265,-1.11125 0,-173.90875 0.265,-0.83375 0,-1.11125 0.79625,-3.33375 0.53,-0.83375 0.53,-1.11125 0.53,-0.83375 0.795,-0.8325 0.53,-0.83375 L 5.26,3.81875 6.85,2.7075 7.91,2.15125 l 0.79625,-0.555 1.06,-0.2775 1.06,-0.2775 1.06,-0.27875 1.06,-0.2775 153.2175,0 1.06,0.2775 1.06,0.27875 0.795,0.2775 1.06125,0.2775 2.12,1.11125 0.795,0.55625 0.795,0.555 0.53,0.83375 1.59125,1.66625 0.53,0.83375 0.53,1.11125 0.53,0.83375 0.795,3.33375 0,1.11125 0.265,0.83375 0,173.90875 z"
   style="fill:#ffffff;fill-opacity:1;fill-rule:evenodd;stroke:#1575c5;stroke-width:1;stroke-linecap:butt;stroke-linejoin:miter;stroke-miterlimit:2.61299992;stroke-opacity:1;stroke-dasharray:none"
   id="path6889" /><path
   inkscape:connector-curvature="0"
   d="m 173.19,189.9725 0,0.84875 -0.27125,0.84875 -0.27125,0.56625 -0.27125,0.84875 -0.27125,0.56625 -0.54375,0.56625 -0.5425,0.84875 -0.5425,0.2825 -0.54375,0.56625 -0.81375,0.56625 -0.54375,0.28375 -0.81375,0 -0.815,0.2825 -155.83375,0 -0.5425,-0.2825 -0.815,0 L 8.94,196.48125 8.3975,195.915 7.855,195.34875 7.31125,195.06625 6.76875,194.2175 6.22625,193.65125 5.95375,193.085 5.6825,192.23625 5.41125,191.67 l 0,-0.84875 L 5.14,189.9725 5.14,13.645 5.41125,12.79625 5.41125,12.23 5.95375,10.5325 6.22625,9.96625 6.76875,9.4 8.3975,7.70125 8.94,7.41875 9.755,7.135 10.57,6.8525 11.1125,6.57 l 155.83375,0 0.815,0.2825 0.81375,0.2825 0.54375,0.28375 0.81375,0.2825 2.1725,2.265 0.27125,0.56625 0.5425,1.6975 0.27125,0.56625 0,177.17625 z"
   style="fill:#1673c3;fill-opacity:1;fill-rule:evenodd;stroke:none"
   id="path6891" /><path
   inkscape:connector-curvature="0"
   d="m 56.82125,67.0275 0,-0.56 0.8375,-2.24125 0.8375,-3.08 1.1175,-3.64125 0.8375,-3.36125 0.8375,-3.08 0.55875,-2.24 0.55875,-1.12125 0,-0.28 -0.28,-0.28 0,-0.28 -1.675,-0.84 -1.1175,-1.4 -0.8375,-1.68125 0,-1.96 0.28,-1.96 1.39625,-1.96125 1.675,-1.4 2.51375,-0.56 10.61125,0 0,5.88125 -9.215,0 -0.55875,0.28 -0.28,0.56 0,0.56 0.55875,0 0,0.28 1.1175,1.12125 1.11625,0.84 0.55875,1.12 0.28,1.4 -0.28,1.12125 0,1.12 -0.27875,0.84 -0.28,0.84 -0.27875,1.12 0,0.28 41.05,0 0.28,-0.84 0.8375,-2.24 0.8375,-1.96125 0.55875,-1.12 -0.55875,0 -1.11625,-0.28 -1.67625,-0.28 -1.39625,-0.56 -1.675,-0.28 -1.39625,-0.28 -1.1175,-0.28 -0.27875,-0.28 -1.1175,-0.56 0,-0.84125 0.27875,-1.12 1.1175,-0.56 21.22375,0 -0.55875,2.52125 -1.39625,1.96 -1.955,1.4 -2.23375,0.28 -0.55875,1.12125 -0.55875,1.68 -0.8375,1.96 0,1.4 1.1175,1.68125 1.11625,2.24 1.67625,2.52125 1.11625,2.8 1.39625,2.24125 0.8375,1.68 0.55875,0.56 1.67625,-0.56 2.23375,-0.56 2.23375,-0.28 2.23375,-0.28 4.18875,0.56 4.46875,1.4 3.63,2.24 3.63,2.52125 2.51375,3.64125 2.23375,3.64 1.39625,4.48125 0.55875,4.20125 -0.55875,4.76125 -1.39625,4.20125 -2.23375,3.92 -2.51375,3.08125 -3.63,2.80125 -3.63,1.96 -4.46875,1.4 -4.18875,0.28 -4.4675,-0.28 -3.91,-1.12 -3.90875,-1.68 -3.0725,-2.52125 -2.7925,-2.8 -1.955,-3.64125 -1.675,-3.64125 -0.55875,-4.48125 -2.7925,0 -0.8375,1.68125 -0.55875,1.4 -1.11625,1.12 -1.1175,0.84125 0.27875,0.84 0.83875,1.4 0.5575,1.68 0.55875,0.56 3.63,0 0,3.36125 -2.5125,0 -0.83875,0.56 -1.95375,0 -0.55875,-0.56 -3.35125,0 0,-3.36125 3.07125,0 -0.5575,-0.28 -0.55875,-1.4 -0.8375,-1.12 0,-0.56 -1.39625,0.56 -3.35125,0 -1.955,-0.56 -1.675,-0.56 -1.1175,-1.40125 -1.39625,-1.12 -1.1175,-3.36125 0,-3.36 0.55875,-1.4 -1.39625,-0.56125 -2.7925,-2.24 -4.4675,-2.8 L 75.81,76.27 l -5.02625,-3.08125 -3.91,-3.08 -3.07125,-1.96125 -0.83875,-0.84 -0.27875,0.56 0,0.84 -0.27875,0.84 0,0.56125 1.675,1.96 1.955,1.68 1.39625,2.24125 1.39625,1.96 0.55875,2.52125 0.8375,2.52 0.55875,2.52 0.27875,2.52125 -0.5575,4.76125 -1.3975,4.20125 -2.23375,3.92 -2.5125,3.08125 -3.63,2.80125 -3.63125,1.96 -4.4675,1.4 -4.18875,0.28 -4.7475,-0.28 -4.18875,-1.4 -3.91,-1.96 -3.07125,-2.80125 -2.7925,-3.08125 -1.955,-3.92 -1.39625,-4.20125 -0.28,-4.76125 0.28,-4.20125 1.39625,-4.48125 1.955,-3.64 2.7925,-3.64125 3.07125,-2.52125 3.91,-2.24 4.18875,-1.4 4.7475,-0.56 2.23375,0.28 1.955,0 1.675,0.56 2.23375,0.56 0,0.28 0.28,0 z m 34.6275,21.005 0.27875,2.52125 1.39625,1.68 1.955,1.4 2.51375,0.28 1.955,-0.28 1.95375,-1.4 1.39625,-1.68 0.55875,-2.52125 -0.55875,-2.24 -1.39625,-1.96125 -1.95375,-1.4 -1.955,-0.56 -2.51375,0.56 -1.955,1.4 -1.39625,1.96125 -0.27875,2.24 z M 60.1725,77.11 l -0.28,0.84 -0.27875,1.12 -0.55875,1.40125 0,0.56 -1.67625,3.36 -2.5125,2.52125 -1.67625,1.4 -2.7925,1.68 -1.395,0.28 -0.55875,0 -1.67625,-0.56 -0.55875,-1.68 0.28,-0.84 0.8375,-1.12 0.27875,-0.28 1.67625,-1.12125 1.675,-1.4 1.1175,-1.68 1.11625,-1.96 0,-0.84125 0.83875,-2.24 0.55875,-1.96125 0.5575,-1.12 -0.27875,0 -1.67625,-0.28 -1.675,-0.56 -1.675,-0.28 -1.39625,-0.28 -3.35125,0.56 -3.0725,0.84 -2.5125,1.68 -2.23375,1.68125 -1.955,2.52 -1.39625,2.52125 -1.1175,3.08125 0,6.44125 1.1175,3.08 1.39625,2.52125 1.955,2.24 2.23375,1.96125 2.5125,1.4 3.0725,1.12 6.4225,0 3.0725,-1.12 2.5125,-1.4 2.51375,-1.96125 1.675,-2.24 1.675,-2.52125 0.83875,-3.08 0.55875,-3.36125 -0.55875,-2.8 -0.83875,-3.08125 -1.395,-2.24125 -1.39625,-2.52 0,-0.28 z m 43.28375,3.92125 0.28,-0.84 1.11625,-2.52125 1.39625,-3.64125 1.675,-4.20125 1.3975,-3.92 1.675,-3.64125 0.8375,-2.52 0.55875,-1.12125 0,0.56125 0.8375,1.4 0.8375,1.68 1.1175,1.96 0.8375,2.24125 1.1175,1.68 0.55875,1.12125 0.55875,0.27875 -0.28,0 -2.23375,1.68125 -1.39625,1.68 -1.67625,1.96125 -1.11625,1.96 -1.1175,2.24 -0.55875,1.96125 -0.8375,2.52 0,2.24125 -2.7925,0 -1.1175,-2.52125 -1.395,-2.24 -0.28,0 z m 17.8725,-5.32125 -2.23375,2.24 -1.67625,2.24125 -1.11625,2.8 -0.55875,2.80125 10.89,0 -0.5575,-0.28125 -1.39625,-2.8 -0.8375,-1.96125 -1.1175,-1.68 -0.8375,-1.68 -0.55875,-1.4 0,-0.56 0,0.28 z m 12.0075,11.2025 0,0.56 0.28,0.56 -0.8375,1.68 -1.3975,0.56 -15.6375,0 0.55875,3.08125 1.11625,2.52125 1.39625,2.52 2.235,1.68 1.95375,1.68125 2.7925,1.12 2.51375,0.84 5.86375,0 3.0725,-1.12 2.51375,-1.4 2.7925,-1.96125 1.675,-2.24 1.675,-2.52125 0.83875,-3.08 0.5575,-3.36125 -0.5575,-3.08 -0.83875,-3.08125 -3.35,-5.04125 -2.7925,-1.68125 -2.51375,-1.68 -3.0725,-0.84 -2.7925,-0.56 -2.7925,0.28 -2.5125,0.56 0,0.84 0.8375,1.4 1.1175,2.52125 1.675,2.24 1.1175,2.80125 1.11625,2.24125 0.83875,1.4 0.5575,0.56 z M 92.565,80.47125 92.0075,79.91 l -0.55875,-1.68 -0.8375,-1.68 -0.28,-0.84 -3.91,0 0,-2.80125 2.79375,0 0.5575,-0.56 1.1175,-0.28 0.55875,0.28 0.8375,0.56 3.35125,0 0,2.80125 -2.7925,0 0,0.84 0.8375,1.12 0.28,1.4 0.5575,0.28 0.28,0 1.11625,-0.28 1.67625,-0.28 0.27875,0 0,-0.56 1.1175,-2.52 1.39625,-3.08125 1.675,-4.20125 1.39625,-3.64 1.675,-3.64125 0.83875,-2.24125 0.55875,-1.12 -40.77125,0 -0.28,0.84 -0.27875,1.40125 -0.55875,1.4 0,0.56 1.1175,1.12 3.07125,1.96125 4.18875,3.08 5.30625,3.36125 4.7475,3.64 4.4675,3.08125 3.0725,2.24125 1.39625,0.56 L 92.28625,80.75 92.565,80.47125 z"
   style="fill:#ffffff;fill-opacity:1;fill-rule:evenodd;stroke:none"
   id="path6893" /><path
   inkscape:connector-curvature="0"
   d="m 126.09,171.32875 -51.0375,0 12.83375,14.38625 -19.10125,0 -19.40125,-21.745 19.40125,-21.41125 19.10125,0 -12.83375,14.385 51.0375,0.335 0,14.05 z"
   style="fill:#ffffff;fill-opacity:1;fill-rule:evenodd;stroke:none"
   id="path6895" /></svg>