<?xml version="1.0" encoding="UTF-8" standalone="no"?>
<!-- Generator: Adobe Illustrator 15.0.0, SVG Export Plug-In . SVG Version: 6.00 Build 0)  -->

<svg
   xmlns:dc="http://purl.org/dc/elements/1.1/"
   xmlns:cc="http://creativecommons.org/ns#"
   xmlns:rdf="http://www.w3.org/1999/02/22-rdf-syntax-ns#"
   xmlns:svg="http://www.w3.org/2000/svg"
   xmlns="http://www.w3.org/2000/svg"
   xmlns:sodipodi="http://sodipodi.sourceforge.net/DTD/sodipodi-0.dtd"
   xmlns:inkscape="http://www.inkscape.org/namespaces/inkscape"
   version="1.1"
   id="Layer_1"
   x="0px"
   y="0px"
   width="234.9375"
   height="160.4375"
   viewBox="0 0 234.9375 160.4375"
   enable-background="new 0 0 180 108"
   xml:space="preserve"
   inkscape:version="0.48.2 r9819"
   sodipodi:docname="Nepal C16.svg"><metadata
   id="metadata61"><rdf:RDF><cc:Work
       rdf:about=""><dc:format>image/svg+xml</dc:format><dc:type
         rdf:resource="http://purl.org/dc/dcmitype/StillImage" /><dc:title></dc:title></cc:Work></rdf:RDF></metadata><defs
   id="defs59" /><sodipodi:namedview
   pagecolor="#ffffff"
   bordercolor="#666666"
   borderopacity="1"
   objecttolerance="10"
   gridtolerance="10"
   guidetolerance="10"
   inkscape:pageopacity="0"
   inkscape:pageshadow="2"
   inkscape:window-width="1280"
   inkscape:window-height="1004"
   id="namedview57"
   showgrid="false"
   fit-margin-bottom="0"
   fit-margin-top="0"
   fit-margin-left="0"
   fit-margin-right="0"
   inkscape:zoom="2.5298709"
   inkscape:cx="147.61639"
   inkscape:cy="76.841288"
   inkscape:window-x="-8"
   inkscape:window-y="-8"
   inkscape:window-maximized="1"
   inkscape:current-layer="Layer_1"
   showguides="true"
   inkscape:guide-bbox="true" />

<path
   inkscape:connector-curvature="0"
   d="m 15.18,159.94375 -3.14375,0 -2.62,-1.05375 -2.61875,-1.3175 -2.09625,-1.845 -1.83375,-2.10875 -1.31,-2.635 L 0.51,148.3475 0.51,12.355 1.5575,9.71875 2.8675,7.3475 4.70125,4.975 6.7975,3.39375 9.41625,1.8125 l 2.62,-0.79 3.14375,-0.5275 204.59375,0 2.61875,0.5275 2.88125,0.79 4.71625,3.1625 3.1425,4.74375 0.78625,2.63625 0.52375,2.635 0,130.195 -0.52375,3.1625 -0.78625,2.63625 -1.57125,2.635 -1.57125,2.10875 -2.35875,1.845 -2.3575,1.3175 -2.88125,1.05375 -207.2125,0 z"
   style="fill:#ffffff;fill-opacity:1;fill-rule:evenodd;stroke:#1575c5;stroke-width:1;stroke-linecap:butt;stroke-linejoin:miter;stroke-miterlimit:2.61299992;stroke-opacity:1;stroke-dasharray:none"
   id="path7117" /><path
   inkscape:connector-curvature="0"
   d="m 15.18375,151.7075 -1.56375,0 -1.5625,-0.525 L 10.755,150.65875 9.9725,149.61 8.93125,148.82375 8.41,147.51375 7.88875,145.94 7.88875,14.8825 8.41,12.2625 9.9725,9.9025 10.755,9.11625 12.0575,8.33 13.62,7.80625 l 1.56375,-0.2625 203.47625,0 1.30375,0.2625 1.5625,0.52375 1.0425,0.78625 1.3025,0.78625 1.3025,2.36 0.78125,2.62 0,129.485 -0.26,1.5725 -0.52125,1.57375 -0.78125,1.31 -0.52125,0.78625 -1.3025,1.04875 -1.0425,0.52375 -1.5625,0.525 -204.78,0"
   style="fill:#1673c3;fill-opacity:1;fill-rule:evenodd;stroke:none"
   id="path7119" /><path
   inkscape:connector-curvature="0"
   d="m 49.78875,99.0325 -25.33,-0.035 -0.065,-25.74625 1.79375,-2.06375 0,-23.3325 c 59.94875,0.07 119.93125,0.105 179.91375,0.14 1.8575,0.35 2.24875,0.49 3.4225,2.02875 1.20625,1.53875 1.33625,1.99375 1.95625,3.8825 l 0.0325,39.075 -37.945,5.42125 c -0.97875,-5.84125 -1.5975,-7.66 -4.23875,-10.52875 -3.19375,-3.49875 -4.56375,-3.8475 -8.89875,-3.8475 -3.9125,0 -5.5425,0.27875 -8.835,3.8475 -2.64,2.86875 -2.93375,4.3025 -4.1075,10.91375 L 75.99875,98.6125 C 74.7275,93.12 74.59625,92.45625 71.5325,88.15375 69.0875,84.655 66.44625,84.445 62.5025,83.71125 58.4275,84.585 56.765,84.55 53.70125,88.08375 c -2.64125,3.0425 -2.8375,4.7925 -3.9125,10.94875"
   style="fill:#ffffff;fill-opacity:1;fill-rule:evenodd;stroke:none"
   id="path7121" /><path
   inkscape:connector-curvature="0"
   d="m 57.49375,98.2275 c 0,2.69375 2.05625,4.76375 4.73375,4.76375 2.7425,0 4.8325,-2.07 4.8325,-4.76375 0,-2.75875 -2.09,-4.86125 -4.8325,-4.86125 -2.6775,0 -4.73375,2.1025 -4.73375,4.86125 z m -4.8325,0 c 0,5.42125 4.11375,9.625 9.56625,9.625 5.42,0 9.66375,-4.20375 9.66375,-9.625 0,-5.4525 -4.24375,-9.7225 -9.66375,-9.7225 -5.4525,0 -9.56625,4.27 -9.56625,9.7225"
   style="fill:#ffffff;fill-opacity:1;fill-rule:evenodd;stroke:none"
   id="path7123" /><path
   inkscape:connector-curvature="0"
   d="m 155.725,98.2275 c 0,2.69375 1.99125,4.76375 4.73375,4.76375 2.6775,0 4.8325,-2.07 4.8325,-4.76375 0,-2.75875 -2.155,-4.86125 -4.8325,-4.86125 -2.7425,0 -4.73375,2.1025 -4.73375,4.86125 z m -4.8,0 c 0,5.42125 4.115,9.625 9.53375,9.625 5.3875,0 9.6325,-4.20375 9.6325,-9.625 0,-5.4525 -4.245,-9.7225 -9.6325,-9.7225 -5.41875,0 -9.53375,4.27 -9.53375,9.7225"
   style="fill:#ffffff;fill-opacity:1;fill-rule:evenodd;stroke:none"
   id="path7125" /><path
   inkscape:connector-curvature="0"
   d="m 174.66,71.69375 -0.3,0 -0.6,-0.30125 -0.3,0 -0.3,-0.3025 -0.3,-0.6025 -0.29875,-0.3025 0,-0.60375 L 172.26,69.28 l 0,-12.3725 0.30125,-0.60375 0,-0.30125 0.29875,-0.30125 0.3,-0.60375 0.3,-0.3025 0.3,0 0.6,-0.30125 26.395,0 c 1.49875,0 3.29875,0 3.29875,0 1.2,0 2.4,1.2075 2.4,1.2075 l 0.3,2.11125 0,11.4675 -0.3,0.30125 0,0.60375 -0.3,0.3025 -0.3,0.6025 -0.3,0.3025 -0.6,0 -0.3,0.30125 -29.99375,0"
   style="fill:#1673c3;fill-opacity:1;fill-rule:evenodd;stroke:none"
   id="path7127" /><path
   inkscape:connector-curvature="0"
   d="m 134.46875,71.69375 -0.6,0 -0.3,-0.30125 -0.3,0 -0.6,-0.3025 -0.3,-0.6025 0,-0.3025 -0.3,-0.60375 0,-13.2775 0.3,-0.30125 0,-0.30125 0.3,-0.60375 0.6,-0.3025 0.3,0 0.3,-0.30125 30.29375,0 0.3,0.30125 0.3,0 0.6,0.3025 0.3,0.60375 0,0.30125 0.3,0.30125 0,13.2775 -0.3,0.60375 0,0.3025 -0.3,0.6025 -0.6,0.3025 -0.3,0 -0.3,0.30125 -29.69375,0"
   style="fill:#1673c3;fill-opacity:1;fill-rule:evenodd;stroke:none"
   id="path7129" /><path
   inkscape:connector-curvature="0"
   d="m 93.9775,71.69375 -0.6,0 -0.3,-0.30125 -0.3,0 -0.6,-0.3025 -0.3,-0.6025 0,-0.3025 -0.3,-0.60375 0,-13.2775 0.3,-0.30125 0,-0.30125 0.3,-0.60375 0.6,-0.3025 0.3,0 0.3,-0.30125 30.29375,0 0.6,0.30125 0.3,0 0.29875,0.3025 0.30125,0.60375 0.29875,0.30125 0,0.30125 0.3,0.60375 0,12.3725 -0.3,0.30125 0,0.60375 -0.29875,0.3025 -0.30125,0.6025 -0.29875,0.3025 -0.3,0 -0.6,0.30125 -29.69375,0"
   style="fill:#1673c3;fill-opacity:1;fill-rule:evenodd;stroke:none"
   id="path7131" /><path
   inkscape:connector-curvature="0"
   d="m 53.48625,71.69375 -0.3,0 -0.6,-0.30125 -0.3,0 -0.3,-0.3025 -0.3,-0.6025 -0.3,-0.3025 0,-0.60375 -0.3,-0.30125 0,-12.3725 0.3,-0.60375 0,-0.30125 0.3,-0.30125 0.3,-0.60375 0.3,-0.3025 0.3,0 0.6,-0.30125 30.29375,0 0.3,0.30125 0.29875,0 0.6,0.3025 0.3,0.60375 0,0.30125 0.3,0.30125 0,13.2775 -0.3,0.60375 0,0.3025 -0.3,0.6025 -0.6,0.3025 -0.29875,0 -0.3,0.30125 -29.99375,0"
   style="fill:#1673c3;fill-opacity:1;fill-rule:evenodd;stroke:none"
   id="path7133" /><path
   inkscape:connector-curvature="0"
   d="m 46.4,56.9075 0,-0.60375 -0.3575,-0.30125 0,-0.30125 -0.35875,-0.60375 -0.71625,-0.3025 -0.3575,0 -0.3575,-0.30125 -10.0275,0 -0.35875,0.30125 -0.3575,0 -0.71625,0.3025 -0.35875,0.60375 0,0.30125 -0.3575,0.30125 0,36.815 0.3575,0.30125 0,0.3025 0.35875,0.60375 0.71625,0.30125 0.3575,0 0.35875,0.30125 10.0275,0 0.3575,-0.30125 0.3575,0 0.71625,-0.30125 0.35875,-0.60375 0,-0.3025 0.3575,-0.30125 0,-36.21125"
   style="fill:#1673c3;fill-opacity:1;fill-rule:evenodd;stroke:none"
   id="path7135" /></svg>