<?xml version="1.0" encoding="UTF-8" standalone="no"?>
<!-- Generator: Adobe Illustrator 15.0.0, SVG Export Plug-In . SVG Version: 6.00 Build 0)  -->

<svg
   xmlns:dc="http://purl.org/dc/elements/1.1/"
   xmlns:cc="http://creativecommons.org/ns#"
   xmlns:rdf="http://www.w3.org/1999/02/22-rdf-syntax-ns#"
   xmlns:svg="http://www.w3.org/2000/svg"
   xmlns="http://www.w3.org/2000/svg"
   xmlns:sodipodi="http://sodipodi.sourceforge.net/DTD/sodipodi-0.dtd"
   xmlns:inkscape="http://www.inkscape.org/namespaces/inkscape"
   version="1.1"
   id="Layer_1"
   x="0px"
   y="0px"
   width="175.13124"
   height="201.96875"
   viewBox="0 0 175.13124 201.96875"
   enable-background="new 0 0 180 108"
   xml:space="preserve"
   inkscape:version="0.48.2 r9819"
   sodipodi:docname="AJAX1.svg"><metadata
   id="metadata61"><rdf:RDF><cc:Work
       rdf:about=""><dc:format>image/svg+xml</dc:format><dc:type
         rdf:resource="http://purl.org/dc/dcmitype/StillImage" /><dc:title /></cc:Work></rdf:RDF></metadata><defs
   id="defs59" /><sodipodi:namedview
   pagecolor="#ffffff"
   bordercolor="#666666"
   borderopacity="1"
   objecttolerance="10"
   gridtolerance="10"
   guidetolerance="10"
   inkscape:pageopacity="0"
   inkscape:pageshadow="2"
   inkscape:window-width="1280"
   inkscape:window-height="1004"
   id="namedview57"
   showgrid="false"
   fit-margin-bottom="0"
   fit-margin-top="0"
   fit-margin-left="0"
   fit-margin-right="0"
   inkscape:zoom="2.5298709"
   inkscape:cx="22.146964"
   inkscape:cy="111.50614"
   inkscape:window-x="-8"
   inkscape:window-y="-8"
   inkscape:window-maximized="1"
   inkscape:current-layer="Layer_1"
   showguides="true"
   inkscape:guide-bbox="true" />

<path
   inkscape:connector-curvature="0"
   d="m 0,-2.2467951e-6 175.13125,0 L 175.13125,201.96875 0,201.96875 0,-2.2467951e-6 z"
   style="fill:#1673c3;fill-opacity:1;fill-rule:nonzero;stroke:none"
   id="path5388" /><path
   inkscape:connector-curvature="0"
   d="m 31.90751,20.473748 111.155,0 c 6.1875,0 11.24875,6.41 11.24875,14.24375 l 0,106.645002 c 0,7.83375 -5.06125,14.24375 -11.24875,14.24375 l -111.155,0 c -6.1875,0 -11.25,-6.41 -11.25,-14.24375 l 0,-106.645002 c 0,-7.83375 5.0625,-14.24375 11.25,-14.24375"
   style="fill:#ffffff;fill-opacity:1;fill-rule:evenodd;stroke:none"
   id="path5390" /><g
   style="font-size:15px;fill:#ffffff;stroke:none"
   id="text5398"><path
     d="m 111.37022,188.4735 0,3.59037 -13.549878,0 c 0.146732,-1.35728 0.586931,-2.64348 1.320598,-3.85862 0.733662,-1.21513 2.18265,-2.8269 4.34697,-4.83531 1.74244,-1.62323 2.81084,-2.72372 3.2052,-3.3015 0.53189,-0.79784 0.79785,-1.58653 0.79786,-2.36607 -1e-5,-0.86204 -0.23157,-1.52463 -0.69469,-1.98777 -0.46314,-0.46311 -1.1028,-0.69467 -1.91899,-0.69469 -0.80704,2e-5 -1.449,0.24304 -1.92588,0.72908 -0.47688,0.48607 -0.75201,1.2931 -0.82537,2.4211 l -3.851743,-0.38518 c 0.229269,-2.12761 0.949178,-3.65455 2.159723,-4.58082 1.21055,-0.92624 2.72373,-1.38936 4.53956,-1.38938 1.99006,2e-5 3.55368,0.53651 4.69087,1.60948 1.13717,1.073 1.70576,2.40735 1.70577,4.00306 -1e-5,0.90792 -0.16279,1.77227 -0.48834,2.59305 -0.32558,0.8208 -0.84144,1.68056 -1.54758,2.57929 -0.46772,0.59611 -1.31143,1.45358 -2.53114,2.57241 -1.21973,1.11885 -1.99237,1.86169 -2.31793,2.22851 -0.32557,0.36684 -0.58923,0.7245 -0.79098,1.07299 z"
     style="font-size:28.17275047000000000px;font-variant:normal;font-weight:bold;writing-mode:lr-tb;fill:#ffffff;fill-opacity:1;fill-rule:nonzero;font-family:Arial;-inkscape-font-specification:Arial-Bold;stroke:none"
     id="path2987" /><path
     d="m 122.49941,192.06387 0,-20.16662 3.8655,0 0,10.70234 4.5258,-5.14483 4.75965,0 -4.99351,5.33742 5.35117,9.27169 -4.16813,0 -3.67291,-6.56172 -1.80207,1.88461 0,4.67711 z"
     style="font-size:28.17275047000000000px;font-variant:normal;font-weight:bold;writing-mode:lr-tb;fill:#ffffff;fill-opacity:1;fill-rule:nonzero;font-family:Arial;-inkscape-font-specification:Arial-Bold;stroke:none"
     id="path2989" /><path
     d="m 138.01215,177.45476 3.56287,0 0,1.99465 c 1.27473,-1.54985 2.7925,-2.32478 4.55331,-2.3248 0.93541,2e-5 1.74703,0.1926 2.43485,0.57776 0.6878,0.38519 1.2518,0.96754 1.69202,1.74704 0.64194,-0.7795 1.33433,-1.36185 2.07719,-1.74704 0.74281,-0.38516 1.53609,-0.57774 2.37982,-0.57776 1.07297,2e-5 1.98088,0.21782 2.72373,0.65342 0.74282,0.43563 1.29765,1.07529 1.66451,1.919 0.26593,0.62362 0.39891,1.63241 0.39893,3.02637 l 0,9.34047 -3.8655,0 0,-8.35003 c -2e-5,-1.44898 -0.133,-2.3844 -0.39893,-2.80627 -0.35768,-0.55023 -0.90793,-0.82536 -1.65075,-0.82537 -0.54109,1e-5 -1.05007,0.16509 -1.52694,0.49522 -0.4769,0.33017 -0.8208,0.81393 -1.03172,1.45129 -0.21094,0.63738 -0.3164,1.64387 -0.31639,3.01949 l 0,7.01567 -3.8655,0 0,-8.00612 c -1e-5,-1.42147 -0.0688,-2.33855 -0.20634,-2.75125 -0.13757,-0.41267 -0.3508,-0.71989 -0.63967,-0.92166 -0.28889,-0.20175 -0.68094,-0.30263 -1.17615,-0.30264 -0.59612,1e-5 -1.13261,0.1605 -1.60948,0.48147 -0.47689,0.32099 -0.8185,0.78411 -1.02484,1.38938 -0.20635,0.60528 -0.30952,1.60948 -0.30952,3.01261 l 0,7.09821 -3.8655,0 z"
     style="font-size:28.17275047000000000px;font-variant:normal;font-weight:bold;writing-mode:lr-tb;fill:#ffffff;fill-opacity:1;fill-rule:nonzero;font-family:Arial;-inkscape-font-specification:Arial-Bold;stroke:none"
     id="path2991" /></g>
<path
   d="m 86.03625,91.930003 c -5.3425,2.16375 -13.86125,6.96375 -17.175,-2.29875 -5.47625,2.095 -19.7425,-1.89375 -10.345,-13.11875 -0.2025,-3.92125 -6.085,-16.16 7.4375,-15.88875 0.67625,-7.235 4.53,-15.28125 18.25625,-8.79 8.8575,-9.06125 13.72625,-9.94 19.87875,0.67625 5.13875,-4.26 17.98625,-3.24625 16.90375,9.73625 13.92875,2.5025 11.2925,11.8325 8.5875,14.94375 5.47625,10.00625 1.2175,18.52625 -11.29125,13.7925 -7.1675,4.53 -8.79,4.0575 -16.025,0 0.81125,14.132497 -3.99,28.331247 4.4625,38.541247 l 20.14875,0 0,4.93625 -87.0875,0 0,-4.86875 9.2625,0 0,-10.95375 -9.2625,0 0,-5.8825 23.935,0 0,5.8825 -9.06,0 0,10.95375 26.64,0 c 1.6225,-3.0425 2.36625,-5.07125 4.86875,-7.1 1.42,-9.5325 -0.87875,-20.28375 -0.135,-30.561247 z"
   style="fill:#000000;fill-opacity:1;fill-rule:evenodd;stroke:none;stroke-width:0.27000001000000001;stroke-linecap:butt;stroke-linejoin:miter;stroke-miterlimit:2.61299992000000000;stroke-opacity:1;stroke-dasharray:none"
   id="path6453"
   inkscape:connector-curvature="0" /></svg>