<?xml version="1.0" encoding="UTF-8" standalone="no"?>
<!-- Created with Inkscape (http://www.inkscape.org/) -->

<svg
   xmlns:dc="http://purl.org/dc/elements/1.1/"
   xmlns:cc="http://creativecommons.org/ns#"
   xmlns:rdf="http://www.w3.org/1999/02/22-rdf-syntax-ns#"
   xmlns:svg="http://www.w3.org/2000/svg"
   xmlns="http://www.w3.org/2000/svg"
   xmlns:sodipodi="http://sodipodi.sourceforge.net/DTD/sodipodi-0.dtd"
   xmlns:inkscape="http://www.inkscape.org/namespaces/inkscape"
   width="201.1925"
   height="201.1925"
   id="svg2"
   sodipodi:version="0.32"
   inkscape:version="0.48.2 r9819"
   version="1.0"
   sodipodi:docname="Nepal A13.svg"
   inkscape:output_extension="org.inkscape.output.svg.inkscape">
  <defs
     id="defs4">
    <inkscape:perspective
       sodipodi:type="inkscape:persp3d"
       inkscape:vp_x="0 : 300.5 : 1"
       inkscape:vp_y="0 : 1000 : 0"
       inkscape:vp_z="601 : 300.5 : 1"
       inkscape:persp3d-origin="300.5 : 200.33333 : 1"
       id="perspective3380" />
    <inkscape:perspective
       id="perspective3990"
       inkscape:persp3d-origin="375 : 250 : 1"
       inkscape:vp_z="750 : 375 : 1"
       inkscape:vp_y="0 : 1000 : 0"
       inkscape:vp_x="0 : 375 : 1"
       sodipodi:type="inkscape:persp3d" />
  </defs>
  <sodipodi:namedview
     id="base"
     pagecolor="#ffffff"
     bordercolor="#666666"
     borderopacity="1.0"
     gridtolerance="10000"
     guidetolerance="10"
     objecttolerance="10"
     inkscape:pageopacity="0.0"
     inkscape:pageshadow="2"
     inkscape:zoom="2"
     inkscape:cx="98.591532"
     inkscape:cy="68.825201"
     inkscape:document-units="px"
     inkscape:current-layer="layer1"
     width="601px"
     height="601px"
     inkscape:window-width="1280"
     inkscape:window-height="1004"
     inkscape:window-x="-8"
     inkscape:window-y="-8"
     showgrid="false"
     fit-margin-top="0"
     fit-margin-left="0"
     fit-margin-right="0"
     fit-margin-bottom="0"
     inkscape:window-maximized="1" />
  <metadata
     id="metadata7">
    <rdf:RDF>
      <cc:Work
         rdf:about="">
        <dc:format>image/svg+xml</dc:format>
        <dc:type
           rdf:resource="http://purl.org/dc/dcmitype/StillImage" />
        <dc:title></dc:title>
      </cc:Work>
    </rdf:RDF>
  </metadata>
  <g
     inkscape:label="Layer 1"
     inkscape:groupmode="layer"
     id="layer1"
     transform="translate(-3265.5839,4017.6087)">
    <rect
       style="color:#000000;fill:#000000;fill-opacity:1;fill-rule:nonzero;stroke:none;stroke-width:0.8735441;marker:none;visibility:visible;display:inline;overflow:visible"
       id="rect3653"
       width="0"
       height="27.202072"
       x="578.73834"
       y="298.1684"
       rx="249.48199"
       ry="27.202072" />
    <path
       inkscape:connector-curvature="0"
       d="m 3366.1801,-4017.6087 c 55.4551,0 100.5963,45.1425 100.5963,100.5962 0,55.455 -45.1412,100.5963 -100.5963,100.5963 -55.4537,0 -100.5962,-45.1413 -100.5962,-100.5963 0,-55.4537 45.1425,-100.5962 100.5962,-100.5962 z"
       style="fill:#d02c2e;fill-opacity:1;fill-rule:evenodd;stroke:none"
       id="path6040" />
    <path
       inkscape:connector-curvature="0"
       d="m 3446.2276,-3916.9725 c 0,44.1688 -36.1912,80.36 -80.36,80.36 -44.1687,0 -80.3599,-36.1912 -80.3599,-80.36 0,-44.17 36.1912,-80.36 80.3599,-80.36 44.1688,0 80.36,36.19 80.36,80.36 z"
       style="fill:#ffffff;fill-opacity:1;fill-rule:evenodd;stroke:none"
       id="path6042" />
    <path
       inkscape:connector-curvature="0"
       d="m 3322.2676,-3948.72 18.4888,-31.3587 17.75,31.8575 -10.8825,-0.2988 -0.2113,39.5475 -14.8975,-0.4987 0,-38.8488 -10.2475,-0.4 z"
       style="fill:#000000;fill-opacity:1;fill-rule:evenodd;stroke:none"
       id="path6044" />
    <path
       style="fill:#000000;fill-opacity:1;fill-rule:evenodd;stroke:none"
       d="m 94.4375,28.1875 10.21875,38.34375 8.15625,-8.34375 c -0.046,-0.04292 -0.0785,-0.08172 -0.125,-0.125 l 0.125,0.125 c 6.2583,5.840168 8.02445,8.38742 11.1875,12.96875 5.2737,14.2825 10.20005,25.03875 3.71875,37.34375 -4.395,10.2162 -10.3175,13.95875 -16.25,19.78125 -9.7775,9.6675 -25.26495,23.05495 -32.40625,28.21875 l 13.71875,11.3125 27.6875,-26.125 c 8.7887,-8.2388 13.4225,-11.7587 20.125,-20.4375 8.8987,-19.0062 10.52745,-26.3688 4.15625,-45.375 -2.8575,-8.5688 -3.7313,-10.7825 -8.125,-17.375 -5.0537,-3.955 -11.54115,-11.1875 -12.96875,-11.1875 l 7.25,-7.59375 z"
       transform="translate(3265.5839,-4017.6087)"
       id="path6046"
       inkscape:connector-curvature="0"
       sodipodi:nodetypes="ccccccccccccccccc" />
    <path
       inkscape:connector-curvature="0"
       d="m 3312.9426,-3840.6987 0,0 118.6926,-141.2625 -12.8426,-10.8963 -118.6925,141.2625 12.8425,10.8963 z"
       style="fill:#d02c2e;fill-opacity:1;fill-rule:evenodd;stroke:none"
       id="path6050" />
  </g>
</svg>
