<?xml version="1.0" encoding="UTF-8" standalone="no"?>
<!-- Created with Inkscape (http://www.inkscape.org/) -->

<svg
   xmlns:dc="http://purl.org/dc/elements/1.1/"
   xmlns:cc="http://creativecommons.org/ns#"
   xmlns:rdf="http://www.w3.org/1999/02/22-rdf-syntax-ns#"
   xmlns:svg="http://www.w3.org/2000/svg"
   xmlns="http://www.w3.org/2000/svg"
   xmlns:sodipodi="http://sodipodi.sourceforge.net/DTD/sodipodi-0.dtd"
   xmlns:inkscape="http://www.inkscape.org/namespaces/inkscape"
   width="602mm"
   height="602mm"
   viewBox="0 0 602 602"
   version="1.1"
   id="svg8"
   inkscape:version="0.92.4 (5da689c313, 2019-01-14)"
   sodipodi:docname="88.svg">
  <defs
     id="defs2" />
  <sodipodi:namedview
     id="base"
     pagecolor="#ffffff"
     bordercolor="#666666"
     borderopacity="1.0"
     inkscape:pageopacity="0.0"
     inkscape:pageshadow="2"
     inkscape:zoom="0.24748737"
     inkscape:cx="1468.1878"
     inkscape:cy="931.44232"
     inkscape:document-units="mm"
     inkscape:current-layer="layer1"
     showgrid="false"
     inkscape:window-width="1920"
     inkscape:window-height="1057"
     inkscape:window-x="-8"
     inkscape:window-y="-8"
     inkscape:window-maximized="1" />
  <metadata
     id="metadata5">
    <rdf:RDF>
      <cc:Work
         rdf:about="">
        <dc:format>image/svg+xml</dc:format>
        <dc:type
           rdf:resource="http://purl.org/dc/dcmitype/StillImage" />
        <dc:title></dc:title>
      </cc:Work>
    </rdf:RDF>
  </metadata>
  <g
     inkscape:label="Layer 1"
     inkscape:groupmode="layer"
     id="layer1"
     transform="translate(0,305)">
    <circle
       style="opacity:1;fill:#d22d2d;fill-opacity:1;fill-rule:nonzero;stroke:none;stroke-width:11.74168015;stroke-linecap:square;stroke-linejoin:round;stroke-miterlimit:4;stroke-dasharray:none;stroke-opacity:1"
       id="path10"
       cx="301"
       cy="-4"
       r="300" />
    <circle
       r="240"
       cy="-4"
       cx="301"
       id="circle817"
       style="opacity:1;fill:#ffffff;fill-opacity:1;fill-rule:nonzero;stroke:none;stroke-width:9.39334393;stroke-linecap:square;stroke-linejoin:round;stroke-miterlimit:4;stroke-dasharray:none;stroke-opacity:1" />
    <rect
       style="opacity:1;fill:#000000;fill-opacity:1;fill-rule:nonzero;stroke:none;stroke-width:75.5810318;stroke-linecap:square;stroke-linejoin:round;stroke-miterlimit:4;stroke-dasharray:none;stroke-opacity:1"
       id="rect19"
       width="420"
       height="80"
       x="91.000061"
       y="-44"
       ry="40"
       rx="40" />
    <path
       inkscape:connector-curvature="0"
       id="path18"
       style="fill:#000000;fill-opacity:1;fill-rule:nonzero;stroke:none;stroke-width:0.2435452"
       d="m 179.67917,-90.758765 c -0.0765,-4.949918 -2.18282,-8.245023 -12.16859,-10.236195 l -15.57582,-3.16835 c -9.43553,-1.95464 -21.67153,-9.99247 -21.66008,-25.59049 -0.0138,-14.83758 13.54048,-29.19743 35.28893,-29.2462 0,0 24.30112,0.0484 36.50573,14.62314 l -13.38539,13.16081 c -10.92428,-9.29057 -23.8505,-9.26135 -23.8505,-9.26135 -8.38782,-0.0276 -13.3874,4.05546 -13.38539,10.23621 -0.002,4.75496 3.55077,7.91596 19.46972,10.23613 17.63109,2.29345 29.60397,13.22907 29.69138,28.758823 0.17591,12.797701 -7.0607,29.136582 -39.18292,29.246219 C 143.1573,-62.109865 134.60501,-66.986478 122,-79.791424 l 15.8192,-11.942206 c 8.62727,8.410689 14.67918,11.045263 24.58059,10.967341 10.49248,0.07804 17.20247,-3.085503 17.27938,-9.992476" />
    <path
       inkscape:connector-curvature="0"
       id="path20"
       style="fill:#000000;fill-opacity:1;fill-rule:nonzero;stroke:none;stroke-width:0.2435452"
       d="m 259.99185,-139.2588 v 75.065316 H 241.49559 V -139.2588 h -26.04077 v -17.79147 h 70.57787 v 17.79147 h -26.04084" />
    <path
       inkscape:connector-curvature="0"
       id="path22"
       style="fill:#000000;fill-opacity:1;fill-rule:nonzero;stroke:none;stroke-width:0.2435452"
       d="m 342.73831,-62.000018 c -25.04052,0.02068 -44.90942,-20.138456 -45.0238,-48.256302 0.11452,-28.80019 18.53523,-48.56579 45.0238,-48.49995 27.1919,-0.0691 44.82181,20.75262 44.78041,48.74369 0.0414,28.402957 -18.37945,48.034535 -44.78041,48.012562" />
    <path
       inkscape:connector-curvature="0"
       id="path24"
       style="fill:#ffffff;fill-opacity:1;fill-rule:nonzero;stroke:none;stroke-width:0.2435452"
       d="m 342.73831,-79.791424 c 15.87516,-0.107079 24.16439,-11.964179 24.09382,-30.464896 0.0703,-18.5226 -8.08484,-30.38191 -24.09382,-30.46481 -16.48845,0.0829 -23.85773,11.67657 -23.85042,30.46481 -0.007,18.763938 7.49339,30.357607 23.85042,30.464896" />
    <path
       inkscape:connector-curvature="0"
       id="path26"
       style="fill:#000000;fill-opacity:1;fill-rule:nonzero;stroke:none;stroke-width:0.2435452"
       d="m 449.33515,-97.582899 h -19.22636 v 33.389415 h -19.46973 v -92.856786 h 36.9925 c 27.91716,0.0732 32.25896,23.78942 32.36844,30.46482 -0.10968,9.00545 -7.87062,28.900168 -30.66485,29.002551" />
    <path
       inkscape:connector-curvature="0"
       id="path28"
       style="fill:#ffffff;fill-opacity:1;fill-rule:nonzero;stroke:none;stroke-width:0.2435452"
       d="m 460.53026,-126.58545 c 0.0207,-8.51791 -5.37363,-12.73428 -12.8987,-12.67335 h -17.52277 v 24.85929 h 17.52277 c 6.07702,0.11191 12.92064,-4.63067 12.8987,-12.18594" />
  </g>
</svg>
