<?xml version="1.0" encoding="UTF-8" standalone="no"?>
<!-- Created with Inkscape (http://www.inkscape.org/) -->

<svg
   xmlns:dc="http://purl.org/dc/elements/1.1/"
   xmlns:cc="http://creativecommons.org/ns#"
   xmlns:rdf="http://www.w3.org/1999/02/22-rdf-syntax-ns#"
   xmlns:svg="http://www.w3.org/2000/svg"
   xmlns="http://www.w3.org/2000/svg"
   xmlns:sodipodi="http://sodipodi.sourceforge.net/DTD/sodipodi-0.dtd"
   xmlns:inkscape="http://www.inkscape.org/namespaces/inkscape"
   width="200.6875"
   height="200.6875"
   id="svg2"
   sodipodi:version="0.32"
   inkscape:version="0.48.2 r9819"
   version="1.0"
   sodipodi:docname="Nepal A11.svg"
   inkscape:output_extension="org.inkscape.output.svg.inkscape">
  <defs
     id="defs4">
    <inkscape:perspective
       sodipodi:type="inkscape:persp3d"
       inkscape:vp_x="0 : 300.5 : 1"
       inkscape:vp_y="0 : 1000 : 0"
       inkscape:vp_z="601 : 300.5 : 1"
       inkscape:persp3d-origin="300.5 : 200.33333 : 1"
       id="perspective3380" />
    <inkscape:perspective
       id="perspective3990"
       inkscape:persp3d-origin="375 : 250 : 1"
       inkscape:vp_z="750 : 375 : 1"
       inkscape:vp_y="0 : 1000 : 0"
       inkscape:vp_x="0 : 375 : 1"
       sodipodi:type="inkscape:persp3d" />
  </defs>
  <sodipodi:namedview
     id="base"
     pagecolor="#ffffff"
     bordercolor="#666666"
     borderopacity="1.0"
     gridtolerance="10000"
     guidetolerance="10"
     objecttolerance="10"
     inkscape:pageopacity="0.0"
     inkscape:pageshadow="2"
     inkscape:zoom="2.869413"
     inkscape:cx="56.618203"
     inkscape:cy="78.725876"
     inkscape:document-units="px"
     inkscape:current-layer="layer1"
     width="601px"
     height="601px"
     inkscape:window-width="1280"
     inkscape:window-height="1004"
     inkscape:window-x="-8"
     inkscape:window-y="-8"
     showgrid="false"
     fit-margin-top="0"
     fit-margin-left="0"
     fit-margin-right="0"
     fit-margin-bottom="0"
     inkscape:window-maximized="1" />
  <metadata
     id="metadata7">
    <rdf:RDF>
      <cc:Work
         rdf:about="">
        <dc:format>image/svg+xml</dc:format>
        <dc:type
           rdf:resource="http://purl.org/dc/dcmitype/StillImage" />
        <dc:title></dc:title>
      </cc:Work>
    </rdf:RDF>
  </metadata>
  <g
     inkscape:label="Layer 1"
     inkscape:groupmode="layer"
     id="layer1"
     transform="translate(-2336.1413,2764.1087)">
    <rect
       style="color:#000000;fill:#000000;fill-opacity:1;fill-rule:nonzero;stroke:none;stroke-width:0.8735441;marker:none;visibility:visible;display:inline;overflow:visible"
       id="rect3653"
       width="0"
       height="27.202072"
       x="578.73834"
       y="298.1684"
       rx="249.48199"
       ry="27.202072" />
    <path
       inkscape:connector-curvature="0"
       d="m 2336.1413,-2663.765 c 0,55.3163 45.0287,100.3438 100.3437,100.3438 55.315,0 100.3438,-45.0275 100.3438,-100.3438 0,-55.315 -45.0288,-100.3437 -100.3438,-100.3437 -55.315,0 -100.3437,45.0287 -100.3437,100.3437 z"
       style="fill:#d02c2e;fill-opacity:1;fill-rule:evenodd;stroke:none"
       id="path5514" />
    <path
       inkscape:connector-curvature="0"
       d="m 2356.3263,-2663.765 c 0,44.0588 36.1,80.1588 80.1587,80.1588 44.0588,0 80.1588,-36.1 80.1588,-80.1588 0,-44.0575 -36.1,-80.1587 -80.1588,-80.1587 -44.0587,0 -80.1587,36.1012 -80.1587,80.1587 z"
       style="fill:#ffffff;fill-opacity:1;fill-rule:evenodd;stroke:none"
       id="path5516" />
    <g
       style="font-size:15px;fill:#000000;stroke:#000000;stroke-width:1.5;stroke-miterlimit:4;stroke-opacity:1;stroke-dasharray:none"
       id="text5518">
      <path
         d="m 2395.5711,-2637.8328 -7.1077,0 0,-45.2918 c -1.7111,1.6322 -3.9553,3.2644 -6.7326,4.8964 -2.7772,1.6322 -5.2715,2.8563 -7.4828,3.6724 l 0,-6.8708 c 3.9751,-1.869 7.4499,-4.133 10.4246,-6.7918 2.9747,-2.6588 5.0807,-5.2386 6.318,-7.7395 l 4.5805,0 z"
         style="font-size:80.86975098px;font-variant:normal;font-weight:normal;writing-mode:lr-tb;fill:#000000;fill-opacity:1;fill-rule:nonzero;stroke:#000000;stroke-width:1.5;stroke-miterlimit:4;stroke-opacity:1;stroke-dasharray:none;font-family:SwitzerlandBlack;-inkscape-font-specification:SwitzerlandBlack"
         id="path5624"
         inkscape:connector-curvature="0" />
      <path
         d="m 2412.5541,-2688.1394 0,-6.8313 37.4734,0 0,5.5282 c -3.6855,3.9224 -7.3381,9.1347 -10.9577,15.6369 -3.6197,6.5023 -6.4167,13.1888 -8.391,20.0595 -1.4216,4.8438 -2.3298,10.1482 -2.7247,15.9133 l -7.3051,0 c 0.079,-4.5541 0.974,-10.056 2.6851,-16.5056 1.7111,-6.4496 4.1659,-12.6688 7.3644,-18.6577 3.1984,-5.9888 6.6009,-11.0366 10.2074,-15.1433 z"
         style="font-size:80.86975098px;font-variant:normal;font-weight:normal;writing-mode:lr-tb;fill:#000000;fill-opacity:1;fill-rule:nonzero;stroke:#000000;stroke-width:1.5;stroke-miterlimit:4;stroke-opacity:1;stroke-dasharray:none;font-family:SwitzerlandBlack;-inkscape-font-specification:SwitzerlandBlack"
         id="path5626"
         inkscape:connector-curvature="0" />
    </g>
    <g
       style="font-size:15px;fill:#000000;stroke:#000000;stroke-width:1.5;stroke-miterlimit:4;stroke-opacity:1;stroke-dasharray:none"
       id="text5522">
      <path
         d="m 2483.883,-2654.0066 0,-34.0379 -12.7149,0 0,-4.5542 30.5894,0 0,4.5542 -12.7675,0 0,34.0379 z"
         style="font-size:53.91312408px;font-variant:normal;font-weight:normal;writing-mode:lr-tb;fill:#000000;fill-opacity:1;fill-rule:nonzero;stroke:#000000;stroke-width:1.5;stroke-miterlimit:4;stroke-opacity:1;stroke-dasharray:none;font-family:SwitzerlandBlack;-inkscape-font-specification:SwitzerlandBlack"
         id="path5621"
         inkscape:connector-curvature="0" />
    </g>
  </g>
</svg>
