<?xml version="1.0" encoding="UTF-8" standalone="no"?>
<!-- Created with Inkscape (http://www.inkscape.org/) -->

<svg
   xmlns:dc="http://purl.org/dc/elements/1.1/"
   xmlns:cc="http://creativecommons.org/ns#"
   xmlns:rdf="http://www.w3.org/1999/02/22-rdf-syntax-ns#"
   xmlns:svg="http://www.w3.org/2000/svg"
   xmlns="http://www.w3.org/2000/svg"
   xmlns:sodipodi="http://sodipodi.sourceforge.net/DTD/sodipodi-0.dtd"
   xmlns:inkscape="http://www.inkscape.org/namespaces/inkscape"
   width="200.7662"
   height="200.7663"
   id="svg2"
   sodipodi:version="0.32"
   inkscape:version="0.48.2 r9819"
   version="1.0"
   sodipodi:docname="Nepal A12.svg"
   inkscape:output_extension="org.inkscape.output.svg.inkscape">
  <defs
     id="defs4">
    <inkscape:perspective
       sodipodi:type="inkscape:persp3d"
       inkscape:vp_x="0 : 300.5 : 1"
       inkscape:vp_y="0 : 1000 : 0"
       inkscape:vp_z="601 : 300.5 : 1"
       inkscape:persp3d-origin="300.5 : 200.33333 : 1"
       id="perspective3380" />
    <inkscape:perspective
       id="perspective3990"
       inkscape:persp3d-origin="375 : 250 : 1"
       inkscape:vp_z="750 : 375 : 1"
       inkscape:vp_y="0 : 1000 : 0"
       inkscape:vp_x="0 : 375 : 1"
       sodipodi:type="inkscape:persp3d" />
  </defs>
  <sodipodi:namedview
     id="base"
     pagecolor="#ffffff"
     bordercolor="#666666"
     borderopacity="1.0"
     gridtolerance="10000"
     guidetolerance="10"
     objecttolerance="10"
     inkscape:pageopacity="0.0"
     inkscape:pageshadow="2"
     inkscape:zoom="2.0289814"
     inkscape:cx="91.447351"
     inkscape:cy="57.732123"
     inkscape:document-units="px"
     inkscape:current-layer="layer1"
     width="601px"
     height="601px"
     inkscape:window-width="1280"
     inkscape:window-height="1004"
     inkscape:window-x="-8"
     inkscape:window-y="-8"
     showgrid="false"
     fit-margin-top="0"
     fit-margin-left="0"
     fit-margin-right="0"
     fit-margin-bottom="0"
     inkscape:window-maximized="1" />
  <metadata
     id="metadata7">
    <rdf:RDF>
      <cc:Work
         rdf:about="">
        <dc:format>image/svg+xml</dc:format>
        <dc:type
           rdf:resource="http://purl.org/dc/dcmitype/StillImage" />
        <dc:title></dc:title>
      </cc:Work>
    </rdf:RDF>
  </metadata>
  <g
     inkscape:label="Layer 1"
     inkscape:groupmode="layer"
     id="layer1"
     transform="translate(-2801.0226,3390.7612)">
    <rect
       style="color:#000000;fill:#000000;fill-opacity:1;fill-rule:nonzero;stroke:none;stroke-width:0.8735441;marker:none;visibility:visible;display:inline;overflow:visible"
       id="rect3653"
       width="0"
       height="27.202072"
       x="578.73834"
       y="298.1684"
       rx="249.48199"
       ry="27.202072" />
    <path
       inkscape:connector-curvature="0"
       d="m 3001.7888,-3290.3787 c 0,-55.3463 -45.0362,-100.3825 -100.3824,-100.3825 -55.3476,0 -100.3838,45.0362 -100.3838,100.3825 0,55.3463 45.0362,100.3838 100.3838,100.3838 55.3462,0 100.3824,-45.0375 100.3824,-100.3838 z"
       style="fill:#d02c2e;fill-opacity:1;fill-rule:evenodd;stroke:none"
       id="path5722"
       sodipodi:nodetypes="sssss" />
    <path
       id="path5830"
       style="fill:#ffffff;fill-opacity:1;fill-rule:evenodd;stroke:none"
       d="m 2901.4064,-3210.2162 c 44.0762,0 80.1612,-36.085 80.1612,-80.1625 0,-44.0763 -36.085,-80.1613 -80.1612,-80.1613 -44.0776,0 -80.1626,36.085 -80.1626,80.1613 0,44.0775 36.085,80.1625 80.1626,80.1625 z"
       inkscape:connector-curvature="0"
       sodipodi:nodetypes="sssss" />
    <path
       inkscape:connector-curvature="0"
       d="m 2944.5937,-3275.1937 0,0 c 3.5075,0 6.3763,2.8687 6.3763,6.375 l 0,28.0938 c 0,3.5074 -2.8688,6.3762 -6.3763,6.3762 -3.5062,0 -6.375,-2.8688 -6.375,-6.3762 l 0,-28.0938 c 0,-3.5063 2.8688,-6.375 6.375,-6.375 z"
       style="fill:#000000;fill-opacity:1;fill-rule:evenodd;stroke:none"
       id="path5704" />
    <path
       inkscape:connector-curvature="0"
       d="m 2858.0925,-3275.1937 0,0 c 3.5062,0 6.375,2.8687 6.375,6.375 l 0,28.0938 c 0,3.5074 -2.8688,6.3762 -6.375,6.3762 -3.5062,0 -6.375,-2.8688 -6.375,-6.3762 l 0,-28.0938 c 0,-3.5063 2.8688,-6.375 6.375,-6.375 z"
       style="fill:#000000;fill-opacity:1;fill-rule:evenodd;stroke:none"
       id="path5706" />
    <path
       inkscape:connector-curvature="0"
       d="m 2934.435,-3250.5074 0,-11.6701 c -31.3788,-0.3237 -26.4537,-6.375 -33.2113,-6.1587 -7.7875,0.1088 -5.0387,6.375 -33.2125,7.0238 l 0,11.3449 c 27.0288,-0.4324 25.31,5.8351 33.2125,5.9438 7.6726,-0.5412 9.8488,-7.5637 33.2113,-6.4837 z"
       style="fill:#000000;fill-opacity:1;fill-rule:evenodd;stroke:none"
       id="path5708" />
    <path
       inkscape:connector-curvature="0"
       d="m 2886.7037,-3298.0287 27.8975,0 -13.845,22.525 -14.0525,-22.525 z"
       style="fill:#000000;fill-opacity:1;fill-rule:evenodd;stroke:none"
       id="path5710" />
    <path
       inkscape:connector-curvature="0"
       d="m 2866.09,-3266.14 0.1,0 c 1.4887,0 2.7063,1.3125 2.7063,2.9163 l 0,16.2087 c 0,1.6038 -1.2176,2.9176 -2.7063,2.9176 l -0.1,0 c -1.4875,0 -2.705,-1.3138 -2.705,-2.9176 l 0,-16.2087 c 0,-1.6038 1.2175,-2.9163 2.705,-2.9163 z"
       style="fill:#000000;fill-opacity:1;fill-rule:evenodd;stroke:none"
       id="path5700" />
    <path
       inkscape:connector-curvature="0"
       d="m 2936.7,-3266.7437 0.1,0 c 1.4887,0 2.705,1.3125 2.705,2.9175 l 0,16.2075 c 0,1.605 -1.2163,2.9175 -2.705,2.9175 l -0.1,0 c -1.4875,0 -2.705,-1.3125 -2.705,-2.9175 l 0,-16.2075 c 0,-1.605 1.2175,-2.9175 2.705,-2.9175 z"
       style="fill:#000000;fill-opacity:1;fill-rule:evenodd;stroke:none"
       id="path5702" />
    <g
       style="font-size:15px;fill:#000000;stroke:#000000;stroke-width:1.5;stroke-miterlimit:4;stroke-opacity:1;stroke-dasharray:none"
       id="text5714">
      <path
         d="m 2881.6782,-3305.3682 0,-11.7257 -21.2466,0 0,-5.5121 22.349,-31.7363 4.9108,0 0,31.7363 6.6145,0 0,5.5121 -6.6145,0 0,11.7257 z m 0,-17.2378 0,-22.0818 -15.3337,22.0818 z"
         style="font-size:68.41674805px;font-variant:normal;font-weight:normal;writing-mode:lr-tb;fill:#000000;fill-opacity:1;fill-rule:nonzero;stroke:#000000;stroke-width:1.5;stroke-miterlimit:4;stroke-opacity:1;stroke-dasharray:none;font-family:SwitzerlandBlack;-inkscape-font-specification:SwitzerlandBlack"
         id="path5960"
         inkscape:connector-curvature="0" />
    </g>
    <g
       style="font-size:15px;fill:#000000;stroke:#000000;stroke-width:1.5;stroke-miterlimit:4;stroke-opacity:1;stroke-dasharray:none"
       id="text5718">
      <path
         d="m 2917.0043,-3326.6919 0,-23.2872 -8.6989,0 0,-3.1157 20.9279,0 0,3.1157 -8.735,0 0,23.2872 z"
         style="font-size:36.88487625px;font-variant:normal;font-weight:normal;writing-mode:lr-tb;fill:#000000;fill-opacity:1;fill-rule:nonzero;stroke:#000000;stroke-width:1.5;stroke-miterlimit:4;stroke-opacity:1;stroke-dasharray:none;font-family:SwitzerlandBlack;-inkscape-font-specification:SwitzerlandBlack"
         id="path5963"
         inkscape:connector-curvature="0" />
    </g>
  </g>
</svg>
