<?xml version="1.0"?>
<svg xmlns="http://www.w3.org/2000/svg" width="681" height="602.12" fill-rule="evenodd">
<path d="M46.019,601.088 7.048,533.588 301.529,23.532 379.471,23.532 673.952,533.588 634.981,601.088" fill="#d22d2d" stroke="none"/>
<circle cx="340.5" cy="46.032" r="45" fill="#d22d2d" stroke="none"/>
<circle cx="634.981" cy="556.088" r="45" fill="#d22d2d" stroke="none"/>
<circle cx="46.019" cy="556.088" r="45" fill="#d22d2d" stroke="none"/>
<path d="M72,541.088 340.5,76.032 609,541.088" fill="#fff" stroke="none"/>
<path d="M255.75,521.088 255.75,342.588 222.25,376.088 222.25,326.088 272.25,276.088 322.25,326.088 322.25,376.088 288.75,342.588 288.75,521.088" fill="#000" stroke="none"/>
<path d="M392.25,276.088 392.25,454.588 358.75,421.088 358.75,471.088 408.75,521.088 458.75,471.088 458.75,421.088 425.25,454.588 425.25,276.088" fill="#000" stroke="none"/>
</svg>