<?xml version="1.0"?>
<svg xmlns="http://www.w3.org/2000/svg" width="681" height="602.12" fill-rule="evenodd">
<path d="M46.019,601.088 7.048,533.588 301.529,23.532 379.471,23.532 673.952,533.588 634.981,601.088" fill="#d22d2d" stroke="none"/>
<circle cx="340.5" cy="46.032" r="45" fill="#d22d2d" stroke="none"/>
<circle cx="634.981" cy="556.088" r="45" fill="#d22d2d" stroke="none"/>
<circle cx="46.019" cy="556.088" r="45" fill="#d22d2d" stroke="none"/>
<path d="M72,541.088 340.5,76.032 609,541.088" fill="#fff" stroke="none"/>
<path d="M218,321.088 396.5,321.088 363,287.588 413,287.588 463,337.588 413,387.588 363,387.588 396.5,354.088 218,354.088" fill="#000" stroke="none"/>
<path d="M463,456.088 284.5,456.088 318,422.588 268,422.588 218,472.588 268,522.588 318,522.588 284.5,489.088 463,489.088" fill="#000" stroke="none"/>
</svg>