<?xml version="1.0" encoding="UTF-8" standalone="no"?>
<!-- Created with Inkscape (http://www.inkscape.org/) -->

<svg
   xmlns:dc="http://purl.org/dc/elements/1.1/"
   xmlns:cc="http://creativecommons.org/ns#"
   xmlns:rdf="http://www.w3.org/1999/02/22-rdf-syntax-ns#"
   xmlns:svg="http://www.w3.org/2000/svg"
   xmlns="http://www.w3.org/2000/svg"
   xmlns:sodipodi="http://sodipodi.sourceforge.net/DTD/sodipodi-0.dtd"
   xmlns:inkscape="http://www.inkscape.org/namespaces/inkscape"
   version="1.1"
   width="360.26767"
   height="318.20004"
   id="svg2816"
   xml:space="preserve"
   inkscape:version="0.48.4 r9939"
   sodipodi:docname="AJAX.svg"><metadata
     id="metadata81"><rdf:RDF><cc:Work
         rdf:about=""><dc:format>image/svg+xml</dc:format><dc:type
           rdf:resource="http://purl.org/dc/dcmitype/StillImage" /><dc:title></dc:title></cc:Work></rdf:RDF></metadata><sodipodi:namedview
     pagecolor="#ffffff"
     bordercolor="#666666"
     borderopacity="1"
     objecttolerance="10"
     gridtolerance="10"
     guidetolerance="10"
     inkscape:pageopacity="0"
     inkscape:pageshadow="2"
     inkscape:window-width="1920"
     inkscape:window-height="1057"
     id="namedview79"
     showgrid="false"
     fit-margin-top="0.1"
     fit-margin-left="0.1"
     fit-margin-right="0.1"
     fit-margin-bottom="0.1"
     inkscape:zoom="1"
     inkscape:cx="200.86988"
     inkscape:cy="287.81477"
     inkscape:window-x="-8"
     inkscape:window-y="-8"
     inkscape:window-maximized="1"
     inkscape:current-layer="svg2816"
     showguides="true"
     inkscape:guide-bbox="true" /><defs
     id="defs2820"><clipPath
       id="clipPath2832"><path
         d="m -0.24,595.138 317.48,0 0,-595.276 -317.48,0 0,595.276 z"
         id="path2834"
         inkscape:connector-curvature="0" /></clipPath><clipPath
       id="clipPath2840"><path
         d="m 0.03,595.32 317.46,0 0,-595.32 -317.46,0 0,595.32 z"
         id="path2842"
         inkscape:connector-curvature="0" /></clipPath><clipPath
       id="clipPath2858"><path
         d="m -0.24,595.138 317.48,0 0,-595.276 -317.48,0 0,595.276 z"
         id="path2860"
         inkscape:connector-curvature="0" /></clipPath><clipPath
       id="clipPath2864"><path
         d="m 0.03,595.32 317.46,0 0,-595.32 -317.46,0 0,595.32 z"
         id="path2866"
         inkscape:connector-curvature="0" /></clipPath><clipPath
       id="clipPath3306"><path
         d="m 199.238,472.977 0,-29.74 29.744,0 0,29.74"
         id="path3308"
         inkscape:connector-curvature="0" /></clipPath><clipPath
       id="clipPath3322"><path
         d="m -0.24,595.138 317.48,0 0,-595.276 -317.48,0 0,595.276 z"
         id="path3324"
         inkscape:connector-curvature="0" /></clipPath><clipPath
       id="clipPath3330"><path
         d="m 0.03,595.32 317.46,0 0,-595.32 -317.46,0 0,595.32 z"
         id="path3332"
         inkscape:connector-curvature="0" /></clipPath><clipPath
       id="clipPath3344"><path
         d="m 88.233,387.221 0,-28.335 32.08,0 0,28.335"
         id="path3346"
         inkscape:connector-curvature="0" /></clipPath><clipPath
       id="clipPath3462"><path
         d="m -0.24,595.138 317.48,0 0,-595.276 -317.48,0 0,595.276 z"
         id="path3464"
         inkscape:connector-curvature="0" /></clipPath><clipPath
       id="clipPath3470"><path
         d="m 0.03,595.32 317.46,0 0,-595.32 -317.46,0 0,595.32 z"
         id="path3472"
         inkscape:connector-curvature="0" /></clipPath><clipPath
       id="clipPath3490"><path
         d="m -0.24,595.138 317.48,0 0,-595.276 -317.48,0 0,595.276 z"
         id="path3492"
         inkscape:connector-curvature="0" /></clipPath><clipPath
       id="clipPath3496"><path
         d="m 0.03,595.32 317.46,0 0,-595.32 -317.46,0 0,595.32 z"
         id="path3498"
         inkscape:connector-curvature="0" /></clipPath><clipPath
       id="clipPath3520"><path
         d="m 254.788,326.215 0,-28.309 28.326,0 0,28.309"
         id="path3522"
         inkscape:connector-curvature="0" /></clipPath><clipPath
       id="clipPath3544"><path
         d="m 145.049,326.142 0,-28.333 28.342,0 0,28.333"
         id="path3546"
         inkscape:connector-curvature="0" /></clipPath><clipPath
       id="clipPath3682"><path
         d="m -0.24,595.138 317.48,0 0,-595.276 -317.48,0 0,595.276 z"
         id="path3684"
         inkscape:connector-curvature="0" /></clipPath><clipPath
       id="clipPath3690"><path
         d="m 0.03,595.32 317.46,0 0,-595.32 -317.46,0 0,595.32 z"
         id="path3692"
         inkscape:connector-curvature="0" /></clipPath><clipPath
       id="clipPath3980"><path
         d="m -0.24,595.138 317.48,0 0,-595.276 -317.48,0 0,595.276 z"
         id="path3982"
         inkscape:connector-curvature="0" /></clipPath><clipPath
       id="clipPath3988"><path
         d="m 0.03,595.32 317.46,0 0,-595.32 -317.46,0 0,595.32 z"
         id="path3990"
         inkscape:connector-curvature="0" /></clipPath><clipPath
       id="clipPath4010"><path
         d="m -0.24,595.138 317.48,0 0,-595.276 -317.48,0 0,595.276 z"
         id="path4012"
         inkscape:connector-curvature="0" /></clipPath><clipPath
       id="clipPath4016"><path
         d="m 0.03,595.32 317.46,0 0,-595.32 -317.46,0 0,595.32 z"
         id="path4018"
         inkscape:connector-curvature="0" /></clipPath><clipPath
       id="clipPath4062"><path
         d="m 200.163,177.773 0,-28.284 28.283,0 0,28.284"
         id="path4064"
         inkscape:connector-curvature="0" /></clipPath><clipPath
       id="clipPath4090"><path
         d="m 34.886,177.515 0,-51.632 30.367,0 0,51.632"
         id="path4092"
         inkscape:connector-curvature="0" /></clipPath><clipPath
       id="clipPath4106"><path
         d="m 34.886,177.515 0,-51.632 30.367,0 0,51.632"
         id="path4108"
         inkscape:connector-curvature="0" /></clipPath><clipPath
       id="clipPath4272"><path
         d="m 34.886,177.515 0,-51.632 30.367,0 0,51.632"
         id="path4274"
         inkscape:connector-curvature="0" /></clipPath><clipPath
       id="clipPath4304"><path
         d="m 254.653,176.442 0,-48.167 28.317,0 0,48.167"
         id="path4306"
         inkscape:connector-curvature="0" /></clipPath><clipPath
       id="clipPath4310"><path
         d="m 253.565,177.983 31.181,0 0,-49.183 -31.181,0 0,49.183 z"
         id="path4312"
         inkscape:connector-curvature="0" /></clipPath><clipPath
       id="clipPath4316"><path
         d="m -0.24,595.138 317.48,0 0,-595.276 -317.48,0 0,595.276 z"
         id="path4318"
         inkscape:connector-curvature="0" /></clipPath><clipPath
       id="clipPath4322"><path
         d="m 0.03,595.32 317.46,0 0,-595.32 -317.46,0 0,595.32 z"
         id="path4324"
         inkscape:connector-curvature="0" /></clipPath><clipPath
       id="clipPath4456"><path
         d="m -0.24,595.138 317.48,0 0,-595.276 -317.48,0 0,595.276 z"
         id="path4458"
         inkscape:connector-curvature="0" /></clipPath><clipPath
       id="clipPath4464"><path
         d="m 0.03,595.32 317.46,0 0,-595.32 -317.46,0 0,595.32 z"
         id="path4466"
         inkscape:connector-curvature="0" /></clipPath></defs><path
     style="fill:#d02c2e;fill-opacity:1;fill-rule:evenodd;stroke:none"
     d="m 336.29007,318.10003 c 8.5855,0 16.45648,-4.5216 20.6875,-11.90625 4.25346,-7.37342 4.25346,-16.47912 0,-23.875 L 200.82136,11.975043 C 196.5454,4.6016433 188.7233,0.10005333 180.22759,0.10005333 c -0.0312,0 -0.0625,-1.2e-4 -0.0937,0 -0.0312,-1.2e-4 -0.0625,0 -0.0937,0 -8.49573,0 -16.31785,4.50157997 -20.59376,11.87498967 L 3.2901033,282.31878 c -4.25347106,7.39588 -4.25347106,16.50158 0,23.875 4.23102,7.38465 12.1019897,11.90625 20.6874997,11.90625 z"
     id="path3101"
     inkscape:connector-curvature="0"
     sodipodi:nodetypes="scccscscccss" /><path
     inkscape:connector-curvature="0"
     style="fill:#ffffff;fill-opacity:1;fill-rule:evenodd;stroke:none"
     id="path3121"
     d="m 322.51266,286.28314 -284.757837,0 L 180.13382,39.806513 z"
     sodipodi:nodetypes="cccc" /><path
     clip-rule="evenodd"
     d="m 172.6633,171.91233 -16.44957,-9.57795 -18.90622,9.26568 6.9708,14.22665 28.38505,-13.91438 m -37.75627,0.8652 -11.72725,5.73213 -7.24216,21.15061 25.9377,-12.69835 -6.96849,-14.18477 z m -23.74881,15.78728 c 2.56702,-7.85652 5.96927,-12.92785 13.20104,-16.46654 l 26.07069,-12.7552 c 3.39116,-1.62719 7.38603,-1.43564 10.55253,0.69437 l 16.38254,9.51581 34.97259,-10.76148 c 2.22473,-0.1878 4.17663,0.99437 5.10416,2.92419 l 5.25984,10.68615 c 1.28095,2.56131 0.15145,5.6921 -2.4431,6.96639 -0.0361,-0.0501 -0.0866,0.0117 -0.0416,0.0207 l -22.17546,12.38192 -76.48338,37.36954 -14.82899,5.81275 -8.691787,-17.78929 c -0.44667,-1.06612 -0.16926,-2.44739 0.69999,-3.14036 l 1.1325,-0.77852 c 3.313487,-2.18029 4.854267,-5.20189 5.929247,-9.0641 l 5.35905,-15.61644 z"
     id="path4093"
     style="fill:#000000;fill-rule:evenodd;stroke:none"
     inkscape:connector-curvature="0"
     sodipodi:nodetypes="cccccccccccccccccccccccccccccc" /><path
     inkscape:connector-curvature="0"
     id="path4095"
     d="m 132.73517,208.97789 c -7.22666,1e-5 -13.08502,5.85836 -13.08501,13.08501 -1e-5,7.22664 5.85834,13.08502 13.08501,13.085 7.22663,-1e-5 13.08498,-5.85835 13.08498,-13.08501 10e-6,-7.22665 -5.85835,-13.08499 -13.08498,-13.085 z"
     style="fill:#ffffff;fill-opacity:1;stroke:none"
     sodipodi:nodetypes="sssss" /><path
     sodipodi:nodetypes="sssss"
     style="fill:#000000;fill-opacity:1;stroke:none"
     d="m 132.73516,210.24789 c -6.52526,0 -11.815,5.28976 -11.81502,11.81502 2e-5,6.52523 5.28976,11.815 11.81503,11.81499 6.52522,1e-5 11.81497,-5.28975 11.81498,-11.815 1e-5,-6.52525 -5.28977,-11.81501 -11.81499,-11.81501 z"
     id="path4097"
     inkscape:connector-curvature="0" /><path
     sodipodi:nodetypes="sssss"
     style="fill:#ffffff;fill-opacity:1;stroke:none"
     d="m 132.73516,215.56289 c -3.58987,1e-5 -6.50002,2.91014 -6.50001,6.50001 10e-6,3.58985 2.91014,6.50001 6.50001,6.50001 3.58984,-10e-6 6.49999,-2.91015 6.49999,-6.50001 1e-5,-3.58986 -2.91015,-6.5 -6.49999,-6.50001 z"
     id="path4099"
     inkscape:connector-curvature="0" /><path
     sodipodi:nodetypes="sssss"
     style="fill:#ffffff;fill-opacity:1;stroke:none"
     d="m 208.51362,171.95276 c -7.22665,10e-6 -13.08501,5.85836 -13.08501,13.08501 -1e-5,7.22665 5.85835,13.08501 13.08502,13.08501 7.22664,-1e-5 13.08498,-5.85836 13.08498,-13.085 1e-5,-7.22667 -5.85835,-13.08502 -13.08499,-13.08502 z"
     id="path4101"
     inkscape:connector-curvature="0" /><path
     inkscape:connector-curvature="0"
     id="path4103"
     d="m 208.51362,173.22276 c -6.52527,1e-5 -11.815,5.28976 -11.81501,11.81502 0,6.52523 5.28975,11.81499 11.81502,11.81498 6.52524,0 11.81499,-5.28975 11.81498,-11.81498 1e-5,-6.52526 -5.28975,-11.81501 -11.81499,-11.81502 z"
     style="fill:#000000;fill-opacity:1;stroke:none"
     sodipodi:nodetypes="sssss" /><path
     inkscape:connector-curvature="0"
     id="path4105"
     d="m 208.51363,178.53777 c -3.58987,0 -6.50001,2.91015 -6.5,6.5 -1e-5,3.58985 2.91014,6.49999 6.49999,6.5 3.58984,0 6.5,-2.91015 6.49999,-6.50001 1e-5,-3.58984 -2.91014,-6.50001 -6.49998,-6.49999 z"
     style="fill:#ffffff;fill-opacity:1;stroke:none"
     sodipodi:nodetypes="sssss" /><path
     sodipodi:nodetypes="cccc"
     id="path4107"
     d="m 56.133823,276.28313 247.999987,-1e-5 -54.589,-94.49999 z"
     style="fill:#000000;fill-rule:evenodd;stroke:none"
     inkscape:connector-curvature="0" /></svg>