<?xml version="1.0" encoding="UTF-8" standalone="no"?>
<!-- Created with Inkscape (http://www.inkscape.org/) -->

<svg
   xmlns:dc="http://purl.org/dc/elements/1.1/"
   xmlns:cc="http://creativecommons.org/ns#"
   xmlns:rdf="http://www.w3.org/1999/02/22-rdf-syntax-ns#"
   xmlns:svg="http://www.w3.org/2000/svg"
   xmlns="http://www.w3.org/2000/svg"
   xmlns:sodipodi="http://sodipodi.sourceforge.net/DTD/sodipodi-0.dtd"
   xmlns:inkscape="http://www.inkscape.org/namespaces/inkscape"
   width="680.896mm"
   height="602mm"
   viewBox="0 0 680.896 602"
   version="1.1"
   id="svg16"
   inkscape:version="0.92.4 (5da689c313, 2019-01-14)"
   sodipodi:docname="888.svg">
  <defs
     id="defs10" />
  <sodipodi:namedview
     id="base"
     pagecolor="#ffffff"
     bordercolor="#666666"
     borderopacity="1.0"
     inkscape:pageopacity="0.0"
     inkscape:pageshadow="2"
     inkscape:zoom="0.24748737"
     inkscape:cx="1903.6253"
     inkscape:cy="931.41969"
     inkscape:document-units="mm"
     inkscape:current-layer="layer1"
     showgrid="false"
     inkscape:window-width="1920"
     inkscape:window-height="1057"
     inkscape:window-x="-8"
     inkscape:window-y="-8"
     inkscape:window-maximized="1"
     inkscape:snap-global="false"
     showguides="false" />
  <metadata
     id="metadata13">
    <rdf:RDF>
      <cc:Work
         rdf:about="">
        <dc:format>image/svg+xml</dc:format>
        <dc:type
           rdf:resource="http://purl.org/dc/dcmitype/StillImage" />
        <dc:title></dc:title>
      </cc:Work>
    </rdf:RDF>
  </metadata>
  <g
     inkscape:label="Layer 1"
     inkscape:groupmode="layer"
     id="layer1"
     transform="translate(0,305)">
    <path
       style="opacity:1;fill:none;fill-opacity:1;fill-rule:nonzero;stroke:#d22d2d;stroke-width:90.00010681;stroke-linecap:square;stroke-linejoin:round;stroke-miterlimit:4;stroke-dasharray:none;stroke-opacity:1"
       d="m 45.99676,250.99994 294.4512,-510.00442 294.4511,510.00443 z"
       id="rect1389"
       inkscape:connector-curvature="0"
       sodipodi:nodetypes="cccc" />
    <path
       style="opacity:1;fill:#ffffff;fill-opacity:1;fill-rule:nonzero;stroke:none;stroke-width:90;stroke-linecap:square;stroke-linejoin:round;stroke-miterlimit:4;stroke-dasharray:none;stroke-opacity:1"
       d="m 71.97796,236 268.4697,-465.0041 268.4705,465.00361 z"
       id="rect1403"
       inkscape:connector-curvature="0"
       sodipodi:nodetypes="cccc" />
    <path
       style="fill:#000000;fill-opacity:1;fill-rule:nonzero;stroke:none;stroke-width:0.82538849;stroke-linecap:butt;stroke-linejoin:miter;stroke-miterlimit:2.61299992;stroke-dasharray:none;stroke-opacity:1"
       d="m 152.948,120.00001 v 34.99993 h 65.0002 c 31.6605,43.27115 77.1616,60.04785 122.5,59.99996 45.3385,0.0479 90.8395,-16.72881 122.5,-59.99996 h 65.0002 v -34.99993 h -65.0002 c -9.1575,0.0528 -22.7989,9.38326 -29.44,17.79995 -9.2718,12.0564 -14.3795,21.31497 -33.8729,37.59822 -19.4972,16.27925 -25.8475,18.38177 -40.087,4.10157 -6.2692,9.01512 -12.3671,12.12927 -19.1001,12.5 -6.7329,-0.37073 -12.8308,-3.48488 -19.1001,-12.5 -14.2395,14.2802 -20.5897,12.17768 -40.087,-4.10157 -19.4933,-16.28325 -24.601,-25.54182 -33.8728,-37.59822 -6.6412,-8.41669 -20.2825,-17.74719 -29.4401,-17.79995 z"
       id="path309"
       inkscape:connector-curvature="0" />
    <path
       style="fill:#000000;fill-opacity:1;fill-rule:nonzero;stroke:none;stroke-width:0.82327229;stroke-linecap:butt;stroke-linejoin:miter;stroke-miterlimit:2.61299992;stroke-dasharray:none;stroke-opacity:1"
       d="m 246.548,137.0001 0.6,7.09933 c 14.2808,12.39554 23.7474,15.04347 35.6877,3.73102 8.3107,12.87352 26.8053,13.83755 36.1715,-1.44486 4.7189,8.26135 13.9902,11.63431 21.441,11.61428 7.4508,0.02 16.7222,-3.35293 21.4411,-11.61428 9.3661,15.28241 27.8608,14.31838 36.1714,1.44486 11.9403,11.31245 21.407,8.66452 35.6878,-3.73102 l 0.6,-7.09933 c -15.2194,18.4122 -28.5619,18.89387 -35.9379,1.56478 -4.9148,17.32899 -32.3042,17.80738 -36.6386,-0.96325 -2.8757,9.9908 -11.7483,13.42988 -21.3238,13.79813 -9.5754,-0.36825 -18.448,-3.80733 -21.3237,-13.79813 -4.3344,18.77063 -31.7238,18.29224 -36.6386,0.96325 -7.376,17.32909 -20.7185,16.84742 -35.9379,-1.56478 z"
       id="path1214"
       inkscape:connector-curvature="0" />
  </g>
</svg>
