<?xml version="1.0" encoding="UTF-8" standalone="no"?>
<!-- Created with Inkscape (http://www.inkscape.org/) -->

<svg
   xmlns:dc="http://purl.org/dc/elements/1.1/"
   xmlns:cc="http://creativecommons.org/ns#"
   xmlns:rdf="http://www.w3.org/1999/02/22-rdf-syntax-ns#"
   xmlns:svg="http://www.w3.org/2000/svg"
   xmlns="http://www.w3.org/2000/svg"
   xmlns:sodipodi="http://sodipodi.sourceforge.net/DTD/sodipodi-0.dtd"
   xmlns:inkscape="http://www.inkscape.org/namespaces/inkscape"
   width="680.896mm"
   height="602mm"
   viewBox="0 0 680.896 602"
   version="1.1"
   id="svg16"
   inkscape:version="0.92.4 (5da689c313, 2019-01-14)"
   sodipodi:docname="1111.svg">
  <defs
     id="defs10" />
  <sodipodi:namedview
     id="base"
     pagecolor="#ffffff"
     bordercolor="#666666"
     borderopacity="1.0"
     inkscape:pageopacity="0.0"
     inkscape:pageshadow="2"
     inkscape:zoom="0.25"
     inkscape:cx="1656.7678"
     inkscape:cy="724.51348"
     inkscape:document-units="mm"
     inkscape:current-layer="layer1"
     showgrid="false"
     inkscape:window-width="1920"
     inkscape:window-height="1057"
     inkscape:window-x="-8"
     inkscape:window-y="-8"
     inkscape:window-maximized="1" />
  <metadata
     id="metadata13">
    <rdf:RDF>
      <cc:Work
         rdf:about="">
        <dc:format>image/svg+xml</dc:format>
        <dc:type
           rdf:resource="http://purl.org/dc/dcmitype/StillImage" />
        <dc:title></dc:title>
      </cc:Work>
    </rdf:RDF>
  </metadata>
  <g
     inkscape:label="Layer 1"
     inkscape:groupmode="layer"
     id="layer1"
     transform="translate(0,305)">
    <path
       style="opacity:1;fill:none;fill-opacity:1;fill-rule:nonzero;stroke:#d22d2d;stroke-width:90.00010681;stroke-linecap:square;stroke-linejoin:round;stroke-miterlimit:4;stroke-dasharray:none;stroke-opacity:1"
       d="m 45.99676,250.99994 294.45115,-510.00442 294.4512,510.00443 z"
       id="rect1389"
       inkscape:connector-curvature="0"
       sodipodi:nodetypes="cccc" />
    <path
       style="opacity:1;fill:#ffffff;fill-opacity:1;fill-rule:nonzero;stroke:none;stroke-width:90;stroke-linecap:square;stroke-linejoin:round;stroke-miterlimit:4;stroke-dasharray:none;stroke-opacity:1"
       d="m 71.97799,236 268.46962,-465.0041 268.4706,465.00361 z"
       id="rect1403"
       inkscape:connector-curvature="0"
       sodipodi:nodetypes="cccc" />
    <path
       d="m 470.8424,100.94754 -0.9532,1.90527 v 0.95322 l -1.9053,2.85852 -2.8585,1.90566 h -1.9058 l -1.9053,0.95283 h -14.2919 l -2.8585,-0.95283 h -1.9052 l -5.7167,-1.90566 -0.9532,-0.95321 -1.9057,-0.95323 -3.811,-3.81103 -0.9532,-1.905677 -0.9533,-2.858533 -0.9532,-4.76392 V 79.03284 l 0.9532,-1.90577 0.9533,-2.85813 0.9532,-1.90566 1.9052,-1.90565 h 0.9533 l 2.8585,-1.90538 2.8581,-0.95322 1.9058,-0.95322 0.9532,-0.95323 2.8582,-0.95322 h 1.9056 l 1.9057,-1.90331 h 8.5748 l 1.9056,1.90535 h 2.8586 l 1.9054,2.85854 0.9532,1.90565 6.6694,6.66957 v 1.90525 l 1.9058,5.71668 v 3.81141 l 0.9532,1.90565 v 7.62194 l -0.9532,1.905763 -1.9058,0.953254 z"
       style="fill:#000000;fill-opacity:1;fill-rule:nonzero;stroke:none;stroke-width:3.96994638"
       id="path1043"
       inkscape:connector-curvature="0" />
    <path
       d="m 497.5205,200.98995 h -18.1029 l -2.8585,0.95323 -0.9533,0.95322 h -3.811 l -2.8585,0.95323 h -2.8582 l -2.8585,-0.95323 h -2.8581 l -1.9057,-1.90565 -2.8581,-0.95322 -5.7171,-2.85814 -2.8582,-1.90565 -1.9056,-0.95323 -5.7167,-5.71667 -2.8581,-1.90565 -0.9532,-2.85815 -1.9058,-1.90566 -1.9057,-3.81101 -2.8581,-3.81141 v -1.90526 l -1.9057,-3.81142 v -10.48047 l 0.9533,-5.71668 0.9532,-2.85853 v -2.85814 l 2.8581,-3.81142 0.9533,-4.76379 2.8585,-2.85853 0.9528,-1.90527 3.8113,-4.76429 3.8111,-3.81091 3.8114,-2.85855 2.8581,-0.95282 5.7167,-2.85854 h 2.8585 l 5.7167,-1.90565 h 7.6223 l 4.7638,0.95323 3.8114,0.95321 h 2.8582 l 1.9056,0.95323 h 1.9053 l 1.9056,0.95322 2.8586,0.95323 5.7167,3.81102 2.8581,3.81091 2.8585,2.85854 1.9058,4.7639 5.7167,9.52799 1.9052,3.81102 0.9533,2.85853 v 2.85815 l 0.9532,2.85853 0.9532,1.90526 v 21.91432 l -0.9532,1.90565 -0.9532,2.85815 -0.9533,1.90565 v 0.95322 l -5.7166,3.81102 -3.8111,3.81131 z"
       style="fill:#000000;fill-opacity:1;fill-rule:nonzero;stroke:none;stroke-width:3.96994638"
       id="path1045"
       inkscape:connector-curvature="0" />
    <path
       d="m 412.7223,145.72846 1.9058,1.90537 0.9532,2.85854 v 5.71668 l -0.9524,3.81129 -1.9058,1.90538 -1.9056,0.95322 h -0.9528 l -2.8586,0.95322 h -1.9056 l -0.9529,0.95324 h -9.5281 l -2.8585,-1.90578 -0.9528,-0.95322 -3.8113,-5.71667 v -2.85815 l -0.9533,-0.95323 v -4.76418 l 0.9533,-1.90537 -0.9533,-1.90565 0.9533,-3.81103 0.9532,-0.95322 2.8585,-1.90576 1.9053,-0.95322 1.9056,-1.90538 h 2.8586 l 0.9528,0.95284 3.8114,0.95322 1.9057,0.95322 h 2.8581 l 0.9532,2.85853 1.9058,0.95283 z"
       style="fill:#000000;fill-opacity:1;fill-rule:nonzero;stroke:none;stroke-width:3.96994638"
       id="path1047"
       inkscape:connector-curvature="0"
       sodipodi:nodetypes="ccccccccccccccccccccccccccccccccc" />
    <path
       d="m 387.95,94.27796 v 8.57485 l -0.9532,2.85853 -2.8582,2.85853 -3.8114,2.85813 -1.9053,1.90578 -3.8114,1.90562 -2.8581,0.95286 -1.9057,0.95323 -2.8585,0.95321 H 364.13 l -0.9532,-1.90564 h -1.9057 l -0.9533,-2.85814 -1.9052,-3.81142 -1.9057,-2.85815 -1.9057,-1.90564 -0.9533,-2.85815 0.9533,-2.858567 V 97.13723 l 1.9057,-2.85814 1.9057,-3.81131 v -0.95322 -2.85814 l 0.9532,-2.85854 1.9054,-3.81103 2.8585,-0.95321 h 13.339 l 5.7167,3.8113 2.8581,2.85814 v 3.81129 l 0.9533,1.90538 0.9532,0.95323 z"
       style="fill:#000000;fill-opacity:1;fill-rule:nonzero;stroke:none;stroke-width:3.96994638"
       id="path1049"
       inkscape:connector-curvature="0" />
    <path
       d="m 378.4223,1.857636 h 7.6219 l 1.9058,1.90554 4.7638,1.90553 4.7642,2.85834 3.811,1.905644 v 3.81107 l 1.9058,3.81119 0.9532,4.76392 0.9528,1.9057 v 8.57492 l 0.9532,0.95323 0.9533,1.90576 1.9056,2.85813 0.9532,3.81132 0.9529,0.95322 v 1.90525 l -0.9529,2.85854 -2.8585,2.85815 -3.811,1.90576 -3.8113,2.85853 -1.9054,0.95322 -2.8585,2.85815 -2.8586,4.7639 -3.8109,3.8113 -2.8585,2.85815 -4.7639,1.90577 -4.7638,0.95322 h -3.8111 l -5.717,-1.90565 -4.7638,-0.95322 -2.8582,-1.90527 -5.7166,-1.90564 -2.8586,-1.90577 -0.9532,-1.90565 -1.9056,-1.90526 -0.9529,-4.76392 -0.9532,-3.8113 v -2.85814 l -0.9532,-0.95323 v -6.66955 l -1.9058,-1.90564 -0.9532,-1.90567 -0.953,-2.85814 v -1.90576 l -0.9531,-0.95322 v -5.71669 l 0.9531,-2.85824 2.8583,-5.71676 1.9058,-2.85839 2.8581,-3.81118 1.9057,-2.858342 4.7638,-4.763912 3.8114,-5.7167101 2.8581,-1.9056499 h 0.9532 l 1.9057,-0.95319 h 1.9054 0.9532 l 5.7167,3.8111099 h 2.8585 z"
       style="fill:#000000;fill-opacity:1;fill-rule:nonzero;stroke:none;stroke-width:3.96994638"
       id="path1051"
       inkscape:connector-curvature="0"
       sodipodi:nodetypes="cccccccccccccccccccccccccccccccccccccccccccccccccccccccccccccc" />
    <path
       d="m 306.9632,-56.2624 2.8585,-0.95239 h 4.7639 l 0.9533,0.95319 1.9056,5.7167 0.9532,0.95316 v 5.71674 l -1.9056,2.85834 -0.9532,1.90555 -2.8582,0.95317 -0.9532,0.95316 h -3.811 l -2.8586,-0.95316 -0.9532,-1.90565 -2.8581,-2.85838 -0.9533,-2.85836 -1.9056,-2.85834 v -5.71672 l 2.8585,-1.90553 z"
       style="fill:#000000;fill-opacity:1;fill-rule:nonzero;stroke:none;stroke-width:3.96994638"
       id="path1053"
       inkscape:connector-curvature="0"
       sodipodi:nodetypes="cccccccccccccccccccc" />
    <path
       d="m 333.6414,-32.4427 3.8109,0.95315 1.9057,1.90564 0.9529,3.81111 -0.9529,3.81118 -1.9057,3.8112 -1.9057,2.85833 -2.8581,2.85837 -2.8586,1.905548 -3.811,3.811178 -2.8585,0.95313 -0.9532,-0.95313 -1.9053,-0.9532 -1.9056,-1.90552 -1.9058,-0.953148 -0.9532,-2.858378 v -13.33897 l 0.9532,-3.81118 0.9532,-2.85834 2.8585,-1.90556 4.7639,-0.95316 3.811,0.95316 2.8585,1.90556 z"
       style="fill:#000000;fill-opacity:1;fill-rule:nonzero;stroke:none;stroke-width:3.96994638"
       id="path1055"
       inkscape:connector-curvature="0" />
    <path
       d="m 322.2076,2.810336 h 2.8585 l 1.9057,5.71671 v 6.669564 l -1.9057,2.85834 -2.8585,1.90553 -1.9054,0.95318 -2.8585,0.95315 -0.9532,-0.95315 v -1.90553 l -0.9532,-0.95318 V 15.19661 L 313.632,12.33823 V 8.527046 l 3.811,-5.71671 1.9057,-0.95315 z"
       style="fill:#000000;fill-opacity:1;fill-rule:nonzero;stroke:none;stroke-width:3.96994638"
       id="path1057"
       inkscape:connector-curvature="0" />
    <path
       d="m 279.978,-82.10903 1.2603,12.50765 v 5.71673 l 0.9533,3.81107 3.811,1.90565 4.7638,2.85837 0.9532,3.81107 3.811,7.62237 1.9057,1.90552 0.9532,2.85835 1.9058,2.85838 0.9532,3.81117 0.9528,3.81153 0.9532,4.76402 v 3.81108 l 3.8113,11.433426 v 2.85833 l 0.9529,1.90565 v 3.8110799 4.7640201 4.763912 l 1.9057,2.858342 0.9533,5.71671 1.9056,4.76392 -0.9532,2.8582 v 2.85851 l -0.9532,2.85854 v 4.76391 l 1.9057,2.85813 0.9533,4.76421 1.9052,4.76378 0.9532,4.7639 1.9057,3.8113 0.9532,3.81103 1.9054,3.81137 3.8113,9.52798 0.9532,5.71667 1.9054,5.71669 1.9056,4.76391 2.8586,5.71667 2.8581,3.811327 7.6223,9.527713 1.9058,2.85852 v 3.81104 l 0.9528,4.76418 v 3.81103 l 0.9533,2.85853 -0.9533,4.76379 0.9533,2.85815 v 2.85854 l 0.9532,4.76378 3.8113,3.81142 2.8581,3.81102 3.8115,2.85853 2.8581,3.81092 3.8114,2.85853 2.8582,2.85814 2.8588,2.85889 2.8582,3.81102 2.8585,4.76378 3.811,3.81142 2.8586,3.81102 2.8581,4.7638 2.8585,2.85853 2.8585,3.81136 3.8114,5.71669 1.9053,3.8113 0.9532,2.85814 1.9057,3.81142 1.9057,2.85814 L 404.978,221 h -300 z"
       style="fill:#000000;fill-opacity:1;fill-rule:nonzero;stroke:none;stroke-width:3.96994638"
       id="path1059"
       inkscape:connector-curvature="0"
       sodipodi:nodetypes="ccccccccccccccccccccccccccccccccccccccccccccccccccccccccccccccccccccccccc" />
  </g>
</svg>
