<?xml version="1.0" encoding="UTF-8" standalone="no"?>
<!-- Created with Inkscape (http://www.inkscape.org/) -->

<svg
   xmlns:dc="http://purl.org/dc/elements/1.1/"
   xmlns:cc="http://creativecommons.org/ns#"
   xmlns:rdf="http://www.w3.org/1999/02/22-rdf-syntax-ns#"
   xmlns:svg="http://www.w3.org/2000/svg"
   xmlns="http://www.w3.org/2000/svg"
   xmlns:sodipodi="http://sodipodi.sourceforge.net/DTD/sodipodi-0.dtd"
   xmlns:inkscape="http://www.inkscape.org/namespaces/inkscape"
   version="1.1"
   width="360.26767"
   height="318.20004"
   id="svg2816"
   xml:space="preserve"
   inkscape:version="0.48.4 r9939"
   sodipodi:docname="AJAX.svg"><metadata
     id="metadata81"><rdf:RDF><cc:Work
         rdf:about=""><dc:format>image/svg+xml</dc:format><dc:type
           rdf:resource="http://purl.org/dc/dcmitype/StillImage" /><dc:title></dc:title></cc:Work></rdf:RDF></metadata><sodipodi:namedview
     pagecolor="#ffffff"
     bordercolor="#666666"
     borderopacity="1"
     objecttolerance="10"
     gridtolerance="10"
     guidetolerance="10"
     inkscape:pageopacity="0"
     inkscape:pageshadow="2"
     inkscape:window-width="1920"
     inkscape:window-height="1057"
     id="namedview79"
     showgrid="false"
     fit-margin-top="0.1"
     fit-margin-left="0.1"
     fit-margin-right="0.1"
     fit-margin-bottom="0.1"
     inkscape:zoom="2"
     inkscape:cx="198.35003"
     inkscape:cy="124.30742"
     inkscape:window-x="-8"
     inkscape:window-y="-8"
     inkscape:window-maximized="1"
     inkscape:current-layer="svg2816"
     showguides="true"
     inkscape:guide-bbox="true" /><defs
     id="defs2820"><clipPath
       id="clipPath2832"><path
         d="m -0.24,595.138 317.48,0 0,-595.276 -317.48,0 0,595.276 z"
         id="path2834"
         inkscape:connector-curvature="0" /></clipPath><clipPath
       id="clipPath2840"><path
         d="m 0.03,595.32 317.46,0 0,-595.32 -317.46,0 0,595.32 z"
         id="path2842"
         inkscape:connector-curvature="0" /></clipPath><clipPath
       id="clipPath2858"><path
         d="m -0.24,595.138 317.48,0 0,-595.276 -317.48,0 0,595.276 z"
         id="path2860"
         inkscape:connector-curvature="0" /></clipPath><clipPath
       id="clipPath2864"><path
         d="m 0.03,595.32 317.46,0 0,-595.32 -317.46,0 0,595.32 z"
         id="path2866"
         inkscape:connector-curvature="0" /></clipPath><clipPath
       id="clipPath3306"><path
         d="m 199.238,472.977 0,-29.74 29.744,0 0,29.74"
         id="path3308"
         inkscape:connector-curvature="0" /></clipPath><clipPath
       id="clipPath3322"><path
         d="m -0.24,595.138 317.48,0 0,-595.276 -317.48,0 0,595.276 z"
         id="path3324"
         inkscape:connector-curvature="0" /></clipPath><clipPath
       id="clipPath3330"><path
         d="m 0.03,595.32 317.46,0 0,-595.32 -317.46,0 0,595.32 z"
         id="path3332"
         inkscape:connector-curvature="0" /></clipPath><clipPath
       id="clipPath3344"><path
         d="m 88.233,387.221 0,-28.335 32.08,0 0,28.335"
         id="path3346"
         inkscape:connector-curvature="0" /></clipPath><clipPath
       id="clipPath3462"><path
         d="m -0.24,595.138 317.48,0 0,-595.276 -317.48,0 0,595.276 z"
         id="path3464"
         inkscape:connector-curvature="0" /></clipPath><clipPath
       id="clipPath3470"><path
         d="m 0.03,595.32 317.46,0 0,-595.32 -317.46,0 0,595.32 z"
         id="path3472"
         inkscape:connector-curvature="0" /></clipPath><clipPath
       id="clipPath3490"><path
         d="m -0.24,595.138 317.48,0 0,-595.276 -317.48,0 0,595.276 z"
         id="path3492"
         inkscape:connector-curvature="0" /></clipPath><clipPath
       id="clipPath3496"><path
         d="m 0.03,595.32 317.46,0 0,-595.32 -317.46,0 0,595.32 z"
         id="path3498"
         inkscape:connector-curvature="0" /></clipPath><clipPath
       id="clipPath3520"><path
         d="m 254.788,326.215 0,-28.309 28.326,0 0,28.309"
         id="path3522"
         inkscape:connector-curvature="0" /></clipPath><clipPath
       id="clipPath3544"><path
         d="m 145.049,326.142 0,-28.333 28.342,0 0,28.333"
         id="path3546"
         inkscape:connector-curvature="0" /></clipPath><clipPath
       id="clipPath3682"><path
         d="m -0.24,595.138 317.48,0 0,-595.276 -317.48,0 0,595.276 z"
         id="path3684"
         inkscape:connector-curvature="0" /></clipPath><clipPath
       id="clipPath3690"><path
         d="m 0.03,595.32 317.46,0 0,-595.32 -317.46,0 0,595.32 z"
         id="path3692"
         inkscape:connector-curvature="0" /></clipPath><clipPath
       id="clipPath3980"><path
         d="m -0.24,595.138 317.48,0 0,-595.276 -317.48,0 0,595.276 z"
         id="path3982"
         inkscape:connector-curvature="0" /></clipPath><clipPath
       id="clipPath3988"><path
         d="m 0.03,595.32 317.46,0 0,-595.32 -317.46,0 0,595.32 z"
         id="path3990"
         inkscape:connector-curvature="0" /></clipPath><clipPath
       id="clipPath4010"><path
         d="m -0.24,595.138 317.48,0 0,-595.276 -317.48,0 0,595.276 z"
         id="path4012"
         inkscape:connector-curvature="0" /></clipPath><clipPath
       id="clipPath4016"><path
         d="m 0.03,595.32 317.46,0 0,-595.32 -317.46,0 0,595.32 z"
         id="path4018"
         inkscape:connector-curvature="0" /></clipPath><clipPath
       id="clipPath4062"><path
         d="m 200.163,177.773 0,-28.284 28.283,0 0,28.284"
         id="path4064"
         inkscape:connector-curvature="0" /></clipPath><clipPath
       id="clipPath4090"><path
         d="m 34.886,177.515 0,-51.632 30.367,0 0,51.632"
         id="path4092"
         inkscape:connector-curvature="0" /></clipPath><clipPath
       id="clipPath4106"><path
         d="m 34.886,177.515 0,-51.632 30.367,0 0,51.632"
         id="path4108"
         inkscape:connector-curvature="0" /></clipPath><clipPath
       id="clipPath4272"><path
         d="m 34.886,177.515 0,-51.632 30.367,0 0,51.632"
         id="path4274"
         inkscape:connector-curvature="0" /></clipPath><clipPath
       id="clipPath4304"><path
         d="m 254.653,176.442 0,-48.167 28.317,0 0,48.167"
         id="path4306"
         inkscape:connector-curvature="0" /></clipPath><clipPath
       id="clipPath4310"><path
         d="m 253.565,177.983 31.181,0 0,-49.183 -31.181,0 0,49.183 z"
         id="path4312"
         inkscape:connector-curvature="0" /></clipPath><clipPath
       id="clipPath4316"><path
         d="m -0.24,595.138 317.48,0 0,-595.276 -317.48,0 0,595.276 z"
         id="path4318"
         inkscape:connector-curvature="0" /></clipPath><clipPath
       id="clipPath4322"><path
         d="m 0.03,595.32 317.46,0 0,-595.32 -317.46,0 0,595.32 z"
         id="path4324"
         inkscape:connector-curvature="0" /></clipPath><clipPath
       id="clipPath4456"><path
         d="m -0.24,595.138 317.48,0 0,-595.276 -317.48,0 0,595.276 z"
         id="path4458"
         inkscape:connector-curvature="0" /></clipPath><clipPath
       id="clipPath4464"><path
         d="m 0.03,595.32 317.46,0 0,-595.32 -317.46,0 0,595.32 z"
         id="path4466"
         inkscape:connector-curvature="0" /></clipPath></defs><path
     style="fill:#d02c2e;fill-opacity:1;fill-rule:evenodd;stroke:none"
     d="m 336.29007,318.10003 c 8.5855,0 16.45648,-4.5216 20.6875,-11.90625 4.25346,-7.37342 4.25346,-16.47912 0,-23.875 L 200.82136,11.975043 C 196.5454,4.6016433 188.7233,0.10005333 180.22759,0.10005333 c -0.0312,0 -0.0625,-1.2e-4 -0.0937,0 -0.0312,-1.2e-4 -0.0625,0 -0.0937,0 -8.49573,0 -16.31785,4.50157997 -20.59376,11.87498967 L 3.2901025,282.31878 c -4.25347,7.39588 -4.25347,16.50158 0,23.875 4.23102,7.38465 12.1019905,11.90625 20.6875005,11.90625 z"
     id="path3101"
     inkscape:connector-curvature="0"
     sodipodi:nodetypes="scccscscccss" /><path
     inkscape:connector-curvature="0"
     style="fill:#ffffff;fill-opacity:1;fill-rule:evenodd;stroke:none"
     id="path3121"
     d="m 322.51266,286.28314 -284.757837,0 L 180.13382,39.806513 z"
     sodipodi:nodetypes="cccc" /><path
     sodipodi:nodetypes="cccccccccccccccccccccccccccccc"
     inkscape:connector-curvature="0"
     style="fill:#000000;fill-rule:evenodd;stroke:none"
     id="path4059"
     d="m 225.49527,190.42573 -2.5535,-18.8628 -18.92843,-9.22021 -6.939,14.24218 28.42096,13.84088 m -23.88603,-29.25306 -11.72901,-5.72854 -21.13582,7.28522 25.95763,12.65755 6.90738,-14.21463 z m -27.0492,-9.03247 c 7.77537,-2.80326 13.86687,-3.23597 21.1028,0.29421 l 26.0842,12.72753 c 3.36771,1.67517 5.67169,4.94432 5.9374,8.7513 l 2.56133,18.77173 29.98218,20.97524 c 1.51539,1.6396 1.78236,3.90591 0.83001,5.8236 l -5.19749,10.71662 c -1.23332,2.58457 -4.39725,3.61761 -6.99701,2.35398 0.0174,-0.0593 -0.0625,-0.0611 -0.0419,-0.0201 l -23.39587,-9.88409 -76.48336,-37.36955 -13.69881,-8.12585 8.6918,-17.7893 c 0.56652,-1.00756 1.82664,-1.63759 2.90752,-1.37774 l 1.31013,0.41495 c 3.75632,1.27399 7.08687,0.63251 10.79428,-0.89303 l 15.61281,-5.36966 z"
     clip-rule="evenodd" /><path
     sodipodi:nodetypes="sssss"
     style="fill:#ffffff;fill-opacity:1;stroke:none"
     d="m 161.39477,176.66319 c -7.22666,1e-5 -13.08502,5.85836 -13.08501,13.08501 -1e-5,7.22664 5.85835,13.08501 13.08501,13.085 7.22663,0 13.08498,-5.85836 13.08498,-13.085 1e-5,-7.22666 -5.85835,-13.085 -13.08498,-13.08501 z"
     id="path4061"
     inkscape:connector-curvature="0" /><path
     inkscape:connector-curvature="0"
     id="path4063"
     d="m 161.39476,177.93319 c -6.52526,0 -11.815,5.28976 -11.81502,11.81501 2e-5,6.52524 5.28976,11.815 11.81503,11.815 6.52522,0 11.81498,-5.28976 11.81498,-11.815 10e-6,-6.52525 -5.28977,-11.81501 -11.81499,-11.81501 z"
     style="fill:#000000;fill-opacity:1;stroke:none"
     sodipodi:nodetypes="sssss" /><path
     inkscape:connector-curvature="0"
     id="path4065"
     d="m 161.39476,183.2482 c -3.58986,0 -6.50001,2.91013 -6.50001,6.5 1e-5,3.58985 2.91015,6.5 6.50001,6.50001 3.58984,-1e-5 6.49999,-2.91015 6.49999,-6.50001 1e-5,-3.58986 -2.91015,-6.5 -6.49999,-6.5 z"
     style="fill:#ffffff;fill-opacity:1;stroke:none"
     sodipodi:nodetypes="sssss" /><path
     inkscape:connector-curvature="0"
     id="path4067"
     d="m 237.17321,213.68833 c -7.22665,0 -13.08501,5.85835 -13.08501,13.08501 1e-5,7.22664 5.85835,13.085 13.08502,13.085 7.22664,-1e-5 13.08498,-5.85836 13.08499,-13.085 0,-7.22666 -5.85835,-13.08501 -13.085,-13.08501 z"
     style="fill:#ffffff;fill-opacity:1;stroke:none"
     sodipodi:nodetypes="sssss" /><path
     sodipodi:nodetypes="sssss"
     style="fill:#000000;fill-opacity:1;stroke:none"
     d="m 237.17321,214.95833 c -6.52525,0 -11.815,5.28975 -11.81501,11.81501 0,6.52524 5.28975,11.81499 11.81502,11.81499 6.52524,0 11.81499,-5.28976 11.81498,-11.81499 1e-5,-6.52526 -5.28975,-11.81501 -11.81499,-11.81501 z"
     id="path4069"
     inkscape:connector-curvature="0" /><path
     sodipodi:nodetypes="sssss"
     style="fill:#ffffff;fill-opacity:1;stroke:none"
     d="m 237.17322,220.27333 c -3.58987,0 -6.50001,2.91015 -6.5,6.5 -10e-6,3.58985 2.91014,6.5 6.49999,6.50001 3.58984,-1e-5 6.5,-2.91016 6.5,-6.50001 0,-3.58985 -2.91014,-6.50001 -6.49999,-6.5 z"
     id="path4071"
     inkscape:connector-curvature="0" /><path
     inkscape:connector-curvature="0"
     style="fill:#000000;fill-rule:evenodd;stroke:none"
     d="m 304.13381,276.28313 -247.999988,-1e-5 54.588998,-94.49999 z"
     id="path4073"
     sodipodi:nodetypes="cccc" /></svg>