<?xml version="1.0" encoding="UTF-8" standalone="no"?>
<!-- Created with Inkscape (http://www.inkscape.org/) -->

<svg
   xmlns:dc="http://purl.org/dc/elements/1.1/"
   xmlns:cc="http://creativecommons.org/ns#"
   xmlns:rdf="http://www.w3.org/1999/02/22-rdf-syntax-ns#"
   xmlns:svg="http://www.w3.org/2000/svg"
   xmlns="http://www.w3.org/2000/svg"
   xmlns:sodipodi="http://sodipodi.sourceforge.net/DTD/sodipodi-0.dtd"
   xmlns:inkscape="http://www.inkscape.org/namespaces/inkscape"
   width="680.896mm"
   height="602mm"
   viewBox="0 0 680.896 602"
   version="1.1"
   id="svg16"
   inkscape:version="0.92.4 (5da689c313, 2019-01-14)"
   sodipodi:docname="99.svg">
  <defs
     id="defs10" />
  <sodipodi:namedview
     id="base"
     pagecolor="#ffffff"
     bordercolor="#666666"
     borderopacity="1.0"
     inkscape:pageopacity="0.0"
     inkscape:pageshadow="2"
     inkscape:zoom="0.24748737"
     inkscape:cx="1799.2848"
     inkscape:cy="950.67464"
     inkscape:document-units="mm"
     inkscape:current-layer="layer1"
     showgrid="false"
     inkscape:window-width="1920"
     inkscape:window-height="1057"
     inkscape:window-x="-8"
     inkscape:window-y="-8"
     inkscape:window-maximized="1" />
  <metadata
     id="metadata13">
    <rdf:RDF>
      <cc:Work
         rdf:about="">
        <dc:format>image/svg+xml</dc:format>
        <dc:type
           rdf:resource="http://purl.org/dc/dcmitype/StillImage" />
        <dc:title></dc:title>
      </cc:Work>
    </rdf:RDF>
  </metadata>
  <g
     inkscape:label="Layer 1"
     inkscape:groupmode="layer"
     id="layer1"
     transform="translate(0,305)">
    <path
       style="opacity:1;fill:none;fill-opacity:1;fill-rule:nonzero;stroke:#d22d2d;stroke-width:90.00010681;stroke-linecap:square;stroke-linejoin:round;stroke-miterlimit:4;stroke-dasharray:none;stroke-opacity:1"
       d="M 45.99676,250.99994 340.44792,-259.00448 634.8991,250.99995 Z"
       id="rect1389"
       inkscape:connector-curvature="0"
       sodipodi:nodetypes="cccc" />
    <path
       style="opacity:1;fill:#ffffff;fill-opacity:1;fill-rule:nonzero;stroke:none;stroke-width:90;stroke-linecap:square;stroke-linejoin:round;stroke-miterlimit:4;stroke-dasharray:none;stroke-opacity:1"
       d="M 71.977985,236 340.44764,-229.0041 608.91817,235.99951 Z"
       id="rect1403"
       inkscape:connector-curvature="0"
       sodipodi:nodetypes="cccc" />
    <path
       inkscape:connector-curvature="0"
       id="path18"
       style="fill:#000000;fill-opacity:1;fill-rule:nonzero;stroke:none;stroke-width:0.21460816"
       d="m 445.83112,26.000003 c -4.98872,-0.006 -9.16498,4.8406 -9.24235,8.57116 0.0773,0.76928 -0.0926,2.78137 -2.36429,1.71428 -2.09991,-1.28138 -9.67219,-5.35701 -9.67219,-5.35701 0,0 -3.61523,-1.28995 -3.65392,3.4285 0.0365,4.67338 3.90756,6.26551 3.86887,8.57116 0.0366,2.22207 -2.23322,2.72561 -3.22409,2.99991 -1.0274,0.062 -85.22059,6.01478 -87.47958,6.21407 -26.60071,1.85568 -40.61896,3.27634 -66.84563,0.42882 -4.74367,-0.46102 -31.65821,-2.30565 -38.47383,-2.35709 -16.22351,0.0486 -24.83953,13.56816 -26.2224,22.92785 -4.30712,26.261844 -4.47504,21.397738 -4.72862,47.784287 -0.10053,1.29572 0.0847,2.54284 -1.28964,3.64273 -4.73704,3.91807 -7.62536,5.92871 -7.52281,13.49959 -0.10236,2.67422 3.43063,19.61233 3.43897,23.57074 1.08482,-1.35944 4.70176,-6.30627 5.37348,-6.85694 0.67422,-0.62357 0.84208,-1.04292 0.64479,-1.71429 -0.13953,-0.67045 -0.98056,-2.51429 -1.07469,-6.21406 0.0945,-9.21404 6.06621,-8.29151 6.01827,-16.4995 0.0488,-1.9386 -1.38208,-2.44171 -1.0747,-7.71405 0.68524,-15.82237 2.72028,-36.820857 6.23322,-52.069837 0.26198,-1.0564 0.54834,-1.06065 0.85975,-1.0714 0.33753,0.0121 0.53128,0.47378 0.43014,1.0714 -0.22848,7.15263 -0.95132,50.540507 1.50459,58.712487 0.50631,1.4254 1.29136,5.22648 -0.21507,7.71405 -1.63394,2.43162 -5.33478,6.4569 -5.80332,7.07123 -0.42831,0.50415 -1.66233,1.73354 -0.85974,5.35695 3.94602,15.90273 4.64455,31.65549 3.43898,46.92718 -0.0926,1.54919 0.0761,2.49935 0.64485,2.99992 0.69274,0.50536 1.28209,1.00859 1.71949,1.28563 0.40395,0.14213 1.91768,0.47803 1.71949,2.1428 -0.13892,1.60538 -0.64309,5.62974 -0.85975,6.42836 -0.2041,0.62781 -0.49838,1.92681 0.85975,2.3571 5.50947,1.55781 15.20037,2.72943 20.63403,2.35703 0.75873,0.0638 1.93658,-0.43915 1.0747,-2.14274 -1.71309,-3.4319 -2.46323,-3.99266 -5.15853,-6.42842 -1.00164,-0.96595 -6.17515,-8.93201 -6.23321,-21.85645 0.0609,-12.73462 4.01163,-22.96388 8.81244,-30.64191 6.41808,8.36349 13.0274,26.1103 12.2515,39.42736 0.0244,1.7076 0.48376,3.13294 2.36427,3.42844 1.98818,0.45981 2.74691,0.62697 3.43904,2.57139 1.26381,3.3363 1.19929,4.3927 1.28959,6.64265 -0.0902,0.80439 -0.131,1.49653 1.07469,1.71422 7.583,0.76667 10.02253,0.85134 19.34439,0 0.90702,-0.12209 1.29605,-0.97604 0.21507,-1.92851 -5.68293,-5.0405 -17.19073,-18.41386 -17.195,-32.1419 0.004,-3.06351 0.0884,-8.76528 4.08384,-8.78545 3.90969,0.0182 3.27988,4.46388 5.37341,4.4999 2.02686,-0.0364 2.11069,-4.5635 6.01827,-4.4999 3.83018,-0.0638 3.70553,4.46388 6.01826,4.4999 1.80759,-0.0364 2.56419,-4.18684 2.79418,-5.14272 0.44295,-0.88881 0.73722,-1.39193 1.71949,-1.92851 5.09187,-2.23817 9.62705,-6.86186 11.82159,-11.14249 0.40212,-0.89805 0.94784,-1.77879 3.86887,-1.49999 16.44487,1.42455 34.23312,2.02558 49.86552,-0.64281 4.2493,-0.68145 5.77535,1.38099 6.01826,3.85702 -0.0121,1.45389 -0.0121,15.37368 0,16.4995 -0.18034,1.22204 -0.0121,3.40251 0.43015,4.28555 1.99891,3.57507 3.93334,17.01847 3.86889,22.07075 0.0646,1.19525 -0.0622,2.41067 1.50458,3.21421 1.3777,0.79005 2.21812,1.33495 2.36429,3.21421 0.19131,1.81043 0.48376,5.12255 0.43015,5.78553 0.13769,0.51083 0.0122,1.85241 2.14938,2.57133 3.23481,1.13913 13.0123,2.50944 15.26056,2.57133 1.35844,-0.062 1.52819,-0.98436 0.6448,-2.14274 -0.71145,-1.09989 -3.08006,-4.24789 -4.51367,-5.35702 -0.57576,-0.36079 -0.81247,-0.811 -1.50454,-2.57132 -3.83664,-11.22462 -6.13653,-26.36383 -2.14939,-37.92744 0.23214,-0.58614 0.27722,-1.32657 1.0747,-1.28569 0.6577,-0.0425 0.90269,0.67391 1.07469,1.28569 0.13099,0.39239 3.0736,10.83205 3.22403,11.35678 0.0183,0.6495 0.18704,1.27823 0.85974,1.71429 4.90062,4.32733 6.90165,22.1361 6.87801,23.35638 0.131,1.55848 0.3546,2.62065 1.93444,3.4285 1.44867,0.75749 2.45677,1.03708 3.00913,2.35703 0.56968,1.13998 1.69159,4.55002 1.71949,5.78554 0.0841,1.11149 0.19558,1.89426 1.5046,2.3571 3.71193,1.71337 11.4927,1.83315 14.83065,1.49993 1.18651,-0.11784 1.52392,-0.67708 1.07471,-1.71422 -0.92208,-2.00134 -3.43039,-6.06926 -5.58837,-7.49976 -1.19503,-0.79862 -2.37293,-2.19553 -3.22409,-3.64273 -3.46694,-5.93211 -8.5975,-15.71522 -8.5975,-24.42785 0,-3.2778 0.50509,-7.55418 0.85974,-9.21397 0.15049,-1.69412 0.65345,-9.32459 0.64486,-10.92826 0.006,-1.5829 0.0609,-5.15943 4.29872,-5.35702 10.8501,-0.50232 16.10099,-16.2993 16.5502,-18.85653 3.59593,-16.80418 15.64745,-36.181449 24.07301,-43.712969 4.31597,-3.703778 6.00536,-4.144998 12.68133,-4.714138 2.62871,-0.30067 21.2165,-1.89334 22.13858,-1.92851 1.0962,0.0364 1.54541,0.006 2.57929,-0.42822 1.09614,-0.57096 4.12465,-1.68835 6.01821,-1.71428 1.80765,0.0243 3.43258,0.64026 4.94357,0.64287 1.63139,-0.003 3.5916,-1.28824 4.51373,-2.57139 0.76086,-1.17636 1.43361,-2.01421 2.57923,-2.35703 1.09834,-0.55274 2.33205,-1.6714 2.36429,-2.78563 -0.0305,-1.00926 -0.59344,-1.62426 -1.28959,-2.1428 -0.64912,-0.71139 -30.20089,-26.59416 -30.95103,-27.4277 -0.76304,-0.84217 -5.38851,-4.95199 -6.01826,-5.35701 -0.7179,-0.43308 -1.80979,-1.14642 -1.71949,-1.92852 -0.0902,-0.89355 0.6663,-1.35421 1.71949,-1.28569 1.04892,-0.0686 1.84847,0.34926 3.43897,0.42883 8.47504,-0.0796 15.03489,-5.71053 15.90542,-6.64265 0.50325,-0.43733 1.17571,-1.06709 1.07469,-1.92851 0.10114,-0.73071 -0.61256,-1.31783 -1.28965,-1.2857 -0.75226,-0.0304 -5.71515,1.97996 -12.25142,1.92852 -10.07626,0.0486 -10.9167,-3.00848 -16.76515,-2.99992" />
  </g>
</svg>
