<?xml version="1.0" encoding="UTF-8" standalone="no"?>
<!-- Created with Inkscape (http://www.inkscape.org/) -->

<svg
   xmlns:dc="http://purl.org/dc/elements/1.1/"
   xmlns:cc="http://creativecommons.org/ns#"
   xmlns:rdf="http://www.w3.org/1999/02/22-rdf-syntax-ns#"
   xmlns:svg="http://www.w3.org/2000/svg"
   xmlns="http://www.w3.org/2000/svg"
   xmlns:sodipodi="http://sodipodi.sourceforge.net/DTD/sodipodi-0.dtd"
   xmlns:inkscape="http://www.inkscape.org/namespaces/inkscape"
   width="680.896mm"
   height="602mm"
   viewBox="0 0 680.896 602"
   version="1.1"
   id="svg16"
   inkscape:version="0.92.4 (5da689c313, 2019-01-14)"
   sodipodi:docname="99.svg">
  <defs
     id="defs10" />
  <sodipodi:namedview
     id="base"
     pagecolor="#ffffff"
     bordercolor="#666666"
     borderopacity="1.0"
     inkscape:pageopacity="0.0"
     inkscape:pageshadow="2"
     inkscape:zoom="0.24748737"
     inkscape:cx="1799.2848"
     inkscape:cy="950.67464"
     inkscape:document-units="mm"
     inkscape:current-layer="layer1"
     showgrid="false"
     inkscape:window-width="1920"
     inkscape:window-height="1057"
     inkscape:window-x="-8"
     inkscape:window-y="-8"
     inkscape:window-maximized="1" />
  <metadata
     id="metadata13">
    <rdf:RDF>
      <cc:Work
         rdf:about="">
        <dc:format>image/svg+xml</dc:format>
        <dc:type
           rdf:resource="http://purl.org/dc/dcmitype/StillImage" />
        <dc:title></dc:title>
      </cc:Work>
    </rdf:RDF>
  </metadata>
  <g
     inkscape:label="Layer 1"
     inkscape:groupmode="layer"
     id="layer1"
     transform="translate(0,305)">
    <path
       style="opacity:1;fill:none;fill-opacity:1;fill-rule:nonzero;stroke:#d22d2d;stroke-width:90.00010681;stroke-linecap:square;stroke-linejoin:round;stroke-miterlimit:4;stroke-dasharray:none;stroke-opacity:1"
       d="M 45.99676,250.99994 340.44792,-259.00448 634.8991,250.99995 Z"
       id="rect1389"
       inkscape:connector-curvature="0"
       sodipodi:nodetypes="cccc" />
    <path
       style="opacity:1;fill:#ffffff;fill-opacity:1;fill-rule:nonzero;stroke:none;stroke-width:90;stroke-linecap:square;stroke-linejoin:round;stroke-miterlimit:4;stroke-dasharray:none;stroke-opacity:1"
       d="M 71.977985,236 340.44764,-229.0041 608.91817,235.99951 Z"
       id="rect1403"
       inkscape:connector-curvature="0"
       sodipodi:nodetypes="cccc" />
    <path
       inkscape:connector-curvature="0"
       id="path18"
       style="fill:#000000;fill-opacity:1;fill-rule:nonzero;stroke:none;stroke-width:0.20611969"
       d="m 361.7077,-118.9997 c -14.21743,-0.0525 -24.82421,11.2525 -24.80147,25.284171 -0.0234,8.65618 9.08148,21.20372 9.92061,22.20072 0.7564,0.90854 1.87452,5.03828 -1.03341,5.96127 -6.97338,2.35368 -17.46439,5.52349 -25.42149,10.68927 -2.33342,1.41216 -6.96506,3.63637 -7.85381,8.42805 l -27.28154,115.73147 c 0,0 -6.8039,0.3537 -6.82041,5.96133 0.0176,4.08249 1.0334,4.31679 1.0334,4.31679 0,0 -13.63251,1.07508 -17.98107,-0.20569 -4.27614,-1.10182 -6.07221,-3.72279 -2.68682,-6.98915 3.5611,-3.40615 5.83664,-7.93265 5.78702,-12.95042 0.0469,-4.98898 -5.93787,-17.13977 -17.36099,-17.06163 -11.33429,-0.0781 -17.56293,10.04784 -17.56767,16.65054 0.005,6.74034 3.83714,11.98221 5.37362,13.56709 1.57902,1.51291 2.7757,3.77412 -1.44677,5.75575 -16.26145,7.91412 -18.74245,16.803026 -20.87452,36.178969 -0.5343,5.56061 -0.89449,32.24506 -0.62007,34.32883 0.20505,2.2051 3.19938,6.97062 8.2672,6.98915 4.99335,-0.0175 7.26929,-3.11631 7.23373,-5.55018 0.0352,-2.33107 -1.88119,-3.52274 -2.68681,-4.31678 -0.87118,-0.8737 -1.82952,-3.13648 -1.24009,-4.93352 0.60865,-1.7771 4.08193,-21.91007 3.9269,-23.43411 0.75395,-0.61999 2.79016,-4.07422 3.92691,-6.16685 6.56615,12.19723 1.86093,33.24555 -0.82676,48.71823 -0.42944,2.09736 -0.54954,3.40784 2.89351,4.31684 0.0293,1.11616 0,43.78472 0,43.78472 0,0 -0.32926,3.07704 -1.0334,3.70012 -0.73309,0.80621 -2.64962,2.47395 -2.68682,4.11127 0.0352,1.69832 1.3548,2.41288 2.48018,2.46672 1.27061,-0.0524 1.9893,-0.64877 2.68681,-1.02781 0.73989,-0.57396 7.02705,-4.93352 7.02705,-4.93352 0,0 2.21561,-2.0741 2.89351,-5.13903 l 6.82042,-31.24544 c 0,0 -0.0703,-1.90477 1.44672,-3.28903 1.3558,-1.23665 2.31479,-2.06997 3.1002,-2.46672 0.8908,-0.31816 2.08953,-0.67529 2.0668,1.02781 0.0234,1.63237 0,37.41229 0,37.41229 0,0 0.14236,1.98414 1.24003,2.87788 1.05825,1.01179 11.35908,7.68291 11.78073,8.22248 0.29761,0.41372 1.97376,0.89054 2.48012,0.8223 0.45287,0.0682 2.60831,-0.6465 2.68682,-2.46678 -0.0785,-1.75363 -1.03751,-2.70686 -1.65342,-3.49455 -0.58059,-0.87998 -2.97822,-3.85844 -3.30689,-4.31678 -0.38843,-0.25639 -1.98824,-2.56072 -1.03334,-6.16691 0.40483,-1.35628 5.07601,-26.73025 5.16694,-29.39538 1.46535,-0.43294 12.24572,-5.07884 8.68052,-17.67836 l -13.43414,-55.09065 c 0,0 -1.52529,-3.387683 1.44679,-4.522373 12.91741,-4.625146 20.46323,-8.080476 31.20844,-16.033866 1.2029,-0.99081 4.94584,-4.436 -1.86011,-9.2503 l 32.03522,-81.4026308 -2.06679,88.8028708 c 0,0 -0.40484,5.51522 0,9.86697 L 341.24651,205.994 c 0,0 -0.21091,1.6453 -0.82676,2.46673 -0.58059,0.84631 -4.53451,6.68405 -4.96025,7.19467 -0.53138,0.44168 -1.2504,1.63318 -0.82671,2.6723 0.29586,0.86728 1.49219,2.65383 2.89351,2.6723 1.47362,-0.0175 2.19281,-0.73303 3.30683,-1.23333 l 17.36099,-12.74491 c 0,0 2.48428,-1.40767 2.68681,-6.37242 0,0 0.62629,-35.73797 1.44679,-57.76295 0.74609,-25.42786 2.30448,-32.09898 7.85375,-56.940769 l 3.72022,48.923869 c 0,0 0.91148,22.13965 0.8267,23.8452 0.085,11.13013 0.37202,35.24256 -1.65341,46.2515 -0.41772,1.95838 0.18161,2.07719 0.62007,2.46672 0.51849,0.56347 11.53882,11.04652 11.98736,11.71703 0.50852,0.75954 2.30653,1.71278 3.10014,1.64454 0.88254,0.0682 4.47667,-1.00462 4.54692,-3.08345 -0.0703,-0.7797 -0.19215,-1.85169 -0.8267,-2.87788 -0.80187,-1.11848 -2.11842,-3.38214 -2.27343,-3.70012 -0.32458,-0.39681 -0.80399,-0.99244 -0.41363,-3.08345 0.32867,-1.9592 9.19099,-75.97762 9.71393,-78.11361 0.43588,-1.99375 3.31099,-48.374959 3.30683,-53.651739 0.005,-5.20692 -7.98194,-85.1027608 -8.06045,-86.336151 0,0 19.88248,24.967591 19.84111,60.435311 0.041,5.60565 -0.52083,13.87545 -0.8267,15.21157 -0.0908,1.03603 -0.25017,2.78336 -0.82672,3.90569 -0.38256,1.10182 -1.65962,4.59637 -1.65341,6.98915 -0.006,2.37216 2.0709,10.15476 10.74727,10.07254 4.73709,0.0822 9.60852,-5.71461 9.50722,-9.45587 0.10136,-3.88309 -0.93626,-6.18742 -1.44672,-6.78357 -0.44818,-0.67424 -0.92801,-3.69191 -0.20681,-6.78352 0.55774,-2.94366 1.99444,-23.91099 2.06674,-29.18986 -0.0727,-19.30024 -7.0994,-51.90447 -11.78066,-72.15234 -0.55775,-2.75656 -3.62308,-8.50206 -7.64712,-11.10036 -11.5182,-7.91208 -21.75706,-14.16942 -33.68858,-16.23939 -1.89321,-0.222 -5.88626,-1.80898 -2.48018,-6.98914 3.30273,-5.30347 9.37084,-13.88163 9.30054,-23.02296 0.0703,-8.966591 -6.47728,-23.896601 -23.97471,-23.845211" />
  </g>
</svg>
