<?xml version="1.0" encoding="UTF-8" standalone="no"?>
<!-- Created with Inkscape (http://www.inkscape.org/) -->

<svg
   xmlns:dc="http://purl.org/dc/elements/1.1/"
   xmlns:cc="http://creativecommons.org/ns#"
   xmlns:rdf="http://www.w3.org/1999/02/22-rdf-syntax-ns#"
   xmlns:svg="http://www.w3.org/2000/svg"
   xmlns="http://www.w3.org/2000/svg"
   xmlns:sodipodi="http://sodipodi.sourceforge.net/DTD/sodipodi-0.dtd"
   xmlns:inkscape="http://www.inkscape.org/namespaces/inkscape"
   width="680.896mm"
   height="602mm"
   viewBox="0 0 680.896 602"
   version="1.1"
   id="svg16"
   inkscape:version="0.92.4 (5da689c313, 2019-01-14)"
   sodipodi:docname="88.svg">
  <defs
     id="defs10" />
  <sodipodi:namedview
     id="base"
     pagecolor="#ffffff"
     bordercolor="#666666"
     borderopacity="1.0"
     inkscape:pageopacity="0.0"
     inkscape:pageshadow="2"
     inkscape:zoom="0.17236328"
     inkscape:cx="1671.5202"
     inkscape:cy="818.8857"
     inkscape:document-units="mm"
     inkscape:current-layer="layer1"
     showgrid="false"
     inkscape:window-width="1920"
     inkscape:window-height="1057"
     inkscape:window-x="-8"
     inkscape:window-y="-8"
     inkscape:window-maximized="1"
     inkscape:snap-global="false"
     showguides="false" />
  <metadata
     id="metadata13">
    <rdf:RDF>
      <cc:Work
         rdf:about="">
        <dc:format>image/svg+xml</dc:format>
        <dc:type
           rdf:resource="http://purl.org/dc/dcmitype/StillImage" />
        <dc:title></dc:title>
      </cc:Work>
    </rdf:RDF>
  </metadata>
  <g
     inkscape:label="Layer 1"
     inkscape:groupmode="layer"
     id="layer1"
     transform="translate(0,305)">
    <path
       style="opacity:1;fill:none;fill-opacity:1;fill-rule:nonzero;stroke:#d22d2d;stroke-width:90.00010681;stroke-linecap:square;stroke-linejoin:round;stroke-miterlimit:4;stroke-dasharray:none;stroke-opacity:1"
       d="m 45.99676,250.99994 294.4512,-510.00442 294.4511,510.00443 z"
       id="rect1389"
       inkscape:connector-curvature="0"
       sodipodi:nodetypes="cccc" />
    <path
       style="opacity:1;fill:#ffffff;fill-opacity:1;fill-rule:nonzero;stroke:none;stroke-width:90;stroke-linecap:square;stroke-linejoin:round;stroke-miterlimit:4;stroke-dasharray:none;stroke-opacity:1"
       d="m 71.97796,236 268.4697,-465.0041 268.4705,465.00361 z"
       id="rect1403"
       inkscape:connector-curvature="0"
       sodipodi:nodetypes="cccc" />
    <path
       inkscape:connector-curvature="0"
       id="path24"
       style="fill:#000000;fill-opacity:1;fill-rule:nonzero;stroke:none;stroke-width:0.21863675"
       d="m 401.9483,-29.284992 c -7.045,-13.01851 -21.6478,-21.82119 -37.4597,-21.82119 -1.9081,0 -3.8029,0.13299 -5.6956,0.43669 -8.055,-11.17464 -21.2031,-18.41272 -36.1453,-18.32983 -24.5,-0.0829 -44.439,19.77875 -44.4697,44.29701 0.031,24.48338515 19.9697,44.34723 44.4697,44.29701 3.9409,0.0495 7.6693,-0.43423 11.1721,-1.3093 7.6518,8.21351 18.5612,13.38952 30.6688,13.31095 6.3637,0.0784 12.377,-1.34199 17.7441,-3.92781 5.4305,7.85564 14.4756,12.97268 24.754,12.87451 5.8753,0.0983 11.3847,-1.60384 15.9916,-4.5825 0,0 3.1435,-2.14501 6.1337,-2.18207 2.9442,0.0372 8.1536,5.26777 8.066,7.4215 0.087,1.93773 0,16.8 0,16.8 h 20.6312 c 0,0 8.4777,-65.3282448 -55.8609,-87.28472"
       sodipodi:nodetypes="cscccccccccccccc" />
    <circle
       style="opacity:1;fill:#000000;fill-opacity:1;fill-rule:nonzero;stroke:none;stroke-width:132.65708923;stroke-linecap:square;stroke-linejoin:round;stroke-miterlimit:4;stroke-dasharray:none;stroke-opacity:1"
       id="path260"
       cx="226.47809"
       cy="183.49994"
       r="32.5" />
    <circle
       style="opacity:1;fill:#000000;fill-opacity:1;fill-rule:nonzero;stroke:none;stroke-width:110.49061584;stroke-linecap:square;stroke-linejoin:round;stroke-miterlimit:4;stroke-dasharray:none;stroke-opacity:1"
       id="path286"
       cx="424.27802"
       cy="194.29993"
       r="21.299999" />
    <circle
       r="21.299999"
       cy="194.29993"
       cx="470.27802"
       id="circle288"
       style="opacity:1;fill:#000000;fill-opacity:1;fill-rule:nonzero;stroke:none;stroke-width:110.49061584;stroke-linecap:square;stroke-linejoin:round;stroke-miterlimit:4;stroke-dasharray:none;stroke-opacity:1" />
    <circle
       r="32.5"
       cy="183.49994"
       cx="296.47809"
       id="circle340"
       style="opacity:1;fill:#000000;fill-opacity:1;fill-rule:nonzero;stroke:none;stroke-width:132.65708923;stroke-linecap:square;stroke-linejoin:round;stroke-miterlimit:4;stroke-dasharray:none;stroke-opacity:1" />
    <circle
       style="opacity:1;fill:#000000;fill-opacity:1;fill-rule:nonzero;stroke:none;stroke-width:132.65708923;stroke-linecap:square;stroke-linejoin:round;stroke-miterlimit:4;stroke-dasharray:none;stroke-opacity:1"
       id="circle344"
       cx="366.47797"
       cy="183.49994"
       r="32.5" />
    <path
       style="fill:#000000;fill-opacity:1;fill-rule:nonzero;stroke:none;stroke-width:0.21889168"
       d="m 196.9782,61.000078 v 26.19996 h 23.1996 V 125.79977 H 183.978 v 45.20035 H 493.9782 V 147.99997 H 480.9779 V 81.599848 H 463.178 c 0,0 -1.5283,-9.86348 5.4002,-9.7999 v -10.79987 h -41.8001 v 10.79987 c 6.9286,-0.0636 5.4002,9.7999 5.4002,9.7999 h -80.9361 c 0,0 2.0295,-12.53112 -9.6232,-20.59977 h -19.6825 c -11.6527,8.06865 -9.6232,20.59977 -9.6232,20.59977 h -54.3352 v -20.59977 z"
       id="path394"
       inkscape:connector-curvature="0" />
  </g>
</svg>
