<?xml version="1.0" encoding="UTF-8" standalone="no"?>
<!-- Created with Inkscape (http://www.inkscape.org/) -->

<svg
   xmlns:dc="http://purl.org/dc/elements/1.1/"
   xmlns:cc="http://creativecommons.org/ns#"
   xmlns:rdf="http://www.w3.org/1999/02/22-rdf-syntax-ns#"
   xmlns:svg="http://www.w3.org/2000/svg"
   xmlns="http://www.w3.org/2000/svg"
   xmlns:sodipodi="http://sodipodi.sourceforge.net/DTD/sodipodi-0.dtd"
   xmlns:inkscape="http://www.inkscape.org/namespaces/inkscape"
   width="680.896mm"
   height="602mm"
   viewBox="0 0 680.896 602"
   version="1.1"
   id="svg16"
   inkscape:version="0.92.4 (5da689c313, 2019-01-14)"
   sodipodi:docname="88.svg">
  <defs
     id="defs10" />
  <sodipodi:namedview
     id="base"
     pagecolor="#ffffff"
     bordercolor="#666666"
     borderopacity="1.0"
     inkscape:pageopacity="0.0"
     inkscape:pageshadow="2"
     inkscape:zoom="0.24748737"
     inkscape:cx="1860.1727"
     inkscape:cy="676.3853"
     inkscape:document-units="mm"
     inkscape:current-layer="layer1"
     showgrid="false"
     inkscape:window-width="1920"
     inkscape:window-height="1057"
     inkscape:window-x="-8"
     inkscape:window-y="-8"
     inkscape:window-maximized="1" />
  <metadata
     id="metadata13">
    <rdf:RDF>
      <cc:Work
         rdf:about="">
        <dc:format>image/svg+xml</dc:format>
        <dc:type
           rdf:resource="http://purl.org/dc/dcmitype/StillImage" />
        <dc:title></dc:title>
      </cc:Work>
    </rdf:RDF>
  </metadata>
  <g
     inkscape:label="Layer 1"
     inkscape:groupmode="layer"
     id="layer1"
     transform="translate(0,305)">
    <path
       style="opacity:1;fill:none;fill-opacity:1;fill-rule:nonzero;stroke:#d22d2d;stroke-width:90.00010681;stroke-linecap:square;stroke-linejoin:round;stroke-miterlimit:4;stroke-dasharray:none;stroke-opacity:1"
       d="M 45.99676,250.99994 340.44792,-259.00448 634.8991,250.99995 Z"
       id="rect1389"
       inkscape:connector-curvature="0"
       sodipodi:nodetypes="cccc" />
    <path
       style="opacity:1;fill:#ffffff;fill-opacity:1;fill-rule:nonzero;stroke:none;stroke-width:90;stroke-linecap:square;stroke-linejoin:round;stroke-miterlimit:4;stroke-dasharray:none;stroke-opacity:1"
       d="M 71.977985,236 340.44764,-229.0041 608.91817,235.99951 Z"
       id="rect1403"
       inkscape:connector-curvature="0"
       sodipodi:nodetypes="cccc" />
    <path
       inkscape:connector-curvature="0"
       id="path18"
       style="fill:#000000;fill-opacity:1;fill-rule:nonzero;stroke:none;stroke-width:0.22050156"
       d="m 263.06936,122.83221 c 0,0 -3.07022,-7.28511 -10.77652,-9.50627 -7.90647,-2.1926 -14.43401,-1.11999 -20.89327,-13.485596 l -5.71821,-9.506291 c 0,0 -1.29753,-3.47595 -7.25762,-4.64256 -5.74919,-1.28581 -13.55492,-3.49232 -16.71461,-3.31615 -4.30846,0.40043 -7.70873,-0.75383 -13.41571,5.96903 C 183.89045,93.478443 111.978,219 111.978,219 h 172.86435 c 0,0 4.42716,-0.46561 3.29889,-4.42154 -1.31074,-3.89137 -22.2128,-78.48177 -22.2128,-78.48177 l 23.97222,-15.25416 c 0,0 2.01241,3.24628 9.01711,0 6.98057,-3.29296 9.45698,-4.86365 9.45698,-4.86365 0,0 4.04227,-0.44557 3.51884,-8.84301 2.76893,-1.82831 28.3709,-18.128237 28.3709,-18.128237 0,0 -8.95557,22.616257 -9.67693,32.498107 -0.9039,10.06157 -4.39855,77.15529 -4.39855,77.15529 0,0 0.4046,4.99745 -3.07901,5.96904 -3.34734,0.98976 -18.69397,5.30583 -18.69397,5.30583 0,0 -4.49318,0.75119 -4.39861,4.20045 -0.0948,3.41717 1.53075,4.72459 3.5189,4.64256 1.91559,0.0821 50.58371,0 50.58371,0 0,0 4.99678,0.73578 5.71814,-5.74795 0.90608,-6.59333 10.11676,-73.39703 10.11676,-73.39703 0,0 -4.00717,-1.03707 -3.95873,-5.08474 -0.0499,-4.12613 -0.0499,-7.23159 1.31954,-8.84301 1.23381,-1.65804 15.85029,-18.66783 25.95165,-42.446547 1.46473,-3.3488 2.60397,-0.24377 2.85907,0.66327 0.394,0.72799 19.42194,52.875967 21.77299,54.826737 2.20148,1.97239 53.59234,43.82131 54.76238,44.65723 1.10626,0.79875 4.35896,3.0873 4.39854,10.39051 -0.0374,7.40869 -2.96904,13.29393 -4.83843,15.47531 -2.03217,2.39558 -5.28487,5.66505 -5.27832,7.07443 -0.006,1.53289 1.45818,2.51382 2.63919,2.43179 1.09523,0.0821 7.76128,0.0821 8.35727,0 0.70603,0.0821 9.48779,0.73578 15.61502,-9.94839 6.23278,-10.89391 17.59432,-30.2873 17.59432,-30.2873 0,0 2.46102,-3.65549 -1.09965,-5.96904 -3.59584,-2.26429 -9.28761,-3.57171 -12.75589,-7.07442 -3.36055,-3.68996 -36.21136,-41.77887 -36.72817,-42.44646 -0.45946,-0.64002 -4.6867,-5.21785 -10.11676,-2.87404 -1.56366,-2.01637 -3.51884,-4.86365 -3.51884,-4.86365 0,0 -9.26341,-57.072847 -19.13385,-81.134677 2.22567,-1.51436 5.05838,-3.75827 5.05838,-3.75827 0,0 8.06258,6.82237 14.73524,-0.44244 6.66169,-7.12085 6.17343,-6.95723 5.05838,-10.169472 -1.16125,-3.32719 -1.64945,-4.30875 -3.95873,-5.52686 -2.24325,-1.39723 -5.98428,-5.1576936 -5.93808,-11.7169844 -0.0436,-6.5173201 -2.8107,-24.3360056 -5.93809,-31.8348656 -3.0504,-7.54092 -4.02686,-15.87764 -15.8349,-21.00218 -18.19255,-8.27925 -42.8334,-13.18495 -60.92034,-8.40089 -4.82304,1.2336 -20.78113,13.03462 -22.21287,13.92775 -1.49553,0.74286 -7.74807,3.3515 -7.25769,-2.21076 1.31299,-12.30505 -9.3338,-34.15611 -28.37084,-34.04557 -23.16296,-0.11029 -26.68841,22.38166 -26.61142,24.98153 -0.0773,11.77664 8.37928,26.56663 31.88974,28.7398 0,0 4.78788,0.7693 4.83844,3.75826 -0.0499,2.8961 -0.0499,1.91448 -1.53954,3.53718 -1.4383,1.64702 -13.69719,13.103176 -13.85554,16.1385155 -1.40749,14.2792645 1.76385,32.7921165 4.61856,43.3308365 0,0 3.56946,9.03753 0.87971,15.47525 -2.83931,6.3117 -14.87384,36.71838 -15.8349,38.4671 -2.89648,5.36198 -4.01371,9.695307 -2.19931,15.917457 -1.16124,0.78923 -21.3331,13.48563 -21.3331,13.48563" />
    <path
       inkscape:connector-curvature="0"
       id="path20"
       style="fill:#ffffff;fill-opacity:1;fill-rule:nonzero;stroke:none;stroke-width:0.22050156"
       d="m 422.29806,22.463943 5.05837,-3.095072 -12.97582,-45.98369 c 0,0 -1.75948,-3.49081 -4.61856,-3.75827 -2.99541,-0.38666 -16.7146,-0.44243 -16.7146,-0.44243 0,0 -4.81643,0.28952 -1.75942,4.64262 4.90882,6.85552 28.53143,43.04337 31.01003,48.636592" />
    <path
       inkscape:connector-curvature="0"
       id="path22"
       style="fill:#ffffff;fill-opacity:1;fill-rule:nonzero;stroke:none;stroke-width:0.22050156"
       d="m 347.08229,69.774063 7.03774,-14.81205 c 0,0 0.99404,-3.90642 0.22007,-5.08475 -8.39474,-11.65287 -18.07161,-20.02945 -23.09258,-22.99184 -1.40532,-0.78923 -3.67944,-0.75827 -3.29896,1.98967 3.23736,17.85629 -1.84296,40.08323 -15.39501,58.80608 -2.50497,3.18147 -1.07329,4.56918 1.31959,3.09505 2.48515,-1.46816 33.20927,-21.00216 33.20927,-21.00216" />
  </g>
</svg>
