<?xml version="1.0" encoding="UTF-8" standalone="no"?>
<!-- Created with Inkscape (http://www.inkscape.org/) -->

<svg
   xmlns:dc="http://purl.org/dc/elements/1.1/"
   xmlns:cc="http://creativecommons.org/ns#"
   xmlns:rdf="http://www.w3.org/1999/02/22-rdf-syntax-ns#"
   xmlns:svg="http://www.w3.org/2000/svg"
   xmlns="http://www.w3.org/2000/svg"
   xmlns:sodipodi="http://sodipodi.sourceforge.net/DTD/sodipodi-0.dtd"
   xmlns:inkscape="http://www.inkscape.org/namespaces/inkscape"
   width="680.896mm"
   height="602mm"
   viewBox="0 0 680.896 602"
   version="1.1"
   id="svg16"
   inkscape:version="0.92.4 (5da689c313, 2019-01-14)"
   sodipodi:docname="99.svg">
  <defs
     id="defs10" />
  <sodipodi:namedview
     id="base"
     pagecolor="#ffffff"
     bordercolor="#666666"
     borderopacity="1.0"
     inkscape:pageopacity="0.0"
     inkscape:pageshadow="2"
     inkscape:zoom="0.24748737"
     inkscape:cx="1799.2848"
     inkscape:cy="950.67464"
     inkscape:document-units="mm"
     inkscape:current-layer="layer1"
     showgrid="false"
     inkscape:window-width="1920"
     inkscape:window-height="1057"
     inkscape:window-x="-8"
     inkscape:window-y="-8"
     inkscape:window-maximized="1" />
  <metadata
     id="metadata13">
    <rdf:RDF>
      <cc:Work
         rdf:about="">
        <dc:format>image/svg+xml</dc:format>
        <dc:type
           rdf:resource="http://purl.org/dc/dcmitype/StillImage" />
        <dc:title></dc:title>
      </cc:Work>
    </rdf:RDF>
  </metadata>
  <g
     inkscape:label="Layer 1"
     inkscape:groupmode="layer"
     id="layer1"
     transform="translate(0,305)">
    <path
       style="opacity:1;fill:none;fill-opacity:1;fill-rule:nonzero;stroke:#d22d2d;stroke-width:90.00010681;stroke-linecap:square;stroke-linejoin:round;stroke-miterlimit:4;stroke-dasharray:none;stroke-opacity:1"
       d="M 45.99676,250.99994 340.44792,-259.00448 634.8991,250.99995 Z"
       id="rect1389"
       inkscape:connector-curvature="0"
       sodipodi:nodetypes="cccc" />
    <path
       style="opacity:1;fill:#ffffff;fill-opacity:1;fill-rule:nonzero;stroke:none;stroke-width:90;stroke-linecap:square;stroke-linejoin:round;stroke-miterlimit:4;stroke-dasharray:none;stroke-opacity:1"
       d="M 71.977985,236 340.44764,-229.0041 608.91817,235.99951 Z"
       id="rect1403"
       inkscape:connector-curvature="0"
       sodipodi:nodetypes="cccc" />
    <path
       inkscape:connector-curvature="0"
       id="path18"
       style="fill:#000000;fill-opacity:1;fill-rule:nonzero;stroke:none;stroke-width:0.21647464"
       d="m 406.55821,-5.2090048 c 8.84681,-3.74675 9.34419,-16.9653202 9.29877,-20.5863402 0.0429,-8.2302 -2.97775,-31.26094 -24.6526,-31.20455 -21.87169,-0.0553 -24.53153,25.52053 -24.4364,30.12105 -0.095,3.83773 -1.57214,18.0964902 14.48883,22.5366302 0.77637,0.19472 2.53228,1.4063499 2.16253,2.81707 -0.47814,1.25683995 -1.0229,1.68154999 -3.02752,1.51685995 -1.86413,-0.32064 -5.6766,-0.92747 -7.13632,-1.08349995 -1.44238,-0.20823 -3.80168,-1.1160001 -7.56877,1.30020999 C 363.86588,1.2594352 338.6337,14.183265 322.22025,35.963615 c -0.66609,1.0402 -2.9648,3.58638 -1.29752,8.23456 l 12.3263,35.7552 c 0,0 1.72998,3.59676 -0.86501,5.20078 -2.48472,1.78946 -11.43537,5.4259 -12.97503,5.85085 -1.36238,0.30222 -4.14557,1.39334 -6.92005,-2.81707 6.37289,9.539681 -22.28036,-37.13778 -32.4377,-47.24025 -0.95583,-1.03362 -1.80135,-3.33717 0.43279,-4.98407 2.28144,-1.82891 13.16751,-9.78821 13.19129,-23.1867 -0.0246,-13.42876985 -9.45883,-22.3979198 -21.62508,-22.3199098 -12.02575,-0.078 -21.94518,9.21399995 -21.8414,23.6201198 -0.10355,9.67341 6.34917,17.27086 7.78505,18.85271 1.46616,1.48872 1.46616,5.36762 -2.81126,5.20078 -4.10879,-0.0762 -10.31733,-0.64142 -14.48883,0.43367 -9.36154,2.02393 -22.98102,6.81513 -30.9239,15.81892 -3.52516,4.13031 -12.7394,18.32623 -15.13764,24.05355 -3.65853,8.68568 -4.21861,23.851095 -3.45998,32.504705 0.2262,1.21464 0.10542,2.54796 -0.21639,3.4672 -0.52472,0.89886 -1.85498,1.80815 -1.94625,5.63415 0.0913,3.68883 3.47777,8.17362 9.94756,8.23456 4.0538,-0.0614 11.43256,-3.57642 11.4613,-11.05164 -0.0307,-3.32585 -2.14566,-5.60207 -3.24378,-6.93434 -1.19112,-1.47116 -2.62461,-5.44108 -0.43278,-10.401503 4.04711,-9.716782 11.49807,-22.538772 27.03138,-28.604192 0,0 0.12322,4.66766 0.21639,5.85085 -0.0931,13.23552 -12.35014,53.322075 -32.00517,61.108895 L 161.978,156.44789 c 0,0 7.40486,34.49552 7.78505,36.62198 0.58785,1.99427 2.03924,3.8126 3.89252,3.90057 1.77566,-0.0879 3.46931,-2.51153 3.67631,-4.55065 0.0368,-1.8402 1.24426,-13.59781 1.29748,-14.73548 0.18941,-1.04363 0.79407,-4.68026 6.05504,-6.50093 5.38356,-1.81576 34.05092,-11.39101 35.89769,-12.13513 2.02411,-0.71101 9.40262,-2.89251 15.78635,-9.75143 6.19776,-6.71677 17.20496,-19.44436 17.94882,-21.0197 0,0 22.64154,49.57555 27.46392,89.06294 l 30.92391,-7.15099 c 0,0 1.0272,-0.49878 2.16253,0.43305 1.28239,0.84646 6.44429,3.51291 7.56877,4.11728 0.97099,0.52766 3.79524,1.01157 4.75752,-0.21684 0.81099,-1.19615 0.73093,-3.05411 0.43278,-4.76734 l -4.10873,-23.18671 c 0,0 -1.13968,-3.34539 2.16246,-5.41749 10.11842,-5.9973 40.96668,-32.77559 47.79153,-41.60604 1.86841,-2.25847 6.54593,-7.59204 13.62383,-7.58443 7.11466,-0.006 15.98748,0.15418 21.40886,-1.30021 5.54467,-1.45427 9.09336,1.77761 9.29884,6.71764 0.87795,28.75481 10.28056,43.81616 14.27256,48.97382 7.40229,9.61948 8.21972,17.00409 9.08258,22.53662 0.30956,2.09508 1.11582,9.20621 7.56878,9.10135 2.61878,0.10506 3.10101,-0.62304 5.19004,-1.0835 2.02412,-0.50861 27.42713,-6.56941 28.54512,-6.71763 1.30182,-0.33723 3.5984,-1.79125 3.24379,-3.46721 -0.36964,-1.7184 -2.06304,-3.05153 -3.89252,-3.25044 -2.0414,-0.043 -14.86293,-1.25536 -16.21883,-1.51692 -5.04299,-0.80677 -7.16445,-1.29584 -9.08256,-7.58443 -0.81094,-2.69943 -17.62662,-63.22433 -18.16508,-69.12673 0,0 7.47364,-1.04707 11.4613,-4.76736 0,0 -20.76014,-28.764995 -28.97765,-70.426945 0,0 14.66831,31.48041 49.95398,47.456901 2.33551,1.06574 3.79304,1.546591 5.19005,2.600424 1.77978,1.22152 4.52184,2.75613 6.92005,2.81707 2.44143,-0.0614 9.13443,-2.64698 9.08251,-8.884635 0.0551,-6.36813 -5.67437,-8.22696 -6.70378,-8.66793 -6.53724,-2.80866 -14.26177,-8.01785 -19.89508,-12.78521 -13.19565,-11.63672 -20.73199,-21.50515 -27.89644,-39.00569 -1.1764,-2.79759 -10.69144,-22.02955 -12.54256,-24.0535404 -4.27958,-4.6308094 -10.02322,-8.0502894 -14.92131,-9.10128941 -1.43158,-0.39005 -5.48415,-1.11820004 -5.4063,-2.60042009 -0.0778,-2.2145999 1.14612,-2.6090099 1.94626,-3.0337199" />
    <path
       inkscape:connector-curvature="0"
       id="path20"
       style="fill:#ffffff;fill-opacity:1;fill-rule:nonzero;stroke:none;stroke-width:0.21647464"
       d="m 367.84926,31.629685 -20.11142,9.53471 c 0,0 -7.68555,1.77694 -4.75752,12.56849 0.58848,2.42271 2.20146,8.24102 2.59506,10.18485 0.57315,1.93511 3.15508,7.91379 4.10872,9.318 0.98178,1.50604 4.04608,7.48478 3.46007,11.91842 -0.38252,4.29406 -4.0915,11.40545 -8.86631,13.001911 -4.90244,1.636281 -28.77224,9.231764 -30.27519,9.534714 -1.4013,0.34338 -11.39858,3.73718 -17.08382,-2.3837 -5.60522,-6.161613 -17.30013,-20.586355 -17.30013,-20.586355 l -0.21639,8.45128 c 0,0 0.46036,10.822085 2.81132,18.852705 2.48686,8.13118 13.37728,53.25794 15.57008,74.97759 0.62495,6.52722 3.85139,13.15339 6.27125,13.21864 2.41772,-0.0652 3.1443,-2.40903 2.59499,-4.11729 -0.57928,-1.52361 -4.29041,-11.54415 -4.54124,-12.56849 -0.39354,-1.0768 -2.00683,-4.63191 2.595,-7.58442 4.59102,-3.02796 7.89752,-5.53255 12.97508,-14.51878 5.24627,-8.79145 14.27691,-24.79159 41.95275,-38.78903 0,0 -4.45048,-0.70924 -10.81258,-6.9343 0,0 20.23247,-33.855645 19.03015,-84.078945" />
  </g>
</svg>
