<?xml version="1.0" encoding="UTF-8" standalone="no"?>
<!-- Created with Inkscape (http://www.inkscape.org/) -->

<svg
   xmlns:dc="http://purl.org/dc/elements/1.1/"
   xmlns:cc="http://creativecommons.org/ns#"
   xmlns:rdf="http://www.w3.org/1999/02/22-rdf-syntax-ns#"
   xmlns:svg="http://www.w3.org/2000/svg"
   xmlns="http://www.w3.org/2000/svg"
   xmlns:sodipodi="http://sodipodi.sourceforge.net/DTD/sodipodi-0.dtd"
   xmlns:inkscape="http://www.inkscape.org/namespaces/inkscape"
   width="680.896mm"
   height="602mm"
   viewBox="0 0 680.896 602"
   version="1.1"
   id="svg16"
   inkscape:version="0.92.4 (5da689c313, 2019-01-14)"
   sodipodi:docname="88.svg">
  <defs
     id="defs10" />
  <sodipodi:namedview
     id="base"
     pagecolor="#ffffff"
     bordercolor="#666666"
     borderopacity="1.0"
     inkscape:pageopacity="0.0"
     inkscape:pageshadow="2"
     inkscape:zoom="0.24748737"
     inkscape:cx="1799.2848"
     inkscape:cy="950.67464"
     inkscape:document-units="mm"
     inkscape:current-layer="layer1"
     showgrid="false"
     inkscape:window-width="1920"
     inkscape:window-height="1057"
     inkscape:window-x="-8"
     inkscape:window-y="-8"
     inkscape:window-maximized="1" />
  <metadata
     id="metadata13">
    <rdf:RDF>
      <cc:Work
         rdf:about="">
        <dc:format>image/svg+xml</dc:format>
        <dc:type
           rdf:resource="http://purl.org/dc/dcmitype/StillImage" />
        <dc:title></dc:title>
      </cc:Work>
    </rdf:RDF>
  </metadata>
  <g
     inkscape:label="Layer 1"
     inkscape:groupmode="layer"
     id="layer1"
     transform="translate(0,305)">
    <path
       style="opacity:1;fill:none;fill-opacity:1;fill-rule:nonzero;stroke:#d22d2d;stroke-width:90.00010681;stroke-linecap:square;stroke-linejoin:round;stroke-miterlimit:4;stroke-dasharray:none;stroke-opacity:1"
       d="M 45.99676,250.99994 340.44792,-259.00448 634.8991,250.99995 Z"
       id="rect1389"
       inkscape:connector-curvature="0"
       sodipodi:nodetypes="cccc" />
    <path
       style="opacity:1;fill:#ffffff;fill-opacity:1;fill-rule:nonzero;stroke:none;stroke-width:90;stroke-linecap:square;stroke-linejoin:round;stroke-miterlimit:4;stroke-dasharray:none;stroke-opacity:1"
       d="M 71.977985,236 340.44764,-229.0041 608.91817,235.99951 Z"
       id="rect1403"
       inkscape:connector-curvature="0"
       sodipodi:nodetypes="cccc" />
    <path
       inkscape:connector-curvature="0"
       id="path18"
       style="fill:#000000;fill-opacity:1;fill-rule:nonzero;stroke:none;stroke-width:0.2162853"
       d="m 345.79092,-95.99726 c -2.08365,-0.0246 -3.48216,-0.13046 -3.44765,12.15727 -0.0366,12.2289 1.72382,20.84101 1.72382,20.84101 -1.11405,0.608 -13.49552,3.64498 -20.4706,2.6051 -0.56255,-1.88873 -2.3918,-11.75998 -2.37025,-13.02564 0.19425,-1.33729 1.59239,-10.55942 -2.15481,-10.63758 -3.03614,0.0782 -3.25158,6.98608 -3.23221,11.28891 -0.0184,6.25445 0.19607,8.64029 0.21561,9.5521 -6.69496,-3.51476 -9.06307,-9.04632 -11.20493,-9.11795 -2.16562,0.0714 -2.38105,1.58917 -2.3703,2.60516 -0.0122,0.93785 7.95768,12.65438 13.79073,15.84779 -0.0184,1.14412 -0.0184,5.2667 0,5.86153 -15.63092,0.0554 -23.38392,-19.25184 -27.15048,-19.32132 -1.61607,0.0695 -3.44771,0.93569 -3.44771,3.03932 0,5.13427 11.73719,17.88852 15.94554,20.6239 2.7495,1.77144 2.46724,1.68031 5.17154,1.95384 2.47799,0.128 4.56818,0.96173 5.60247,2.17095 24.76941,27.67509 37.2888,42.6827597 64.21297,42.7674397 2.95858,-0.0849 6.61744,-0.62739 8.18827,-0.86837 -0.60104,1.8691701 -15.0297,28.8799503 -17.8848,32.3469603 -2.20441,-0.42954 -6.72733,-0.97261 -8.61925,-0.86843 -10.92048,-0.104 -12.42887,3.25858 -23.70277,3.25643 -14.45871,0.002 -43.63902,-10.62891 -71.32383,-10.63759 -19.83713,0.006 -39.56859,13.24269 -46.32824,21.70938 -1.57063,2.16443 -4.90882,5.85285 -4.95604,15.84785 0.0488,3.34757 -0.70609,17.99271 11.42048,16.282 2.38968,7.81451 10.2525,22.94249 18.96221,28.65639 2.39829,1.58325 5.73392,8.0926 5.81796,11.9401 -0.0843,11.66448 -8.37352,10.79611 -8.4037,19.32139 0.0306,6.5534 5.8438,8.50657 8.83469,8.68374 3.30972,0.27569 9.17728,4.81248 10.77401,8.46663 1.41566,3.50566 7.76802,12.94244 11.63585,16.282 3.67182,3.38714 10.02418,15.86133 10.774,17.8017 0.35305,1.39741 0.0184,1.07612 1.07741,1.30258 1.13341,0.44615 1.56441,0.28307 2.15482,1.30252 0.59248,0.93286 1.45451,2.01747 2.15481,2.60516 0.70028,0.49662 1.13128,0.98536 0.8619,1.51963 -0.26936,0.55015 -1.02352,5.8659 -0.43123,7.59827 0.59066,0.32923 10.98083,6.5662 11.85142,6.72995 0.31456,-0.32677 2.37024,-2.17095 2.37024,-2.17095 l 3.44771,2.17095 c 0,0 1.33383,-5.26196 -3.01672,-10.63764 -0.75636,-0.97692 -1.62475,-1.45864 -1.72383,-2.6051 0.099,-3.10117 -8.83902,-16.68145 -11.63592,-18.88717 -3.42829,-3.10203 -7.93398,-9.53254 -8.83468,-14.76231 1.72597,0.40861 20.5158,11.79856 21.33252,12.37431 0.79723,0.50893 1.98238,1.54006 2.15475,2.60511 0.15759,2.08781 0.42879,5.1067 4.09413,4.559 2.46296,-0.52553 5.33963,0.29477 7.75728,3.90769 0.46971,0.75046 0.67231,0.93366 0.43062,1.73674 -0.12705,0.55569 -4.4324,9.23321 -4.74056,9.76921 -0.23088,0.44061 -0.82312,1.19987 -0.21561,2.17095 1.5062,2.12683 4.3161,3.20036 6.24895,7.16405 1.05798,2.06153 2.52759,4.40725 2.80123,8.68374 -0.0184,1.29673 0.19424,5.47316 3.01673,5.42737 2.77538,0.0431 3.15244,-1.0931 3.44765,-1.73673 0.45871,0.48061 1.21318,0.91501 2.15481,0.86837 0.9955,0.0492 3.04256,-0.71317 3.01672,-3.47354 0.0244,-2.55519 -1.10544,-3.96454 -1.50839,-4.99316 -0.56439,-1.14147 -2.12678,-7.05291 -2.15475,-13.02558 0.0306,-5.85131 2.16342,-29.46376 15.29906,-47.9777 5.13056,0.29169 20.93604,-1.66553 29.30529,-9.33506 4.77934,-4.18165 25.73907,-15.64594 31.24454,-17.15037 2.83141,-0.70646 8.2874,-3.88819 8.18827,-9.76922 0.099,-3.94763 -2.07724,-6.40775 -3.87864,-7.38116 -2.48233,-1.05661 -19.27898,-9.01205 -25.21116,-10.203433 0.0428,-4.473222 3.9713,-9.511547 8.61919,-11.505947 2.05141,-0.89815 4.1631,-1.27046 5.38704,-5.42737 0.96966,-3.42572 1.11399,-9.5022 12.06684,-22.57775 5.29431,-6.52146 7.85421,-16.82692 7.75728,-21.49227 2.83788,1.00517 7.51381,0.29723 11.20499,-1.95384 2.7818,-1.9864 4.55951,-2.93723 7.32629,-2.6051 0.76712,0.11261 6.14982,0.76418 8.18827,0.65126 2.05347,-0.104 3.66955,-0.104 6.03339,-1.95385 2.15694,-1.83876 5.512,-7.53094 6.03344,-8.68374 0.10812,-0.74898 0.10812,-0.96603 0.64643,-1.51962 0.53873,-0.5317 0.86197,-1.72376 0.86197,-2.82221 0,-1.0725 -1.0774,-3.02412 -2.5858,-3.47354 -9.48544,-3.24338 -11.65314,-4.10307 -18.9622,-10.8546902 -2.47806,-2.2881201 -6.68422,-5.40559011 -11.42043,-6.2956801 -4.44541,-0.96172 -6.39114,-1.76283 -9.91209,-3.90768 -1.37261,-0.73163 -2.34228,-1.27219 -2.37031,-3.03932 0.0306,-1.70634 0.67446,-2.032 2.80124,-2.6050997 8.35415,-2.75926 11.90314,-7.37255 16.37646,-14.76238 0.87701,-1.36769 1.30799,-4.51556 -1.07734,-4.55901 -2.56638,0.0431 -2.67412,1.45452 -3.23222,2.38806 -0.73481,0.80326 -3.42615,3.62332 -4.30963,4.34184 1.09683,-1.98418 1.31227,-6.61267 1.2929,-8.46663 0.0184,-2.05151 -0.62492,-3.35409 -1.93932,-3.25643 -1.41353,-0.0978 -2.41984,0.33662 -2.37031,2.38806 -0.0488,1.35464 0.3103,8.94208 -4.52505,10.20343 0.52774,-1.33514 0.81665,-4.51556 0.86191,-6.07864 -0.0428,-1.76498 -1.62469,-11.16515 -4.30956,-11.07179 -2.77113,-0.0935 -2.84436,1.71286 -2.80124,2.6051 -0.0428,0.98781 1.60961,4.67624 1.50833,6.947 0.1014,7.9283 -7.48363,12.33961 -11.42042,12.37438 -2.54701,-0.0369 -9.22254,-2.42276 -9.26567,-4.3419 0.0428,-3.57771 8.22485,-6.39556 8.18827,-16.282 0.0366,-16.14963 -11.23297,-25.62359 -12.71332,-25.61706 -2.89824,-0.006 -2.53834,1.8019 -2.58575,2.6051 0.0488,3.89685 8.22913,6.7907 8.18821,20.40679 0.0428,3.3064 -3.11581,10.24903 -8.4037,10.20343 -12.01303,0.0431 -33.22271,-26.06211 -33.18392,-60.56912 -0.0366,-5.23193 -2.30135,-5.23193 -3.01673,-5.21027" />
    <path
       inkscape:connector-curvature="0"
       id="path20"
       style="fill:#ffffff;fill-opacity:1;fill-rule:nonzero;stroke:none;stroke-width:0.2162853"
       d="m 325.9668,-51.49303 c -0.0244,0.27569 7.26167,28.6954 18.10029,28.65632 2.97794,0.0369 4.27085,-2.34677 4.30963,-4.34184 -0.0366,-4.02492 -7.61294,-9.77137 -7.54184,-18.23584 -0.0709,-1.7064 1.11405,-2.00597 1.93931,-1.95385 1.25626,-0.0492 10.83869,11.98786 12.49784,20.18969 1.98243,10.38361 2.09232,17.5064297 17.88486,17.5845897 3.06626,-0.0782 9.74186,-0.6187097 9.6966,-2.3880597 0.0428,-1.43932 -0.248,-1.43064 -1.07742,-1.95384 -15.87437,-12.20066 -27.60942,-25.91011 -32.75293,-34.73496 -1.31874,-2.24258 -5.32882,-5.55107 -9.91209,-4.3419 -2.40262,0.70991 -10.58435,1.79538 -13.14425,1.51969" />
    <path
       inkscape:connector-curvature="0"
       id="path22"
       style="fill:#ffffff;fill-opacity:1;fill-rule:nonzero;stroke:none;stroke-width:0.2162853"
       d="m 326.39773,154.52884 c -0.99337,-0.0726 -6.1627,0.25292 -6.24889,-2.17095 -0.12949,-2.56603 1.59238,-1.26437 1.72383,-3.25642 0.0843,-2.13034 -1.31446,-1.47902 -1.2929,-3.90769 0.19423,-2.3448 2.88528,-3.53796 4.74055,-4.55895 1.80573,-1.14904 3.52956,-1.58239 4.95605,-1.51962 0.18751,-1.36443 3.30979,-18.06965 3.66315,-19.3214 0.5088,-1.35249 1.37046,-6.12528 -3.44766,-6.07857 -19.70783,-0.0492 -35.7266,-5.95728 -38.78639,-7.59826 -1.18729,-0.6928 -6.78762,-1.88616 -6.89536,2.82221 -0.73481,13.99665 -7.12162,21.64138 -17.23838,25.83412 -2.57286,1.13304 -4.51004,3.08602 -2.15482,5.86152 4.6587,5.57587 14.28201,12.91881 27.58146,19.10428 6.13252,2.74424 26.0515,15.00225 27.15047,16.71615 1.1636,-3.88313 5.68431,-20.58913 6.24889,-21.92642" />
    <path
       inkscape:connector-curvature="0"
       id="path24"
       style="fill:#ffffff;fill-opacity:1;fill-rule:nonzero;stroke:none;stroke-width:0.2162853"
       d="m 345.36,139.11521 c 0,0 3.37222,0.29969 3.66314,0.21723 0.71325,-1.14733 3.01025,-3.38948 3.23222,-3.47348 0.85543,0.15631 4.80304,0.87945 8.61919,-0.43446 7.93393,-3.01218 21.9531,-9.96847 29.08979,-13.4598 1.43076,-0.73704 1.90915,-0.70295 2.15476,-1.95384 0.0428,-1.06332 -0.89209,-1.85895 -3.66315,-1.73674 -5.23616,0.0899 -11.36869,-1.03292 -17.66937,-4.12479 -5.11332,-2.57796 -11.43117,0.31446 -13.35974,2.60517 -5.78993,7.28109 -10.9162,16.13696 -12.06684,22.36064" />
  </g>
</svg>
